<svg xmlns="http://www.w3.org/2000/svg" width="96" height="96" viewBox="0 0 96 96">
  <g id="Grupo_1188523" data-name="Grupo 1188523" transform="translate(-383.67 -8399.924)">
    <circle id="Elipse_13890" data-name="Elipse 13890" cx="48" cy="48" r="48" transform="translate(383.67 8399.924)" fill="#5a9ad7"/>
    <path id="Intersección_1" data-name="Intersección 1" d="M0,47.89A47.893,47.893,0,0,1,79.511,11.92L1.1,58.131A48,48,0,0,1,0,47.89Z" transform="translate(383.779 8400.031)" fill="#19538d"/>
    <path id="Trazado_1032916" data-name="Trazado 1032916" d="M40,0A40,40,0,1,1,0,40,40,40,0,0,1,40,0Z" transform="translate(391.67 8407.924)" fill="#e6f3ff"/>
    <g id="Grupo_1188524" data-name="Grupo 1188524" transform="translate(8229.978 15828.409)">
      <path id="reutilizar-el-agua" d="M26.448,27.6,22.3,24.629l7.4-10.337,2.562,5.178ZM17.795,48.917l1.841.972-1.2-8.28L10.922,45.29l1.841.972a.3.3,0,0,1,.124.4l-4.911,9.3,3.338,4.6,6.081-11.522A.3.3,0,0,1,17.795,48.917Zm-3.252,6.8-2.7,5.109,12.713-.056-.022-5.1Zm21.477-29.8a.3.3,0,0,1-.149.171L34,27.01l7.414,3.876,1.417-8.245-1.866.923a.3.3,0,0,1-.4-.134L35.908,14l-5.68.013L36,25.69a.3.3,0,0,1,.015.226Zm20.913,27.8L50.948,42.5l-4.5,2.4,4.7,8.818Zm-13.01.592a.3.3,0,0,1-.3-.3V51.931l-6.762,4.927,6.762,4.927V59.7a.3.3,0,0,1,.3-.3H54.443l2.507-5.1Z" transform="translate(-7830.284 -7418.085)" fill="#19538d"/>
      <path id="Trazado_1031858" data-name="Trazado 1031858" d="M13.61,32.758a1.82,1.82,0,1,1-2.573,2.574L7.412,31.707a1.812,1.812,0,0,1,0-2.574l3.625-3.625a1.82,1.82,0,0,1,2.573,2.574l-2.356,2.338Zm9.5-7.249L19.482,36.383a1.812,1.812,0,0,1-1.722,1.287,2.266,2.266,0,0,1-.58-.091,1.812,1.812,0,0,1-1.142-2.3L19.664,24.4a1.817,1.817,0,0,1,3.443,1.16Zm8.627,6.144-3.625,3.625A1.82,1.82,0,1,1,25.535,32.7l2.356-2.284-2.356-2.338a1.82,1.82,0,1,1,2.573-2.573l3.625,3.625a1.812,1.812,0,0,1,0,2.574Z" transform="translate(-7817.011 -7407.126)" fill="#19538d"/>
    </g>
  </g>
</svg>
