<svg xmlns="http://www.w3.org/2000/svg" width="96" height="96" viewBox="0 0 96 96">
  <g id="Grupo_1188519" data-name="Grupo 1188519" transform="translate(-383.67 -8399.924)">
    <circle id="Elipse_13890" data-name="Elipse 13890" cx="48" cy="48" r="48" transform="translate(383.67 8399.924)" fill="#5a9ad7"/>
    <path id="Intersección_1" data-name="Intersección 1" d="M0,47.89A47.893,47.893,0,0,1,79.511,11.92L1.1,58.131A48,48,0,0,1,0,47.89Z" transform="translate(383.779 8400.031)" fill="#19538d"/>
    <path id="Trazado_1032916" data-name="Trazado 1032916" d="M40,0A40,40,0,1,1,0,40,40,40,0,0,1,40,0Z" transform="translate(391.67 8407.924)" fill="#e6f3ff"/>
    <g id="Grupo_1188343" data-name="Grupo 1188343" transform="translate(406.126 8422.38)">
      <rect id="Rectángulo_459838" data-name="Rectángulo 459838" width="52" height="52" transform="translate(-0.455 -0.456)" fill="none"/>
      <g id="guardar-el-archivo" transform="translate(3.544 4.21)">
        <g id="Grupo_1184650" data-name="Grupo 1184650" transform="translate(11.823 31.528)">
          <g id="Grupo_1184649" data-name="Grupo 1184649">
            <rect id="Rectángulo_458306" data-name="Rectángulo 458306" width="19.705" height="3.941" fill="#19538d"/>
          </g>
        </g>
        <g id="Grupo_1184652" data-name="Grupo 1184652" transform="translate(11.823 39.41)">
          <g id="Grupo_1184651" data-name="Grupo 1184651">
            <path id="Trazado_1030355" data-name="Trazado 1030355" d="M139.636,465.455V469.4h19.7v-3.941Z" transform="translate(-139.636 -465.455)" fill="#19538d"/>
          </g>
        </g>
        <g id="Grupo_1184654" data-name="Grupo 1184654">
          <g id="Grupo_1184653" data-name="Grupo 1184653">
            <path id="Trazado_1030356" data-name="Trazado 1030356" d="M42.956,11.332,35.038.787A1.971,1.971,0,0,0,33.462,0H30.214V16.421a1.971,1.971,0,0,1-1.971,1.971H9.852a1.971,1.971,0,0,1-1.971-1.971V0H1.971A1.971,1.971,0,0,0,0,1.971V41.38a1.971,1.971,0,0,0,1.971,1.97H7.882V29.557a1.97,1.97,0,0,1,1.971-1.971H33.5a1.97,1.97,0,0,1,1.971,1.971V43.351H41.38a1.971,1.971,0,0,0,1.97-1.971V12.516A1.971,1.971,0,0,0,42.956,11.332Z" fill="#19538d"/>
          </g>
        </g>
        <g id="Grupo_1184656" data-name="Grupo 1184656" transform="translate(11.823)">
          <g id="Grupo_1184655" data-name="Grupo 1184655">
            <path id="Trazado_1030357" data-name="Trazado 1030357" d="M139.636,0V14.45h14.45V0Z" transform="translate(-139.636)" fill="#19538d"/>
          </g>
        </g>
      </g>
    </g>
  </g>
</svg>
