<svg xmlns="http://www.w3.org/2000/svg" xmlns:xlink="http://www.w3.org/1999/xlink" width="150" height="150" viewBox="0 0 150 150">
  <defs>
    <clipPath id="clip-path">
      <path id="path3234" d="M0-682.665H80.71v80.71H0Z" transform="translate(0 682.665)" fill="#1e535a"/>
    </clipPath>
  </defs>
  <g id="Grupo_1188508" data-name="Grupo 1188508" transform="translate(-185.738 -9253.601)">
    <g id="Grupo_1188415" data-name="Grupo 1188415" transform="translate(185.738 9253.602)">
      <circle id="Elipse_13890" data-name="Elipse 13890" cx="75" cy="75" r="75" transform="translate(150 150) rotate(180)" fill="#7dbfff"/>
      <path id="Intersección_3" data-name="Intersección 3" d="M0,70.769,123.344,0a74.749,74.749,0,0,1-73.06,90.233A74.419,74.419,0,0,1,0,70.769Z" transform="translate(24.681 59.414)" fill="#19538d"/>
      <circle id="Elipse_13891" data-name="Elipse 13891" cx="62.637" cy="62.637" r="62.637" transform="translate(137.638 137.609) rotate(180)" fill="#dfefff"/>
      <path id="Intersección_2" data-name="Intersección 2" d="M0,62.677a62.641,62.641,0,0,1,124.648-8.925L24.091,112.08A62.59,62.59,0,0,1,0,62.677Z" transform="translate(12.364 12.333)" fill="#fff"/>
      <g id="Grupo_1188343" data-name="Grupo 1188343" transform="translate(35.959 35.932)">
        <rect id="Rectángulo_459838" data-name="Rectángulo 459838" width="78.078" height="78.078" transform="translate(0 0)" fill="none"/>
        <g id="Grupo_1188511" data-name="Grupo 1188511" transform="translate(-3.991 -2.932)">
          <g id="Grupo_1099618" data-name="Grupo 1099618" transform="translate(0 0)">
            <rect id="Rectángulo_401104" data-name="Rectángulo 401104" width="87.065" height="88.114" transform="translate(0)" fill="none"/>
          </g>
          <g id="Grupo_1185616" data-name="Grupo 1185616" transform="translate(1.001 -0.217)">
            <g id="g3228" transform="translate(3.548 3.765)">
              <g id="g3230" transform="translate(0 0)">
                <g id="g3232" clip-path="url(#clip-path)">
                  <g id="g3238" transform="translate(18.713 4.61)">
                    <path id="path3240" d="M-282.545-139.87h-32.483a5.407,5.407,0,0,1-5.4-5.4v-9.74a5.407,5.407,0,0,1,5.4-5.4h32.483a5.407,5.407,0,0,1,5.4,5.4v9.74A5.407,5.407,0,0,1-282.545-139.87Zm-32.483-17.389a2.251,2.251,0,0,0-2.248,2.248v9.74a2.251,2.251,0,0,0,2.248,2.248h32.483a2.251,2.251,0,0,0,2.248-2.248v-9.74a2.251,2.251,0,0,0-2.248-2.248Z" transform="translate(320.429 160.412)" fill="#1e535a"/>
                  </g>
                  <g id="g3242" transform="translate(18.713 30.084)">
                    <path id="path3244" d="M-282.545-139.87h-32.483a5.407,5.407,0,0,1-5.4-5.4v-9.74a5.407,5.407,0,0,1,5.4-5.4h32.483a5.407,5.407,0,0,1,5.4,5.4v9.74A5.407,5.407,0,0,1-282.545-139.87Zm-32.483-17.389a2.251,2.251,0,0,0-2.248,2.248v9.74a2.251,2.251,0,0,0,2.248,2.248h32.483a2.251,2.251,0,0,0,2.248-2.248v-9.74a2.251,2.251,0,0,0-2.248-2.248Z" transform="translate(320.429 160.412)" fill="#1e535a"/>
                  </g>
                  <g id="g3246" transform="translate(18.713 55.559)">
                    <path id="path3248" d="M-201.664-139.87h-9.562a1.576,1.576,0,0,1-1.576-1.576,1.576,1.576,0,0,1,1.576-1.576h9.562a2.251,2.251,0,0,0,2.248-2.248v-9.74a2.251,2.251,0,0,0-2.248-2.248h-32.483a2.251,2.251,0,0,0-2.248,2.248v9.74a2.251,2.251,0,0,0,2.248,2.248h9.051a1.576,1.576,0,0,1,1.576,1.576,1.576,1.576,0,0,1-1.576,1.576h-9.051a5.407,5.407,0,0,1-5.4-5.4v-9.74a5.407,5.407,0,0,1,5.4-5.4h32.483a5.407,5.407,0,0,1,5.4,5.4v9.74A5.407,5.407,0,0,1-201.664-139.87Z" transform="translate(239.547 160.412)" fill="#1e535a"/>
                  </g>
                  <g id="g3250" transform="translate(58.845 13.479)">
                    <path id="path3252" d="M2.419,15.119h-7.74A1.576,1.576,0,0,1-6.9,13.543a1.576,1.576,0,0,1,1.576-1.576h7.74A2.964,2.964,0,0,0,5.38,9.006V-7.22a2.964,2.964,0,0,0-2.961-2.961H-11.757a1.576,1.576,0,0,1-1.576-1.576,1.576,1.576,0,0,1,1.576-1.576H2.419A6.12,6.12,0,0,1,8.532-7.22V9.006A6.12,6.12,0,0,1,2.419,15.119Z" transform="translate(13.333 13.333)" fill="#1e535a"/>
                  </g>
                  <g id="g3254" transform="translate(65.096 34.33)">
                    <path id="path3256" d="M-44.937-76.538A1.571,1.571,0,0,1-46.052-77L-50.5-81.448a1.576,1.576,0,0,1-.462-1.115,1.576,1.576,0,0,1,.462-1.115l4.449-4.449a1.576,1.576,0,0,1,2.229,0,1.576,1.576,0,0,1,0,2.229l-3.334,3.334,3.334,3.334a1.576,1.576,0,0,1,0,2.229A1.571,1.571,0,0,1-44.937-76.538Z" transform="translate(50.963 88.588)" fill="#1e535a"/>
                  </g>
                  <g id="g3258" transform="translate(0 38.917)">
                    <path id="path3260" d="M-157.757,15.119h-7.74a6.12,6.12,0,0,1-6.113-6.113V-7.22a6.12,6.12,0,0,1,6.113-6.113h14.176a1.576,1.576,0,0,1,1.576,1.576,1.576,1.576,0,0,1-1.576,1.576H-165.5a2.964,2.964,0,0,0-2.961,2.961V9.006a2.964,2.964,0,0,0,2.961,2.96h7.74a1.576,1.576,0,0,1,1.576,1.576A1.576,1.576,0,0,1-157.757,15.119Z" transform="translate(171.61 13.333)" fill="#1e535a"/>
                  </g>
                  <g id="g3262" transform="translate(8.013 59.768)">
                    <path id="path3264" d="M-11.757-76.539A1.571,1.571,0,0,1-12.872-77a1.576,1.576,0,0,1,0-2.229l3.334-3.334L-12.872-85.9a1.576,1.576,0,0,1,0-2.229,1.576,1.576,0,0,1,2.229,0l4.449,4.449a1.576,1.576,0,0,1,.462,1.115,1.576,1.576,0,0,1-.462,1.115L-10.642-77A1.571,1.571,0,0,1-11.757-76.539Z" transform="translate(13.333 88.589)" fill="#1e535a"/>
                  </g>
                  <g id="g3266" transform="translate(40.198 74.524)">
                    <path id="path3268" fill="#1e535a"/>
                  </g>
                  <g id="g3270" transform="translate(27.358 13.304)">
                    <path id="path3272" d="M11.427-10.181H-11.757a1.576,1.576,0,0,1-1.576-1.576,1.576,1.576,0,0,1,1.576-1.576H11.427A1.576,1.576,0,0,1,13-11.757,1.576,1.576,0,0,1,11.427-10.181Z" transform="translate(13.333 13.333)" fill="#1e535a"/>
                  </g>
                  <g id="g3274" transform="translate(27.358 38.917)">
                    <path id="path3276" d="M11.427-10.181H-11.757a1.576,1.576,0,0,1-1.576-1.576,1.576,1.576,0,0,1,1.576-1.576H11.427A1.576,1.576,0,0,1,13-11.757,1.576,1.576,0,0,1,11.427-10.181Z" transform="translate(13.333 13.333)" fill="#1e535a"/>
                  </g>
                  <g id="g3278" transform="translate(27.358 64.53)">
                    <path id="path3280" d="M11.427-10.181H-11.757a1.576,1.576,0,0,1-1.576-1.576,1.576,1.576,0,0,1,1.576-1.576H11.427A1.576,1.576,0,0,1,13-11.757,1.576,1.576,0,0,1,11.427-10.181Z" transform="translate(13.333 13.333)" fill="#1e535a"/>
                  </g>
                  <g id="g3282" transform="translate(0 4.61)">
                    <path id="path3284" d="M-143.84-76.33h-13.69a5.6,5.6,0,0,1-5.6-5.6v-4.85a1.576,1.576,0,0,1,1.576-1.576,1.576,1.576,0,0,1,1.576,1.576v4.85a2.446,2.446,0,0,0,2.443,2.443h13.69a1.576,1.576,0,0,1,1.576,1.576A1.576,1.576,0,0,1-143.84-76.33Z" transform="translate(163.126 88.352)" fill="#1e535a"/>
                  </g>
                </g>
              </g>
            </g>
          </g>
        </g>
      </g>
    </g>
  </g>
</svg>
