<svg xmlns="http://www.w3.org/2000/svg" width="130" height="130" viewBox="0 0 130 130">
  <g id="Grupo_1188514" data-name="Grupo 1188514" transform="translate(-186 -9253.862)">
    <g id="Grupo_1188415" data-name="Grupo 1188415" transform="translate(186 9253.862)">
      <circle id="Elipse_13890" data-name="Elipse 13890" cx="65" cy="65" r="65" transform="translate(130 130) rotate(180)" fill="#7dbfff"/>
      <path id="Intersección_3" data-name="Intersección 3" d="M0,61.621,107.4,0A65.086,65.086,0,0,1,43.784,78.57,64.8,64.8,0,0,1,0,61.621Z" transform="translate(21.185 51.43)" fill="#19538d"/>
      <path id="Trazado_1032950" data-name="Trazado 1032950" d="M54.541,0A54.541,54.541,0,1,1,0,54.541,54.541,54.541,0,0,1,54.541,0Z" transform="translate(119.541 119.518) rotate(180)" fill="#d5f4f8"/>
      <path id="Intersección_2" data-name="Intersección 2" d="M0,54.575A54.544,54.544,0,0,1,108.536,46.8L20.977,97.592A54.5,54.5,0,0,1,0,54.575Z" transform="translate(10.46 10.435)" fill="#fff"/>
      <g id="Grupo_1188343" data-name="Grupo 1188343" transform="translate(31.006 30.983)">
        <rect id="Rectángulo_459838" data-name="Rectángulo 459838" width="67.985" height="67.985" transform="translate(0 0)" fill="none"/>
        <g id="Grupo_1188515" data-name="Grupo 1188515" transform="translate(1.328 -1.147)">
          <g id="Grupo_1099618" data-name="Grupo 1099618" transform="translate(0 0)">
            <rect id="Rectángulo_401104" data-name="Rectángulo 401104" width="69.491" height="70.328" transform="translate(0)" fill="none"/>
          </g>
          <g id="Grupo_1185623" data-name="Grupo 1185623" transform="translate(-0.746 1.605)">
            <g id="Grupo_1099618-2" data-name="Grupo 1099618" transform="translate(-0.254 -0.327)">
              <rect id="Rectángulo_401104-2" data-name="Rectángulo 401104" width="67.939" height="68.758" transform="translate(0)" fill="none"/>
            </g>
            <g id="_x31_3" transform="translate(1.094 2.432)">
              <path id="Trazado_1030338" data-name="Trazado 1030338" d="M45.563,16.654H38.581V14.327a2.327,2.327,0,1,0-4.654,0v2.327H24.618V14.327a2.327,2.327,0,1,0-4.654,0v2.327H12.982A6.982,6.982,0,0,0,6,23.636v16.29a6.982,6.982,0,0,0,6.982,6.982H26.945v2.327H24.618a2.327,2.327,0,0,0,0,4.654h9.309a2.327,2.327,0,1,0,0-4.654H31.6V46.908H45.563a6.982,6.982,0,0,0,6.982-6.982V23.636A6.982,6.982,0,0,0,45.563,16.654ZM21.95,37.94A1.163,1.163,0,1,1,20.3,39.586L13.323,32.6a1.163,1.163,0,0,1,0-1.645L20.3,23.977a1.163,1.163,0,1,1,1.645,1.645l-6.159,6.159ZM33.8,25.322,26.822,39.285a1.166,1.166,0,0,1-1.042.643,1.15,1.15,0,0,1-.519-.123,1.164,1.164,0,0,1-.52-1.561l6.982-13.963A1.164,1.164,0,0,1,33.8,25.322ZM45.222,32.6,38.24,39.586a1.163,1.163,0,0,1-1.645-1.645l6.159-6.159-6.159-6.159a1.163,1.163,0,1,1,1.645-1.645l6.982,6.982a1.163,1.163,0,0,1,0,1.645Z" transform="translate(3.309 11.272)" fill="#19538d"/>
              <path id="Trazado_1030339" data-name="Trazado 1030339" d="M28,2V6.654h4.654Z" transform="translate(32.508 -2)" fill="#19538d"/>
              <path id="Trazado_1030340" data-name="Trazado 1030340" d="M38.945,6.654V2H29.636a2.327,2.327,0,0,0-2.327,2.327v9.309H20.327A2.326,2.326,0,0,0,18,15.963v4.654a2.327,2.327,0,0,0,4.654,0V18.29h4.654v6.982A2.327,2.327,0,0,0,29.636,27.6H43.6a2.327,2.327,0,0,0,2.327-2.327V8.982H41.272A2.327,2.327,0,0,1,38.945,6.654Zm3.491,16.29H30.8a1.164,1.164,0,1,1,0-2.327H42.436a1.164,1.164,0,0,1,0,2.327Zm0-4.654H30.8a1.164,1.164,0,1,1,0-2.327H42.436a1.164,1.164,0,0,1,0,2.327ZM43.6,12.472a1.163,1.163,0,0,1-1.164,1.164H30.8a1.164,1.164,0,1,1,0-2.327H42.436A1.163,1.163,0,0,1,43.6,12.472Z" transform="translate(19.235 -2)" fill="#19538d"/>
              <path id="Trazado_1030341" data-name="Trazado 1030341" d="M6.654,2,2,6.654H6.654Z" transform="translate(-2 -2)" fill="#19538d"/>
              <path id="Trazado_1030342" data-name="Trazado 1030342" d="M20.618,25.272V18.29h4.654v2.327a2.327,2.327,0,0,0,4.654,0V15.963A2.327,2.327,0,0,0,27.6,13.636H20.618V4.327A2.327,2.327,0,0,0,18.29,2H8.982V6.654A2.327,2.327,0,0,1,6.654,8.982H2v16.29A2.327,2.327,0,0,0,4.327,27.6H18.29A2.327,2.327,0,0,0,20.618,25.272ZM5.491,11.309H17.127a1.164,1.164,0,1,1,0,2.327H5.491a1.164,1.164,0,1,1,0-2.327Zm0,4.654H17.127a1.164,1.164,0,1,1,0,2.327H5.491a1.164,1.164,0,0,1,0-2.327Zm11.636,6.982H5.491a1.164,1.164,0,0,1,0-2.327H17.127a1.164,1.164,0,1,1,0,2.327Z" transform="translate(-2 -2)" fill="#19538d"/>
            </g>
          </g>
        </g>
      </g>
    </g>
  </g>
</svg>
