<svg xmlns="http://www.w3.org/2000/svg" width="130" height="130" viewBox="0 0 130 130">
  <g id="Grupo_1188516" data-name="Grupo 1188516" transform="translate(-186 -9253.862)">
    <g id="Grupo_1188415" data-name="Grupo 1188415" transform="translate(186 9253.862)">
      <circle id="Elipse_13890" data-name="Elipse 13890" cx="65" cy="65" r="65" transform="translate(130 130) rotate(180)" fill="#7dbfff"/>
      <path id="Intersección_3" data-name="Intersección 3" d="M0,61.621,107.4,0A65.086,65.086,0,0,1,43.784,78.57,64.8,64.8,0,0,1,0,61.621Z" transform="translate(21.185 51.43)" fill="#19538d"/>
      <path id="Trazado_1032950" data-name="Trazado 1032950" d="M54.541,0A54.541,54.541,0,1,1,0,54.541,54.541,54.541,0,0,1,54.541,0Z" transform="translate(119.541 119.518) rotate(180)" fill="#d5f4f8"/>
      <path id="Intersección_2" data-name="Intersección 2" d="M0,54.575A54.544,54.544,0,0,1,108.536,46.8L20.977,97.592A54.5,54.5,0,0,1,0,54.575Z" transform="translate(10.46 10.435)" fill="#fff"/>
      <g id="Layer_4" data-name="Layer 4" transform="translate(41.127 33.247)">
        <path id="Trazado_1030343" data-name="Trazado 1030343" d="M18.174,15.044h10.87L16,2V12.87A2.174,2.174,0,0,0,18.174,15.044Z" transform="translate(14.436 -2)" fill="#19538d"/>
        <path id="Trazado_1030344" data-name="Trazado 1030344" d="M45.48,19.392H34.61a6.522,6.522,0,0,1-6.522-6.522V2H6.348A4.348,4.348,0,0,0,2,6.348V58.525a4.348,4.348,0,0,0,4.348,4.348H32.306L35.023,52,45.48,41.5ZM16.588,41.763A2.183,2.183,0,1,1,13.5,44.85L9.153,40.5a2.174,2.174,0,0,1,0-3.087L13.5,33.067a2.183,2.183,0,0,1,3.087,3.087l-2.826,2.8Zm11.392-8.7L23.632,46.111a2.174,2.174,0,0,1-2.065,1.544,2.718,2.718,0,0,1-.7-.109,2.174,2.174,0,0,1-1.37-2.761l4.348-13.044a2.179,2.179,0,0,1,4.131,1.391Zm10.348,7.37L33.98,44.785A2.183,2.183,0,1,1,30.893,41.7l2.826-2.739-2.826-2.8a2.183,2.183,0,1,1,3.087-3.087l4.348,4.348a2.174,2.174,0,0,1,0,3.087Z" transform="translate(-2 -2)" fill="#19538d"/>
        <path id="Trazado_1030345" data-name="Trazado 1030345" d="M31.8,18a6.522,6.522,0,0,0-4.609,1.913L25.21,21.891l6.522,6.522,1.978-1.978a6.522,6.522,0,0,0,1.913-4.609A3.826,3.826,0,0,0,31.8,18Z" transform="translate(25.249 16.784)" fill="#19538d"/>
        <path id="Trazado_1030346" data-name="Trazado 1030346" d="M20.174,31.624,18,40.32l8.7-2.174L37.11,27.732,30.588,21.21Z" transform="translate(16.784 20.553)" fill="#19538d"/>
      </g>
    </g>
  </g>
</svg>
