<svg xmlns="http://www.w3.org/2000/svg" xmlns:xlink="http://www.w3.org/1999/xlink" width="327" height="437" viewBox="0 0 327 437">
  <defs>
    <clipPath id="clip-path">
      <rect id="Rectángulo_378415" data-name="Rectángulo 378415" width="327" height="437" rx="20" transform="translate(-24522.496 -5724)" fill="#dfefff"/>
    </clipPath>
    <linearGradient id="linear-gradient" x1="0.437" y1="0.27" x2="0.445" y2="0.492" gradientUnits="objectBoundingBox">
      <stop offset="0" stop-color="#8cc6fe"/>
      <stop offset="1" stop-color="#7dbfff"/>
    </linearGradient>
    <radialGradient id="radial-gradient" cx="0.5" cy="0.5" r="0.5" gradientTransform="matrix(1, 0, 0, -1, 0, 1)" gradientUnits="objectBoundingBox">
      <stop offset="0" stop-color="#fff"/>
      <stop offset="0.803" stop-color="#fff" stop-opacity="0.129"/>
      <stop offset="1" stop-color="#fff" stop-opacity="0"/>
    </radialGradient>
    <clipPath id="clip-path-2">
      <rect id="Rectángulo_459823" data-name="Rectángulo 459823" width="284.861" height="156.539" fill="#5a9ad7"/>
    </clipPath>
    <clipPath id="clip-path-3">
      <rect id="Rectángulo_378459" data-name="Rectángulo 378459" width="327" height="401" rx="20" transform="translate(284.668 5976)" fill="#7dbfff"/>
    </clipPath>
  </defs>
  <g id="Grupo_1188579" data-name="Grupo 1188579" transform="translate(-284.668 -5976)">
    <g id="Grupo_1073331" data-name="Grupo 1073331" transform="translate(24807.164 11700)" clip-path="url(#clip-path)">
      <g id="Trazado_1032920" data-name="Trazado 1032920" transform="translate(-24536.496 -5742)" fill="#7dbfff">
        <path d="M 348.5 464.4125671386719 L 0.5 464.4125671386719 L 0.5 0.4999894499778748 L 348.5 0.4999894499778748 L 348.5 464.4125671386719 Z" stroke="none"/>
        <path d="M 1 1 L 1 463.9125671386719 L 348 463.9125671386719 L 348 1 L 1 1 M 0 0 L 349 0 L 349 464.9125671386719 L 0 464.9125671386719 L 0 0 Z" stroke="none" fill="#707070"/>
      </g>
      <path id="Trazado_1032902" data-name="Trazado 1032902" d="M344.952,443.151l-87.073-50.277-87.051,50.3,87.078,50.272Zm182.2,0-87.089-50.283-87.036,50.291,87.088,50.284Zm182.237-.05-87.067-50.282-87.092,50.324,87.08,50.274Zm364.352-.014-87.085-50.279-86.99,50.264,87.058,50.3Zm182.2-.02-87.082-50.276-87.037,50.291,87.086,50.279Zm-364.356.009-87.037-50.291-87.1,50.33,87.053,50.28Zm546.575-.021-87.1-50.282-87.036,50.29,87.094,50.282ZM253.85,390.547l-87.1-50.29L79.694,390.563l87.1,50.285Zm182.168-.016L348.94,340.255l-87.034,50.291,87.075,50.275Zm546.6-.056L895.546,340.2l-86.955,50.249,87.04,50.289Zm-364.327.014L531.212,340.2,444.1,390.532,531.2,440.813Zm546.531-.032-87.082-50.276L990.7,390.472l87.086,50.278Zm182.2-.02-87.079-50.273-87.036,50.291,87.084,50.275Zm-546.51.014-87.045-50.3-87.118,50.34,87.063,50.285Zm728.716-.012-87.1-50.286-87.036,50.29,87.093,50.285ZM344.912,337.929l-87.1-50.289-87.034,50.291,87.1,50.289Zm546.6-.059-87.081-50.277L717.5,337.821l87.049,50.294Zm-364.34-.007L440.1,287.581l-87.121,50.341,87.08,50.274Zm546.527-.017L986.62,287.574l-87.033,50.293,87.073,50.272Zm182.2-.019-87.08-50.274-87.037,50.291,87.085,50.275Zm182.185-.013-87.071-50.272-87.036,50.291,87.077,50.275Zm-728.65.009-87.055-50.3L535.24,337.872l87.074,50.291ZM253.786,285.315,166.7,235.033l-87.036,50.29,87.092,50.285Zm546.605-.052L713.3,234.98,626.41,285.19l87.059,50.3Zm182.194-.02L895.5,234.967l-87.035,50.291,87.083,50.277Zm-546.511.012-87.089-50.3-87.138,50.349,87.1,50.287Zm728.7-.037-87.077-50.272L990.66,285.239l87.077,50.272Zm182.19-.013-87.074-50.273-87.036,50.291,87.078,50.274Zm182.206-.026L1442.1,234.912l-87.06,50.3,87.07,50.273Zm-910.832.007-87.047-50.3L444.131,285.25l87.064,50.286Zm90.926-52.539-87.083-50.278-86.86,50.191,87.051,50.3Zm182.205-.01-87.091-50.282L717.34,232.647l87.091,50.282Zm-546.509,0-87.075-50.287L170.729,232.7l87.092,50.281Zm728.7-.013-87.087-50.278-87.035,50.292,87.086,50.277Zm182.178-.024-87.076-50.274-87.034,50.293,87.075,50.274Zm182.2-.022L1350.969,182.3l-87.055,50.3,87.073,50.274Zm-910.779-.009L440.2,182.254,353.02,232.628l87.086,50.3Zm90.892-52.518-87.1-50.291-86.828,50.173,87.071,50.307Zm182.179-.023-87.086-50.279-87.035,50.292L713.3,230.314Zm182.2-.012-87.092-50.281-87.035,50.292L895.5,230.3Zm-728.682.009-87.09-50.3L79.6,180.092l87.1,50.287Zm910.879-.026-87.085-50.28-87.036,50.293,87.085,50.278Zm182.184-.029-87.082-50.273-87.046,50.3,87.076,50.274Zm182.189-.016-87.066-50.269L1355,179.971l87.071,50.272Zm-1092.94-.021-87.048-50.3-87.2,50.382,87.07,50.29Zm90.853-52.5L439.943,77.151l-86.8,50.153,87.052,50.3Zm182.208-.006-87.107-50.29-87.036,50.291,87.106,50.29Zm182.179-.023L804.319,77.121l-87.035,50.292,87.087,50.277Zm182.206-.015L986.524,77.1,899.488,127.4l87.091,50.282Zm182.2-.016L1168.722,77.09l-87.045,50.3,87.085,50.281Zm182.177-.027-87.078-50.277-87.035,50.294,87.078,50.275Zm-1092.9-.039-87.071-50.31-87.213,50.4,87.086,50.3Zm90.819-52.477L348.806,24.532,262.042,74.669l87.073,50.308ZM618.091,74.8,531.013,24.53l-87.037,50.29L531.057,125.1Zm182.209,0-87.109-50.29L626.155,74.8l87.108,50.29Zm182.189-.028L895.4,24.49,808.363,74.784l87.088,50.28Zm182.2-.012L1077.593,24.48,990.554,74.774l87.089,50.282Zm182.2-.018L1259.8,24.46l-87.038,50.293,87.087,50.282Zm182.186-.036L1442,24.431,1354.94,74.736l87.077,50.277Zm-1275.07-.036-87.059-50.3-87.236,50.4,87.079,50.295ZM132.806,0l34.126,19.718L201.055,0h8.065L170.964,22.047l87.061,50.3,86.763-50.135L306.317,0h8.065L348.82,19.883,383.23,0h8.03L352.838,22.2l87.108,50.291L526.981,22.2,488.526,0h8.063l34.423,19.874L565.407,0h8.061L535.045,22.2l87.077,50.273,87.035-50.292L670.737,0h8.1L713.2,19.843,747.545,0h8.064L717.238,22.172l87.106,50.291,87.038-50.292L852.982,0h8.064l34.367,19.842L929.753,0h8.03L899.431,22.162l87.087,50.282,87.041-50.293L1035.19,0h8.1L1077.6,19.812,1111.892,0h8.064L1081.64,22.141l87.088,50.282,87.038-50.293L1217.437,0h8.064L1259.8,19.8,1294.063,0h8.069l-38.3,22.132,87.086,50.282,87.059-50.3L1399.682,0h8.064l34.259,19.782L1476.242,0h8.03l-38.248,22.1,87.077,50.28,51.643-29.841v4.685l-47.589,27.5,47.587,27.478v4.646l-51.612-29.8-87.061,50.3,87.064,50.27,51.61-29.823v4.687l-47.554,27.478,47.554,27.457v4.651l-51.581-29.781-87.035,50.29,87.067,50.27,51.55-29.79v4.685l-47.5,27.445,47.5,27.422v4.651l-51.524-29.745-87.065,50.308,87.1,50.286,51.493-29.752v4.648l-47.468,27.429,47.467,27.406v4.647l-51.491-29.728-87.033,50.292,87.072,50.271,51.453-29.737v4.682l-47.4,27.395,47.4,27.368v4.646l-51.425-29.689-52.358,30.259h-8.1l56.4-32.6-87.075-50.27-87.035,50.292,56.426,32.576h-8.1l-52.375-30.238-52.324,30.236h-8.065l56.357-32.564L1259.986,445.4l-87.036,50.291,56.391,32.557h-8.1L1168.9,498.03l-52.293,30.216h-8.065l56.321-32.547-87.086-50.28L990.761,495.7l56.333,32.547H1039L986.714,498.04,934.44,528.247h-8.065l56.3-32.538-87.053-50.3-87.082,50.316,56.3,32.52h-8.026l-52.293-30.2-52.266,30.2H744.2l56.3-32.53-87.059-50.278-87.075,50.317,56.279,32.492h-8.1l-52.223-30.154-52.187,30.156h-8.1l56.235-32.494-87.076-50.274-87.036,50.291,56.242,32.475h-8.065L440.121,498.1l-52.173,30.147h-8.065l56.2-32.477L349,445.488l-87.043,50.3,56.229,32.462h-8.062l-52.2-30.135-52.156,30.138h-8.1l56.2-32.476L166.8,445.5,79.754,495.8l56.187,32.443h-8.062L75.728,498.128,23.6,528.249H15.533L71.694,495.8,0,454.4v-4.647l75.72,43.724,87.051-50.3-87.1-50.286L0,436.609v-4.648l71.64-41.4L0,349.2v-4.646L75.67,388.239l87.058-50.306-87.09-50.287L0,331.348V326.7l71.61-41.378L.006,243.978V239.33L75.638,283l87.034-50.29-87.1-50.289L0,226.087v-4.646L71.551,180.1,0,138.788v-4.651L75.58,177.771,162.746,127.4,75.664,77.111,0,120.826v-4.647L71.637,74.785,0,33.415v-4.68L75.684,72.446l87.232-50.408L124.776,0Z" transform="translate(-25101.986 -5769.515)" fill="url(#linear-gradient)"/>
      <g id="Grupo_1188340" data-name="Grupo 1188340" transform="translate(-24519.373 -5675.015) rotate(-60)">
        <circle id="Elipse_13887" data-name="Elipse 13887" cx="8.799" cy="8.799" r="8.799" transform="translate(27.546 15.303)" fill="url(#radial-gradient)"/>
        <circle id="Elipse_13888" data-name="Elipse 13888" cx="6.121" cy="6.121" r="6.121" transform="translate(13.008 7.652)" fill="url(#radial-gradient)"/>
        <circle id="Elipse_13889" data-name="Elipse 13889" cx="4.591" cy="4.591" r="4.591" transform="translate(0 0)" fill="url(#radial-gradient)"/>
      </g>
      <g id="Grupo_1188342" data-name="Grupo 1188342" transform="translate(-24405.104 -5828.513)">
        <g id="Grupo_1188297" data-name="Grupo 1188297" transform="translate(0 0)" clip-path="url(#clip-path-2)">
          <path id="Trazado_1032883" data-name="Trazado 1032883" d="M160.8,173.636,13.635,87.647c-3.235-1.89-8.143-2.119-10.962-.511l-.762.434c-2.818,1.61-2.481,4.444.755,6.334l147.171,85.988c3.235,1.89,8.143,2.119,10.962.512l.762-.434c2.818-1.61,2.481-4.443-.755-6.334" transform="translate(0 -25.805)" fill="#5a9ad7"/>
          <path id="Trazado_1032884" data-name="Trazado 1032884" d="M157.457,150.426c3.235,1.89,8.143,2.119,10.962.511l.762-.434c2.818-1.61,2.481-4.444-.755-6.334L97.342,102.634c-3.236-1.89-8.143-2.119-10.962-.511l-.761.435c-2.819,1.61-2.481,4.443.755,6.334Z" transform="translate(-25.098 -30.298)" fill="#5a9ad7"/>
          <path id="Trazado_1032885" data-name="Trazado 1032885" d="M284.911,178.233,151.027,100.086c-3.235-1.89-8.143-2.119-10.962-.512l-.761.434c-2.819,1.61-2.481,4.444.755,6.334l133.883,78.148c3.236,1.89,8.143,2.119,10.962.512l.762-.435c2.818-1.61,2.481-4.443-.755-6.334" transform="translate(-41.194 -29.534)" fill="#5a9ad7"/>
          <path id="Trazado_1032886" data-name="Trazado 1032886" d="M290.247,147.831,40.491,1.582C37.256-.309,32.348-.537,29.529,1.07l-.762.434c-2.818,1.61-2.481,4.443.755,6.334L279.278,154.088c3.235,1.89,8.143,2.119,10.962.512l.762-.434c2.818-1.61,2.481-4.443-.755-6.334" transform="translate(-8.052 0)" fill="#5a9ad7"/>
        </g>
      </g>
    </g>
  </g>
</svg>
