<svg xmlns="http://www.w3.org/2000/svg" width="128" height="128" viewBox="0 0 128 128">
  <g id="Grupo_1188586" data-name="Grupo 1188586" transform="translate(-383.746 -8400)">
    <circle id="Elipse_13890" data-name="Elipse 13890" cx="64" cy="64" r="64" transform="translate(383.746 8400)" fill="#5a9ad7"/>
    <path id="Intersección_1" data-name="Intersección 1" d="M23204.689,11774.869a64,64,0,0,1,106.254-48.067l-104.787,61.753A64.213,64.213,0,0,1,23204.689,11774.869Z" transform="translate(-22820.941 -3310.872)" fill="#19538d"/>
    <circle id="Elipse_13891" data-name="Elipse 13891" cx="54" cy="54" r="54" transform="translate(393.746 8410)" fill="#fff"/>
    <g id="Grupo_1188343" data-name="Grupo 1188343" transform="translate(-0.994 -0.997)">
      <rect id="Rectángulo_459838" data-name="Rectángulo 459838" width="66" height="66" transform="translate(415.74 8431.997)" fill="#fff"/>
      <g id="Grupo_1188592" data-name="Grupo 1188592" transform="translate(414.74 8429.996)">
        <g id="Grupo_1099618" data-name="Grupo 1099618" transform="translate(0 0)">
          <rect id="Rectángulo_401104" data-name="Rectángulo 401104" width="68.18" height="69.001" transform="translate(0)" fill="none"/>
        </g>
        <path id="Trazado_1031881" data-name="Trazado 1031881" d="M137.511,34.38v-.663a46.119,46.119,0,0,1,1.342-11.549,37.847,37.847,0,0,1,3.558-9.121,29.384,29.384,0,0,1,4.84-6.528,17.837,17.837,0,0,1,5.216-3.739l1.658,4.583a16.719,16.719,0,0,0-3.377,3.483,25.361,25.361,0,0,0-3,5.428,37.724,37.724,0,0,0-2.156,7.538,53.591,53.591,0,0,0-.814,9.845v.784a53.591,53.591,0,0,0,.814,9.845,38.446,38.446,0,0,0,2.156,7.568,25.525,25.525,0,0,0,3,5.473,17.3,17.3,0,0,0,3.377,3.528l-1.658,4.463a17.953,17.953,0,0,1-5.216-3.724,29.042,29.042,0,0,1-4.84-6.513,37.805,37.805,0,0,1-3.558-9.136A46.3,46.3,0,0,1,137.511,34.38Zm51.78-.663v.663A43.626,43.626,0,0,1,187.9,45.7a38.7,38.7,0,0,1-3.664,9.166,30.264,30.264,0,0,1-4.975,6.649,17.82,17.82,0,0,1-5.382,3.8l-1.689-4.463a16.3,16.3,0,0,0,3.362-3.5,26.434,26.434,0,0,0,3-5.473,37.09,37.09,0,0,0,2.156-7.583,54.828,54.828,0,0,0,.8-9.86v-.784a53.836,53.836,0,0,0-.814-9.86,37.021,37.021,0,0,0-2.186-7.583,26.5,26.5,0,0,0-3.015-5.458,17.329,17.329,0,0,0-3.3-3.483l1.689-4.493a17.713,17.713,0,0,1,5.382,3.814,30.75,30.75,0,0,1,4.975,6.649,38.4,38.4,0,0,1,3.664,9.151A43.626,43.626,0,0,1,189.29,33.716Z" transform="translate(-129.587 -0.075)" fill="#19538d"/>
      </g>
    </g>
  </g>
</svg>
