<svg xmlns="http://www.w3.org/2000/svg" width="98" height="98" viewBox="0 0 98 98">
  <g id="Grupo_1188621" data-name="Grupo 1188621" transform="translate(-185.739 -9253.217)">
    <g id="Grupo_1188415" data-name="Grupo 1188415" transform="translate(185.738 9253.217)">
      <path id="Trazado_1032951" data-name="Trazado 1032951" d="M49,0A49,49,0,1,1,0,49,49,49,0,0,1,49,0Z" transform="translate(98 98) rotate(180)" fill="#1e535a"/>
      <circle id="Elipse_13891" data-name="Elipse 13891" cx="40.698" cy="40.698" r="40.698" transform="translate(89.429 89.95) rotate(180)" fill="#fff"/>
      <g id="Grupo_1188629" data-name="Grupo 1188629" transform="translate(22.24 23.64)">
        <rect id="Rectángulo_456311" data-name="Rectángulo 456311" width="52.144" height="52.52" transform="translate(0.36)" fill="none"/>
        <g id="mensaje" transform="translate(0.36 0.248)">
          <path id="Trazado_1031206" data-name="Trazado 1031206" d="M28.321,2a3.615,3.615,0,0,0-3.083,1.729L12.585,24.035a3.821,3.821,0,0,0-.129,3.815A3.658,3.658,0,0,0,15.664,29.8H40.979a3.657,3.657,0,0,0,3.211-1.952,3.821,3.821,0,0,0-.129-3.817L31.4,3.729A3.615,3.615,0,0,0,28.321,2Zm0,25.95a2.781,2.781,0,1,1,2.72-2.78A2.751,2.751,0,0,1,28.321,27.95ZM31.948,9.414c0,.111-.785,11.122-3.627,11.122S24.694,9.526,24.694,9.414a3.628,3.628,0,1,1,7.254,0Z" transform="translate(-2.733 -2)" fill="#12263f"/>
          <path id="Trazado_1031207" data-name="Trazado 1031207" d="M28,9.854c0,1.605.974,7.435,1.854,9.012.88-1.576,1.854-7.407,1.854-9.012a1.854,1.854,0,0,0-3.707,0Z" transform="translate(-4.265 -2.439)" fill="#12263f"/>
          <circle id="Elipse_13736" data-name="Elipse 13736" cx="0.927" cy="0.927" r="0.927" transform="translate(24.662 21.919)" fill="#12263f"/>
          <path id="Trazado_1031208" data-name="Trazado 1031208" d="M48.608,13H38.179l6.814,10.654a5.506,5.506,0,0,1-4.646,8.469H14.831a5.506,5.506,0,0,1-4.646-8.469L17,13H6.569A4.567,4.567,0,0,0,2,17.553v25.5A4.567,4.567,0,0,0,6.569,47.6h12.95a2.733,2.733,0,0,1,1.944.8l5.473,5.29a.905.905,0,0,0,1.29.014l5.5-5.313a2.725,2.725,0,0,1,1.934-.794h12.95a4.567,4.567,0,0,0,4.569-4.553v-25.5A4.567,4.567,0,0,0,48.608,13ZM40.383,44.871H14.794a.911.911,0,1,1,0-1.821H40.383a.911.911,0,1,1,0,1.821Zm-26.5-5.464a.912.912,0,0,1,.914-.911h9.139a.911.911,0,1,1,0,1.821H14.794A.912.912,0,0,1,13.88,39.407Zm26.5.911H27.589a.911.911,0,1,1,0-1.821H40.383a.911.911,0,1,1,0,1.821Zm0-4.553H14.794a.911.911,0,1,1,0-1.821H40.383a.911.911,0,1,1,0,1.821Z" transform="translate(-2 -2.805)" fill="#12263f"/>
        </g>
      </g>
    </g>
  </g>
</svg>
