<svg xmlns="http://www.w3.org/2000/svg" width="98" height="98" viewBox="0 0 98 98">
  <g id="Grupo_1188619" data-name="Grupo 1188619" transform="translate(-185.739 -9253.217)">
    <g id="Grupo_1188415" data-name="Grupo 1188415" transform="translate(185.738 9253.217)">
      <circle id="Elipse_13890" data-name="Elipse 13890" cx="49" cy="49" r="49" transform="translate(98 98) rotate(180)" fill="#19538d"/>
      <circle id="Elipse_13891" data-name="Elipse 13891" cx="40.698" cy="40.698" r="40.698" transform="translate(89.429 89.95) rotate(180)" fill="#fff"/>
      <g id="Grupo_1188627" data-name="Grupo 1188627" transform="translate(22.15 22.259)">
        <rect id="Rectángulo_456311" data-name="Rectángulo 456311" width="55.673" height="56.075" transform="translate(0.325)" fill="none"/>
        <path id="error-humano" d="M40.758,47.214v2.042a3.4,3.4,0,0,1-3.4,3.4H25.1a3.4,3.4,0,0,1-3.4-3.4V47.214H5.361A1.365,1.365,0,0,0,4,48.575v1.361a6.848,6.848,0,0,0,1.988,4.806,6.767,6.767,0,0,0,4.806,1.988h40.87a6.848,6.848,0,0,0,4.806-1.988,6.767,6.767,0,0,0,1.988-4.806V48.575A1.365,1.365,0,0,0,57.1,47.214Zm-2.723,0v2.042a.674.674,0,0,1-.681.681H25.1a.674.674,0,0,1-.681-.681V47.214ZM42.16,7.733,39.723,11.8H10.807a1.377,1.377,0,0,0-1.361,1.375V44.491H5.361V13.178a5.444,5.444,0,0,1,5.446-5.446ZM38.076,14.54l-.9,1.511a3.5,3.5,0,0,0,3,5.3H50.3V44.5h-6.78c-.054-2.219-.585-6.4-3.594-9.244a10.433,10.433,0,0,0-3.866-2.3,6.807,6.807,0,1,0-9.639,0,10.255,10.255,0,0,0-3.866,2.3c-3.009,2.845-3.54,7.025-3.594,9.244h-6.78V14.54ZM21.644,44.491h2.777v-4.1a1.361,1.361,0,0,1,2.723,0v4.1h8.168v-4.1a1.361,1.361,0,0,1,2.723,0v4.1h2.777c-.027-1.743-.408-5.037-2.764-7.27-1.429-1.348-3.594-2.274-6.821-2.274s-5.391.926-6.821,2.274C22.052,39.454,21.671,42.735,21.644,44.491ZM57.1,20.612V44.491H53.011V21.333h1.96A3.509,3.509,0,0,0,57.1,20.612ZM31.228,24.056a4.084,4.084,0,1,1-4.084,4.084A4.079,4.079,0,0,1,31.228,24.056ZM20.106,20.53l.967-.967a1.372,1.372,0,0,0,0-1.933,1.356,1.356,0,0,0-1.92,0l-.967.967-.967-.967a1.367,1.367,0,0,0-1.933,1.933l.967.967-.967.967a1.356,1.356,0,0,0,0,1.92,1.372,1.372,0,0,0,1.933,0l.967-.967.967.967a1.357,1.357,0,1,0,1.92-1.92Zm34.879-1.92H40.159a.752.752,0,0,1-.531-.218.719.719,0,0,1-.218-.531.832.832,0,0,1,.109-.408L46.694,5.5a1.01,1.01,0,0,1,.871-.49,1.046,1.046,0,0,1,.885.49l7.175,11.953a.821.821,0,0,1,.109.395.76.76,0,0,1-.218.545.719.719,0,0,1-.531.218Zm-7.406-4.084a1.361,1.361,0,1,1-1.361,1.361A1.365,1.365,0,0,1,47.579,14.526ZM46.217,9.081V11.8a1.361,1.361,0,1,0,2.723,0V9.081a1.361,1.361,0,1,0-2.723,0Z" transform="translate(-5.089 -4.286)" fill="#12263f" fill-rule="evenodd"/>
      </g>
    </g>
  </g>
</svg>
