<svg xmlns="http://www.w3.org/2000/svg" width="98" height="98" viewBox="0 0 98 98">
  <g id="Grupo_1188620" data-name="Grupo 1188620" transform="translate(-185.739 -9253.217)">
    <g id="Grupo_1188415" data-name="Grupo 1188415" transform="translate(185.738 9253.217)">
      <circle id="Elipse_13890" data-name="Elipse 13890" cx="49" cy="49" r="49" transform="translate(98 98) rotate(180)" fill="#7a4f1e"/>
      <circle id="Elipse_13891" data-name="Elipse 13891" cx="40.698" cy="40.698" r="40.698" transform="translate(89.429 89.95) rotate(180)" fill="#fff"/>
      <g id="Grupo_1188628" data-name="Grupo 1188628" transform="translate(23.837 22.514)">
        <rect id="Rectángulo_456311" data-name="Rectángulo 456311" width="52.591" height="52.971" fill="none"/>
        <g id="error-404" transform="translate(1.995 2.19)">
          <path id="Trazado_1031200" data-name="Trazado 1031200" d="M44.258,26.545l-3.725,5.37h3.725Z" transform="translate(-8.941 -8.222)" fill="#12263f"/>
          <path id="Trazado_1031201" data-name="Trazado 1031201" d="M37.283,50.169A2.407,2.407,0,0,1,35.308,47.8V45.392a2.4,2.4,0,0,1,1.983-2.372,2.4,2.4,0,0,1,.27-3.072l1.7-1.7a2.417,2.417,0,0,1,1.7-.709,2.361,2.361,0,0,1,1.376.439A2.4,2.4,0,0,1,44.7,35.989h2.414a2.268,2.268,0,0,1,.591.076v-19.8H2.5V52.633a2.1,2.1,0,0,0,2.1,2.1H39.055l-1.494-1.5a2.384,2.384,0,0,1-.278-3.064ZM31.67,30.275l6.6-9.453h2.042v9.352h2v2h-2v2.751h-2.5V32.174H31.67ZM21.12,22.527a4.422,4.422,0,0,1,3.84-1.848,4.431,4.431,0,0,1,3.832,1.84,9.062,9.062,0,0,1,1.317,5.334,9.285,9.285,0,0,1-1.317,5.393,4.41,4.41,0,0,1-3.832,1.865,4.428,4.428,0,0,1-3.84-1.857,9.26,9.26,0,0,1-1.317-5.4A9.086,9.086,0,0,1,21.12,22.527Zm-4.583,12.4h-2.5V32.175H7.894v-1.9l6.6-9.453h2.042v9.352h2v2h-2Zm16.576,9.8a1.128,1.128,0,0,1-1.133,1.127H18.23A1.128,1.128,0,0,1,17.1,44.727V41.233A1.133,1.133,0,0,1,18.23,40.1H31.98a1.133,1.133,0,0,1,1.133,1.133Z" transform="translate(-2.5 -6.481)" fill="#12263f"/>
          <path id="Trazado_1031202" data-name="Trazado 1031202" d="M29,34.416a2.081,2.081,0,0,0,1.991-1.258,9.507,9.507,0,0,0,.624-3.993,9.239,9.239,0,0,0-.624-3.933,2.221,2.221,0,0,0-3.983,0,9.239,9.239,0,0,0-.624,3.933,9.506,9.506,0,0,0,.624,3.993A2.081,2.081,0,0,0,29,34.416Z" transform="translate(-6.545 -7.79)" fill="#12263f"/>
          <path id="Trazado_1031203" data-name="Trazado 1031203" d="M15.631,31.915v-5.37l-3.725,5.37Z" transform="translate(-4.093 -8.222)" fill="#12263f"/>
          <path id="Trazado_1031204" data-name="Trazado 1031204" d="M47.709,6.587a2.1,2.1,0,0,0-2.1-2.1H4.6a2.1,2.1,0,0,0-2.1,2.1v5.991H47.709ZM23.018,9.72H7.087a1.189,1.189,0,0,1,0-2.377H23.018a1.189,1.189,0,0,1,0,2.377Zm13.064-.345H35.5a.844.844,0,0,1,0-1.688h.583a.844.844,0,1,1,0,1.688Zm3.847,0h-.584a.844.844,0,1,1,0-1.688h.584a.844.844,0,1,1,0,1.688Zm3.847,0h-.584a.844.844,0,1,1,0-1.688h.584a.844.844,0,0,1,0,1.688Z" transform="translate(-2.5 -4.486)" fill="#12263f"/>
          <path id="Trazado_1031205" data-name="Trazado 1031205" d="M61.264,49.049,58.639,48.6l1.545-2.178a.718.718,0,0,0-.084-.92l-1.7-1.7a.717.717,0,0,0-.92-.076l-2.169,1.536-.447-2.625a.724.724,0,0,0-.709-.591H51.735a.715.715,0,0,0-.7.591l-.447,2.625L48.41,43.723a.717.717,0,0,0-.92.076l-1.7,1.7a.717.717,0,0,0-.076.92L47.245,48.6l-2.625.447a.717.717,0,0,0-.591.709v2.405a.717.717,0,0,0,.591.709l2.625.447-1.536,2.169a.716.716,0,0,0,.076.92l1.7,1.7a.718.718,0,0,0,.92.084l2.178-1.545.447,2.625a.715.715,0,0,0,.7.6h2.414a.723.723,0,0,0,.709-.6l.447-2.625L57.475,58.2a.717.717,0,0,0,.92-.084l1.7-1.7a.717.717,0,0,0,.084-.92L58.639,53.32l2.625-.447a.717.717,0,0,0,.6-.709V49.758A.717.717,0,0,0,61.264,49.049Zm-8.322,5.562A3.65,3.65,0,1,1,56.6,50.956,3.649,3.649,0,0,1,52.942,54.611Z" transform="translate(-9.534 -10.847)" fill="#12263f"/>
        </g>
      </g>
    </g>
  </g>
</svg>
