<svg xmlns="http://www.w3.org/2000/svg" width="98" height="98" viewBox="0 0 98 98">
  <g id="Grupo_1188611" data-name="Grupo 1188611" transform="translate(-185.739 -9253.217)">
    <g id="Grupo_1188415" data-name="Grupo 1188415" transform="translate(185.738 9253.217)">
      <path id="Trazado_1032951" data-name="Trazado 1032951" d="M49,0A49,49,0,1,1,0,49,49,49,0,0,1,49,0Z" transform="translate(98 98) rotate(180)" fill="#1e535a"/>
      <circle id="Elipse_13891" data-name="Elipse 13891" cx="40.698" cy="40.698" r="40.698" transform="translate(89.429 89.95) rotate(180)" fill="#fff"/>
      <g id="Grupo_1188617" data-name="Grupo 1188617" transform="translate(21.24 21.179)">
        <g id="cms" transform="translate(3.36 6.543)">
          <path id="Trazado_1031284" data-name="Trazado 1031284" d="M121.023,422.859h-4.689L115.381,420H98.072l-.953,2.859H92.43a1.43,1.43,0,0,0,0,2.859h28.593a1.43,1.43,0,0,0,0-2.859Zm0,0" transform="translate(-82.327 -379.969)" fill="#12263f"/>
          <path id="Trazado_1031285" data-name="Trazado 1031285" d="M392.43,90a1.43,1.43,0,1,0,1.43,1.43A1.43,1.43,0,0,0,392.43,90Zm0,0" transform="translate(-353.733 -81.422)" fill="#12263f"/>
          <path id="Trazado_1031286" data-name="Trazado 1031286" d="M44.415,0H4.289A4.294,4.294,0,0,0,0,4.289v24.3H8.673V24.3a1.429,1.429,0,0,1,1.43-1.43h2.209a12.723,12.723,0,0,1,.508-1.225l-1.563-1.564a1.429,1.429,0,0,1,0-2.022L15.3,14.021a1.429,1.429,0,0,1,2.022,0l1.564,1.564a12.789,12.789,0,0,1,1.225-.51V12.867a1.429,1.429,0,0,1,1.43-1.43h5.719a1.429,1.429,0,0,1,1.43,1.43v2.209a12.828,12.828,0,0,1,1.225.509l1.564-1.564a1.43,1.43,0,0,1,2.022,0l4.043,4.043a1.429,1.429,0,0,1,0,2.022L35.979,21.65a12.761,12.761,0,0,1,.508,1.225H38.7a1.429,1.429,0,0,1,1.43,1.43v4.289H48.8V4.289A4.376,4.376,0,0,0,44.415,0ZM38.7,14.3a4.289,4.289,0,1,1,4.289-4.289A4.294,4.294,0,0,1,38.7,14.3Zm0,0" transform="translate(0 0)" fill="#12263f"/>
          <path id="Trazado_1031287" data-name="Trazado 1031287" d="M211,244.289a4.261,4.261,0,0,0,.277,1.43H219.3a4.276,4.276,0,1,0-8.3-1.43Zm0,0" transform="translate(-190.889 -217.125)" fill="#12263f"/>
          <path id="Trazado_1031288" data-name="Trazado 1031288" d="M124.219,160.365a1.43,1.43,0,0,1-1.385,1.072H121V164.3h5.907a7.152,7.152,0,1,1,13.921,0h5.907v-2.859H144.9a1.431,1.431,0,0,1-1.385-1.072,9.826,9.826,0,0,0-1.058-2.548,1.43,1.43,0,0,1,.22-1.737l1.3-1.3-2.022-2.022-1.3,1.3a1.424,1.424,0,0,1-1.738.219,9.827,9.827,0,0,0-2.547-1.058,1.43,1.43,0,0,1-1.072-1.385V150h-2.859v1.834a1.43,1.43,0,0,1-1.072,1.385,9.826,9.826,0,0,0-2.547,1.058,1.424,1.424,0,0,1-1.738-.219l-1.3-1.3-2.022,2.022,1.3,1.3a1.43,1.43,0,0,1,.22,1.737A9.827,9.827,0,0,0,124.219,160.365Zm0,0" transform="translate(-109.467 -135.703)" fill="#12263f"/>
          <path id="Trazado_1031289" data-name="Trazado 1031289" d="M0,331.43a4.294,4.294,0,0,0,4.289,4.289H44.415A4.376,4.376,0,0,0,48.8,331.43V330H0Zm0,0" transform="translate(0 -298.547)" fill="#12263f"/>
        </g>
      </g>
    </g>
  </g>
</svg>
