<svg xmlns="http://www.w3.org/2000/svg" width="130" height="130" viewBox="0 0 130 130">
  <g id="Grupo_1188604" data-name="Grupo 1188604" transform="translate(-186 -9253.862)">
    <g id="Grupo_1188415" data-name="Grupo 1188415" transform="translate(186 9253.862)">
      <circle id="Elipse_13890" data-name="Elipse 13890" cx="65" cy="65" r="65" transform="translate(130 130) rotate(180)" fill="#7dbfff"/>
      <path id="Intersección_3" data-name="Intersección 3" d="M0,61.621,107.4,0A65.086,65.086,0,0,1,43.784,78.57,64.8,64.8,0,0,1,0,61.621Z" transform="translate(21.185 51.43)" fill="#19538d"/>
      <path id="Trazado_1032950" data-name="Trazado 1032950" d="M54.541,0A54.541,54.541,0,1,1,0,54.541,54.541,54.541,0,0,1,54.541,0Z" transform="translate(119.541 119.518) rotate(180)" fill="#d5f4f8"/>
      <path id="Intersección_2" data-name="Intersección 2" d="M0,54.575A54.544,54.544,0,0,1,108.536,46.8L20.977,97.592A54.5,54.5,0,0,1,0,54.575Z" transform="translate(10.46 10.435)" fill="#fff"/>
      <g id="Grupo_1188343" data-name="Grupo 1188343" transform="translate(31.006 27.983)">
        <rect id="Rectángulo_459838" data-name="Rectángulo 459838" width="67.985" height="67.985" transform="translate(0 0)" fill="none"/>
        <g id="Grupo_1188605" data-name="Grupo 1188605" transform="translate(-0.751 0.995)">
          <g id="Grupo_1099618" data-name="Grupo 1099618" transform="translate(0 0)">
            <rect id="Rectángulo_401104" data-name="Rectángulo 401104" width="69.491" height="70.328" transform="translate(0)" fill="none"/>
          </g>
          <g id="algoritmo_3_" data-name="algoritmo (3)" transform="translate(2.914 1.19)">
            <g id="Grupo_1185234" data-name="Grupo 1185234" transform="translate(0.004 0)">
              <path id="Trazado_1031365" data-name="Trazado 1031365" d="M63.751,39.344V35.609a5.609,5.609,0,0,0-5.6-5.6H56.28V16.933a5.609,5.609,0,0,0-5.6-5.6H47.439L33,.374a1.86,1.86,0,0,0-2.24,0L16.315,11.33H13.077a5.609,5.609,0,0,0-5.6,5.6V30.006H5.607a5.609,5.609,0,0,0-5.6,5.6v3.735A5.594,5.594,0,0,0,3.739,44.6v7.814H1.872A1.867,1.867,0,0,0,0,54.285V61.88a1.867,1.867,0,0,0,1.868,1.868h7.47a1.867,1.867,0,0,0,1.868-1.868V54.285a1.867,1.867,0,0,0-1.868-1.868H7.474v-7.47H22.539v7.47H20.672A1.867,1.867,0,0,0,18.8,54.285V61.88a1.867,1.867,0,0,0,1.868,1.868h7.47A1.867,1.867,0,0,0,30.01,61.88V54.285a1.867,1.867,0,0,0-1.868-1.868H26.274V44.6a5.594,5.594,0,0,0,3.735-5.259h3.735A5.594,5.594,0,0,0,37.48,44.6v7.814H35.612a1.867,1.867,0,0,0-1.868,1.868V61.88a1.867,1.867,0,0,0,1.868,1.868h7.47A1.867,1.867,0,0,0,44.95,61.88V54.285a1.867,1.867,0,0,0-1.868-1.868H41.215v-7.47H56.28v7.47H54.413a1.867,1.867,0,0,0-1.868,1.868V61.88a1.867,1.867,0,0,0,1.868,1.868h7.47a1.867,1.867,0,0,0,1.868-1.868V54.285a1.867,1.867,0,0,0-1.868-1.868H60.015V44.6A5.594,5.594,0,0,0,63.751,39.344ZM52.545,30.006h-13.2a5.609,5.609,0,0,0-5.6,5.6H30.01a5.609,5.609,0,0,0-5.6-5.6h-13.2V16.933a1.869,1.869,0,0,1,1.868-1.868h3.238L30.757,25.9a1.864,1.864,0,0,0,2.24,0L47.439,15.066h3.238a1.869,1.869,0,0,1,1.868,1.868V30.006Z" transform="translate(-0.004 0)" fill="#12263f"/>
            </g>
          </g>
        </g>
      </g>
    </g>
  </g>
</svg>
