<svg xmlns="http://www.w3.org/2000/svg" width="98" height="98" viewBox="0 0 98 98">
  <g id="Grupo_1188599" data-name="Grupo 1188599" transform="translate(-185.739 -9253.217)">
    <g id="Grupo_1188415" data-name="Grupo 1188415" transform="translate(185.738 9253.217)">
      <path id="Trazado_1032951" data-name="Trazado 1032951" d="M49,0A49,49,0,1,1,0,49,49,49,0,0,1,49,0Z" transform="translate(98 98) rotate(180)" fill="#1e535a"/>
      <circle id="Elipse_13891" data-name="Elipse 13891" cx="40.698" cy="40.698" r="40.698" transform="translate(89.429 89.95) rotate(180)" fill="#fff"/>
      <g id="Icons" transform="translate(24.043 25.841)">
        <path id="Trazado_1031378" data-name="Trazado 1031378" d="M47.876,2H2.52A2.52,2.52,0,0,0,0,4.52V36.437a2.52,2.52,0,0,0,2.52,2.52H18.479v2.116l-3.885,3.108a.84.84,0,0,0-.315.656v1.68a2.52,2.52,0,0,0,2.52,2.52H33.6a2.52,2.52,0,0,0,2.52-2.52v-1.68a.84.84,0,0,0-.315-.656l-3.885-3.108V38.957H47.876a2.52,2.52,0,0,0,2.52-2.52V4.52A2.52,2.52,0,0,0,47.876,2ZM32.883,44H17.512l2.1-1.68H30.783Zm.715,3.36H16.8a.84.84,0,0,1-.84-.84v-.84H34.437v.84A.84.84,0,0,1,33.6,47.356Zm-3.36-6.719H20.158v-1.68H30.238Zm18.479-4.2a.84.84,0,0,1-.84.84H2.52a.84.84,0,0,1-.84-.84V4.52a.84.84,0,0,1,.84-.84H47.876a.84.84,0,0,1,.84.84Z" transform="translate(0 -2)" fill="#12263f"/>
        <path id="Trazado_1031379" data-name="Trazado 1031379" d="M46,6H5.68A1.68,1.68,0,0,0,4,7.68V31.2a1.68,1.68,0,0,0,1.68,1.68H46a1.68,1.68,0,0,0,1.68-1.68V7.68A1.68,1.68,0,0,0,46,6ZM5.68,31.2V23.639H8.354a2.52,2.52,0,1,0,0-1.68H5.68v-5.04H8.354a2.52,2.52,0,1,0,0-1.68H5.68V7.68H46v7.559H43.322a2.52,2.52,0,1,0,0,1.68H46v5.04H43.322a2.52,2.52,0,1,0,0,1.68H46V31.2Zm4.2-8.4a.84.84,0,1,1,.84.84A.84.84,0,0,1,9.88,22.8Zm0-6.719a.84.84,0,1,1,.84.84A.84.84,0,0,1,9.88,16.079Zm31.917,0a.84.84,0,1,1-.84-.84A.84.84,0,0,1,41.8,16.079Zm0,6.719a.84.84,0,1,1-.84-.84A.84.84,0,0,1,41.8,22.8Z" transform="translate(-0.64 -2.64)" fill="#12263f"/>
        <path id="Trazado_1031380" data-name="Trazado 1031380" d="M31.2,40H27.84a.84.84,0,1,0,0,1.68H31.2a.84.84,0,0,0,0-1.68Z" transform="translate(-4.322 -8.083)" fill="#12263f"/>
        <path id="Trazado_1031381" data-name="Trazado 1031381" d="M37.318,15.88a.84.84,0,0,0,0-1.68h-.84a2.52,2.52,0,0,0-2.52-2.52v-.84a.84.84,0,0,0-1.68,0v.84H30.6v-.84a.84.84,0,0,0-1.68,0v.84h-1.68v-.84a.84.84,0,1,0-1.68,0v.84H23.88v-.84a.84.84,0,0,0-1.68,0v.84a2.52,2.52,0,0,0-2.52,2.52h-.84a.84.84,0,0,0,0,1.68h.84v1.68h-.84a.84.84,0,0,0,0,1.68h.84v1.68h-.84a.84.84,0,0,0,0,1.68h.84v1.68h-.84a.84.84,0,1,0,0,1.68h.84a2.52,2.52,0,0,0,2.52,2.52v.84a.84.84,0,1,0,1.68,0v-.84h1.68v.84a.84.84,0,1,0,1.68,0v-.84h1.68v.84a.84.84,0,1,0,1.68,0v-.84h1.68v.84a.84.84,0,1,0,1.68,0v-.84a2.52,2.52,0,0,0,2.52-2.52h.84a.84.84,0,0,0,0-1.68h-.84V22.6h.84a.84.84,0,0,0,0-1.68h-.84v-1.68h.84a.84.84,0,0,0,0-1.68h-.84V15.88ZM34.8,25.959a.84.84,0,0,1-.84.84H22.2a.84.84,0,0,1-.84-.84V14.2a.84.84,0,0,1,.84-.84H33.959a.84.84,0,0,1,.84.84Z" transform="translate(-2.881 -3.281)" fill="#12263f"/>
        <path id="Trazado_1031382" data-name="Trazado 1031382" d="M25.68,21.04h1.68a1.68,1.68,0,0,0,1.68-1.68V17.68A1.68,1.68,0,0,0,27.36,16H25.68A1.68,1.68,0,0,0,24,17.68v1.68A1.68,1.68,0,0,0,25.68,21.04Zm0-3.36h1.68v1.68H25.68Z" transform="translate(-3.842 -4.241)" fill="#12263f"/>
        <path id="Trazado_1031383" data-name="Trazado 1031383" d="M34.52,16H32.84a.84.84,0,1,0,0,1.68h1.68a.84.84,0,1,0,0-1.68Z" transform="translate(-5.122 -4.241)" fill="#12263f"/>
        <path id="Trazado_1031384" data-name="Trazado 1031384" d="M34.52,20H32.84a.84.84,0,1,0,0,1.68h1.68a.84.84,0,1,0,0-1.68Z" transform="translate(-5.122 -4.881)" fill="#12263f"/>
        <path id="Trazado_1031385" data-name="Trazado 1031385" d="M33.239,25h-8.4a.84.84,0,1,0,0,1.68h8.4a.84.84,0,0,0,0-1.68Z" transform="translate(-3.842 -5.682)" fill="#12263f"/>
      </g>
    </g>
  </g>
</svg>
