<svg xmlns="http://www.w3.org/2000/svg" width="150" height="150" viewBox="0 0 150 150">
  <g id="Grupo_1188574" data-name="Grupo 1188574" transform="translate(-185.738 -9253.601)">
    <g id="Grupo_1188415" data-name="Grupo 1188415" transform="translate(185.738 9253.602)">
      <circle id="Elipse_13890" data-name="Elipse 13890" cx="75" cy="75" r="75" transform="translate(150 150) rotate(180)" fill="#4dd0e1"/>
      <path id="Intersección_3" data-name="Intersección 3" d="M0,70.769,123.344,0a74.749,74.749,0,0,1-73.06,90.233A74.419,74.419,0,0,1,0,70.769Z" transform="translate(24.681 59.414)" fill="#1e535a"/>
      <circle id="Elipse_13891" data-name="Elipse 13891" cx="62.637" cy="62.637" r="62.637" transform="translate(137.638 137.608) rotate(180)" fill="#d5f4f8"/>
      <path id="Intersección_2" data-name="Intersección 2" d="M0,62.677a62.641,62.641,0,0,1,124.648-8.925L24.091,112.08A62.59,62.59,0,0,1,0,62.677Z" transform="translate(12.364 12.333)" fill="#fff"/>
      <g id="Grupo_1188343" data-name="Grupo 1188343" transform="translate(33.333 33.932)">
        <rect id="Rectángulo_459838" data-name="Rectángulo 459838" width="78.078" height="78.078" transform="translate(0 0)" fill="none"/>
        <g id="Grupo_1188575" data-name="Grupo 1188575" transform="translate(6.085 0.993)">
          <g id="Grupo_1099618" data-name="Grupo 1099618" transform="translate(0 0)">
            <rect id="Rectángulo_401104" data-name="Rectángulo 401104" width="76.611" height="77.534" transform="translate(0)" fill="none"/>
          </g>
          <g id="programacion" transform="translate(0.086 0.119)">
            <path id="Trazado_1030484" data-name="Trazado 1030484" d="M9,57h2.469v2.469H9Z" transform="translate(0.876 12.131)" fill="#12263f"/>
            <path id="Trazado_1030485" data-name="Trazado 1030485" d="M13,57h2.469v2.469H13Z" transform="translate(1.814 12.131)" fill="#12263f"/>
            <path id="Trazado_1030486" data-name="Trazado 1030486" d="M68.9,33.1a8.642,8.642,0,0,0,1.175-17.2A11.085,11.085,0,0,0,54.71,6.821a14.791,14.791,0,0,0-26.551,8.993c0,.033,0,.064.006.1a8.617,8.617,0,0,0-4.807,2.371H9.641a6.179,6.179,0,0,0-6.172,6.172V65.193H1v6.172a6.179,6.179,0,0,0,6.172,6.172H63.959a6.179,6.179,0,0,0,6.172-6.172V65.193H67.662V33.1ZM28.406,18.387a14.647,14.647,0,0,0,1.385,4.195l2.2-1.128a12.217,12.217,0,0,1-1.359-5.639A12.329,12.329,0,0,1,52.539,8.04a11.174,11.174,0,0,0-2.257,2.146l1.941,1.526a8.643,8.643,0,0,1,15.44,5.337v1.234H68.9a6.172,6.172,0,0,1,0,12.345h-39.5a6.159,6.159,0,0,1-.988-12.241Zm-7.555,7.3A8.648,8.648,0,0,0,29.393,33.1h1.234V40.5H13.345V57.787H40.5V47.911H57.787V33.1h2.469V60.255H10.876V25.69ZM38.035,47.911v7.407H15.814V42.973H30.628v4.938ZM33.1,45.442V33.1H55.318V45.442ZM67.662,71.366a3.708,3.708,0,0,1-3.7,3.7H7.172a3.708,3.708,0,0,1-3.7-3.7v-3.7H24.727L25.96,72.6H45.171L46.4,67.662H67.662Zm-40.391-3.7h16.59l-.618,2.469H27.888Zm37.922-2.469H5.938V24.455a3.708,3.708,0,0,1,3.7-3.7H21.6a8.564,8.564,0,0,0-.747,2.469H10.876A2.471,2.471,0,0,0,8.407,25.69V60.255a2.471,2.471,0,0,0,2.469,2.469h49.38a2.471,2.471,0,0,0,2.469-2.469V33.1h2.469Z" transform="translate(-1 -1)" fill="#12263f"/>
            <path id="Trazado_1030487" data-name="Trazado 1030487" d="M0,0H15.615V2.468H0Z" transform="translate(44.53 26.761) rotate(-71.529)" fill="#12263f"/>
            <path id="Trazado_1030488" data-name="Trazado 1030488" d="M44.942,25.475l8.544-7.122-8.544-7.122-1.583,1.9,6.27,5.223-6.27,5.223Z" transform="translate(8.933 1.399)" fill="#12263f"/>
            <path id="Trazado_1030489" data-name="Trazado 1030489" d="M38.565,23.576l-6.27-5.223,6.27-5.223-1.583-1.9-8.544,7.122,8.544,7.122Z" transform="translate(5.434 1.399)" fill="#12263f"/>
            <path id="Trazado_1030490" data-name="Trazado 1030490" d="M29,29H46.283v2.469H29Z" transform="translate(5.566 5.566)" fill="#12263f"/>
            <path id="Trazado_1030491" data-name="Trazado 1030491" d="M29,33H46.283v2.469H29Z" transform="translate(5.566 6.504)" fill="#12263f"/>
            <path id="Trazado_1030492" data-name="Trazado 1030492" d="M15,37h9.876v2.469H15Z" transform="translate(2.283 7.442)" fill="#12263f"/>
            <path id="Trazado_1030493" data-name="Trazado 1030493" d="M15,41H32.283v2.469H15Z" transform="translate(2.283 8.38)" fill="#12263f"/>
            <path id="Trazado_1030494" data-name="Trazado 1030494" d="M11,29h2.469v2.469H11Z" transform="translate(1.345 5.566)" fill="#12263f"/>
            <path id="Trazado_1030495" data-name="Trazado 1030495" d="M13.469,25.469h2.469V23H11v4.938h2.469Z" transform="translate(1.345 4.159)" fill="#12263f"/>
          </g>
        </g>
      </g>
    </g>
  </g>
</svg>
