<svg xmlns="http://www.w3.org/2000/svg" width="96" height="96" viewBox="0 0 96 96">
  <g id="Grupo_1188551" data-name="Grupo 1188551" transform="translate(-383.67 -8399.924)">
    <circle id="Elipse_13890" data-name="Elipse 13890" cx="48" cy="48" r="48" transform="translate(383.67 8399.924)" fill="#5a9ad7"/>
    <path id="Intersección_1" data-name="Intersección 1" d="M0,47.89A47.893,47.893,0,0,1,79.511,11.92L1.1,58.131A48,48,0,0,1,0,47.89Z" transform="translate(383.779 8400.031)" fill="#19538d"/>
    <path id="Trazado_1032916" data-name="Trazado 1032916" d="M40,0A40,40,0,1,1,0,40,40,40,0,0,1,40,0Z" transform="translate(391.67 8407.924)" fill="#e6f3ff"/>
    <g id="Grupo_1188343" data-name="Grupo 1188343" transform="translate(406.126 8422.38)">
      <rect id="Rectángulo_459838" data-name="Rectángulo 459838" width="52" height="52" transform="translate(-0.202 -0.456)" fill="none"/>
      <g id="editor-de-texto" transform="translate(-2.543 -6.823)">
        <g id="Grupo_1184674" data-name="Grupo 1184674" transform="translate(4.087 43.587)">
          <path id="Trazado_1030419" data-name="Trazado 1030419" d="M70.247,422h-7.4A1.85,1.85,0,0,0,61,423.849v7.4a1.85,1.85,0,0,0,1.849,1.849h7.4a1.85,1.85,0,0,0,1.849-1.849v-7.4A1.85,1.85,0,0,0,70.247,422ZM68.4,429.4H64.7v-3.7h3.7Z" transform="translate(-61 -422)" fill="#19538d"/>
        </g>
        <g id="Grupo_1184675" data-name="Grupo 1184675" transform="translate(4.087 10.051)">
          <path id="Trazado_1030420" data-name="Trazado 1030420" d="M70.247,150h-7.4A1.85,1.85,0,0,0,61,151.849v7.4a1.85,1.85,0,0,0,1.849,1.849h7.4a1.85,1.85,0,0,0,1.849-1.849v-7.4A1.85,1.85,0,0,0,70.247,150ZM68.4,157.4H64.7v-3.7h3.7Z" transform="translate(-61 -150)" fill="#19538d"/>
        </g>
        <g id="Grupo_1184676" data-name="Grupo 1184676" transform="translate(41.076 10.051)">
          <path id="Trazado_1030421" data-name="Trazado 1030421" d="M370.247,150h-7.4A1.85,1.85,0,0,0,361,151.849v7.4a1.85,1.85,0,0,0,1.849,1.849h7.4a1.85,1.85,0,0,0,1.849-1.849v-7.4A1.85,1.85,0,0,0,370.247,150Zm-1.849,7.4h-3.7v-3.7h3.7Z" transform="translate(-361 -150)" fill="#19538d"/>
        </g>
        <g id="Grupo_1184677" data-name="Grupo 1184677" transform="translate(41.076 43.587)">
          <path id="Trazado_1030422" data-name="Trazado 1030422" d="M370.247,422h-7.4A1.85,1.85,0,0,0,361,423.849v7.4a1.85,1.85,0,0,0,1.849,1.849h7.4a1.85,1.85,0,0,0,1.849-1.849v-7.4A1.85,1.85,0,0,0,370.247,422Zm-1.849,7.4h-3.7v-3.7h3.7Z" transform="translate(-361 -422)" fill="#19538d"/>
        </g>
        <g id="Grupo_1184678" data-name="Grupo 1184678" transform="translate(11.485 17.448)">
          <path id="Trazado_1030423" data-name="Trazado 1030423" d="M152.44,217.4a5.555,5.555,0,0,1-5.548-5.548V210H128.4v1.849a5.555,5.555,0,0,1-5.548,5.548H121V232.44h1.849a5.555,5.555,0,0,1,5.548,5.548v5.548h18.494v-5.548a5.555,5.555,0,0,1,5.548-5.548h1.849V217.4Zm-5.548,5.548a1.849,1.849,0,1,1-3.7,0V221.1h-3.7V232.44h1.849a1.849,1.849,0,1,1,0,3.7h-7.4a1.849,1.849,0,0,1,0-3.7H135.8V221.1h-3.7v1.849a1.849,1.849,0,1,1-3.7,0v-3.7a1.85,1.85,0,0,1,1.849-1.849h14.8a1.85,1.85,0,0,1,1.849,1.849Z" transform="translate(-121 -210)" fill="#19538d"/>
        </g>
      </g>
    </g>
  </g>
</svg>
