<svg xmlns="http://www.w3.org/2000/svg" width="96" height="96" viewBox="0 0 96 96">
  <g id="Grupo_1188553" data-name="Grupo 1188553" transform="translate(-383.67 -8399.924)">
    <circle id="Elipse_13890" data-name="Elipse 13890" cx="48" cy="48" r="48" transform="translate(383.67 8399.924)" fill="#5a9ad7"/>
    <path id="Intersección_1" data-name="Intersección 1" d="M0,47.89A47.893,47.893,0,0,1,79.511,11.92L1.1,58.131A48,48,0,0,1,0,47.89Z" transform="translate(383.779 8400.031)" fill="#19538d"/>
    <path id="Trazado_1032916" data-name="Trazado 1032916" d="M40,0A40,40,0,1,1,0,40,40,40,0,0,1,40,0Z" transform="translate(391.67 8407.924)" fill="#e6f3ff"/>
    <g id="Grupo_1188343" data-name="Grupo 1188343" transform="translate(406.126 8422.38)">
      <rect id="Rectángulo_459838" data-name="Rectángulo 459838" width="52" height="52" transform="translate(-0.202 -0.456)" fill="none"/>
      <g id="Layer_x0020_1" transform="translate(-39.651 -0.609)">
        <path id="Trazado_1030424" data-name="Trazado 1030424" d="M68.351,38.933H66.524v2.576H71.8a1.2,1.2,0,0,1,1.2,1.2v6.411a1.2,1.2,0,0,1-1.2,1.2H58.885a1.2,1.2,0,0,1-1.2-1.2V42.707a1.2,1.2,0,0,1,1.2-1.2h5.243V38.933c-1.318,0-2.876.3-3-1.108l-.779-6.351a12.944,12.944,0,0,1-3.835-2.217L50.586,31.8a1.189,1.189,0,0,1-1.528-.569l-.9-1.528-1.558.9v10.9h2.007a1.2,1.2,0,0,1,1.2,1.2v6.411a1.2,1.2,0,0,1-1.2,1.2H42.2a1.2,1.2,0,0,1-1.2-1.2V42.707a1.2,1.2,0,0,1,1.2-1.2h2.007V29.885a1.25,1.25,0,0,1,.659-1.078l2.1-1.168c-.629-1.108-1.648-2.307-.569-3.116l5.153-3.865-.18-2.217a1.2,1.2,0,0,1,1.2-1.2H54.3V12.75a.707.707,0,0,0-.21-.479c-.3-.3-1.2-.18-1.887-.18a3.259,3.259,0,1,1,0-2.4c1.318,0,2.576-.15,3.595.9a3.083,3.083,0,0,1,.9,2.157v4.494h1.857V7.567L56.428,5.44a3.262,3.262,0,1,1,1.708-1.708l2.457,2.486a1.108,1.108,0,0,1,.359.869V17.243h3.176V5.47a3.258,3.258,0,1,1,3.505-.719,3.2,3.2,0,0,1-1.108.719V17.243H69.7V7.088a1.219,1.219,0,0,1,.359-.869l2.486-2.486a3.263,3.263,0,1,1,5.3,1.019,3.224,3.224,0,0,1-3.595.689L72.1,7.567v9.676h1.887V12.75a2.96,2.96,0,0,1,.9-2.157c1.078-1.078,2.217-.9,3.595-.9A3.2,3.2,0,0,1,79.2,8.586,3.264,3.264,0,1,1,81.5,14.158a3.193,3.193,0,0,1-3.026-2.067H77.039l-.479.18a.68.68,0,0,0-.18.479v4.494h1.738a1.2,1.2,0,0,1,1.2,1.2l-.18,2.217,5.153,3.865a1.176,1.176,0,0,1,.33,1.528v.03l-.929,1.558,2.1,1.168a1.222,1.222,0,0,1,.689,1.078V41.509h2.007a1.2,1.2,0,0,1,1.2,1.2v6.411a1.2,1.2,0,0,1-1.2,1.2H82.072a1.183,1.183,0,0,1-1.2-1.2V42.707a1.183,1.183,0,0,1,1.2-1.2h2.007V30.6l-1.588-.9c-.629,1.138-1.168,2.636-2.427,2.1l-5.9-2.546A13.093,13.093,0,0,1,70.3,31.473l-.749,6.411A1.2,1.2,0,0,1,68.351,38.933ZM56.308,19.64a9.112,9.112,0,0,0,18.064,0Z" transform="translate(0 0)" fill="#19538d"/>
      </g>
    </g>
  </g>
</svg>
