<svg xmlns="http://www.w3.org/2000/svg" xmlns:xlink="http://www.w3.org/1999/xlink" width="86" height="86" viewBox="0 0 86 86">
  <defs>
    <clipPath id="clip-path">
      <rect id="Rectángulo_456117" data-name="Rectángulo 456117" width="54.268" height="51.965" fill="none"/>
    </clipPath>
    <clipPath id="clip-path-3">
      <rect id="Rectángulo_456112" data-name="Rectángulo 456112" width="11.872" height="10.22" fill="none"/>
    </clipPath>
    <clipPath id="clip-path-4">
      <rect id="Rectángulo_456114" data-name="Rectángulo 456114" width="2.14" height="2.14" fill="none"/>
    </clipPath>
    <clipPath id="clip-path-5">
      <rect id="Rectángulo_456115" data-name="Rectángulo 456115" width="6.628" height="18.07" fill="none"/>
    </clipPath>
  </defs>
  <g id="Grupo_1188557" data-name="Grupo 1188557" transform="translate(-204 -3878)">
    <circle id="Elipse_13916" data-name="Elipse 13916" cx="43" cy="43" r="43" transform="translate(204 3878)" fill="#19538d"/>
    <g id="Grupo_1179678" data-name="Grupo 1179678" transform="translate(220 3895)">
      <g id="Grupo_1179689" data-name="Grupo 1179689" clip-path="url(#clip-path)">
        <rect id="Rectángulo_456099" data-name="Rectángulo 456099" width="36.928" height="42.732" transform="translate(7.641 6.167)" fill="#fff"/>
        <rect id="Rectángulo_456100" data-name="Rectángulo 456100" width="12.991" height="11.029" transform="translate(9.764 8.864)" fill="#b2d5d6"/>
        <rect id="Rectángulo_456101" data-name="Rectángulo 456101" width="18.137" height="1.758" transform="translate(24.552 8.864)" fill="#727997"/>
        <rect id="Rectángulo_456102" data-name="Rectángulo 456102" width="14.463" height="1.758" transform="translate(24.552 11.928)" fill="#727997"/>
        <rect id="Rectángulo_456103" data-name="Rectángulo 456103" width="18.137" height="1.758" transform="translate(24.552 14.992)" fill="#727997"/>
        <rect id="Rectángulo_456104" data-name="Rectángulo 456104" width="15.687" height="1.758" transform="translate(24.552 18.055)" fill="#727997"/>
        <rect id="Rectángulo_456105" data-name="Rectángulo 456105" width="32.925" height="1.759" transform="translate(9.764 21.118)" fill="#727997"/>
        <rect id="Rectángulo_456106" data-name="Rectángulo 456106" width="27.657" height="1.758" transform="translate(9.763 24.183)" fill="#727997"/>
        <rect id="Rectángulo_456107" data-name="Rectángulo 456107" width="29.863" height="1.759" transform="translate(9.764 27.246)" fill="#727997"/>
        <rect id="Rectángulo_456108" data-name="Rectángulo 456108" width="32.925" height="1.759" transform="translate(9.764 30.309)" fill="#727997"/>
        <rect id="Rectángulo_456109" data-name="Rectángulo 456109" width="25.573" height="1.759" transform="translate(9.763 33.373)" fill="#727997"/>
        <rect id="Rectángulo_456110" data-name="Rectángulo 456110" width="29.251" height="1.759" transform="translate(9.764 36.437)" fill="#727997"/>
        <rect id="Rectángulo_456111" data-name="Rectángulo 456111" width="32.925" height="1.759" transform="translate(9.764 39.502)" fill="#727997"/>
        <g id="Grupo_1179688" data-name="Grupo 1179688" transform="translate(0 0)">
          <g id="Grupo_1179687" data-name="Grupo 1179687" clip-path="url(#clip-path)">
            <path id="Trazado_998768" data-name="Trazado 998768" d="M60.123,12.255A12.255,12.255,0,1,1,47.867,0,12.255,12.255,0,0,1,60.123,12.255" transform="translate(-5.855 0)" fill="#4dd0e1"/>
            <g id="Grupo_1179680" data-name="Grupo 1179680" transform="translate(32.697 20.229)" opacity="0.59" style="mix-blend-mode: multiply;isolation: isolate">
              <g id="Grupo_1179679" data-name="Grupo 1179679">
                <g id="Grupo_1179678-2" data-name="Grupo 1179678" clip-path="url(#clip-path-3)">
                  <path id="Trazado_998769" data-name="Trazado 998769" d="M51,28.219v6.21A12.247,12.247,0,0,1,39.13,24.21a12.226,12.226,0,0,0,9.312,4.283A12.029,12.029,0,0,0,51,28.219" transform="translate(-39.13 -24.21)" fill="#94acb2"/>
                </g>
              </g>
            </g>
            <path id="Trazado_998770" data-name="Trazado 998770" d="M43.909,10.661v1.4L40.089,13.64l3.819,1.6v1.4l-5.546-2.4v-1.21Z" transform="translate(-5.289 -1.445)" fill="#19538d"/>
            <path id="Trazado_998771" data-name="Trazado 998771" d="M50.912,6.193h1.362L47.649,18.318H46.286Z" transform="translate(-7.268 -0.328)" fill="#19538d"/>
            <path id="Trazado_998772" data-name="Trazado 998772" d="M54.8,10.661l5.546,2.4V14.27L54.8,16.64V15.254l3.82-1.594L54.8,12.068Z" transform="translate(-9.396 -1.445)" fill="#19538d"/>
            <path id="Trazado_998773" data-name="Trazado 998773" d="M18.584,55.522a1.7,1.7,0,0,1-1.638,1.763H1.636A1.7,1.7,0,0,1,0,55.522v-21.4a1.7,1.7,0,0,1,1.636-1.761h15.31a1.7,1.7,0,0,1,1.638,1.761Z" transform="translate(0 -5.32)" fill="#fff"/>
            <rect id="Rectángulo_456113" data-name="Rectángulo 456113" width="15.193" height="19.931" transform="translate(1.675 28.842)" fill="#ffde92"/>
            <g id="Grupo_1179683" data-name="Grupo 1179683" transform="translate(8.252 49.396)" opacity="0.88" style="mix-blend-mode: multiply;isolation: isolate">
              <g id="Grupo_1179682" data-name="Grupo 1179682">
                <g id="Grupo_1179681" data-name="Grupo 1179681" clip-path="url(#clip-path-4)">
                  <path id="Trazado_998774" data-name="Trazado 998774" d="M12.015,60.184a1.07,1.07,0,1,1-1.07-1.069,1.07,1.07,0,0,1,1.07,1.069" transform="translate(-9.875 -59.115)" fill="#e5e5e5"/>
                </g>
              </g>
            </g>
            <g id="Grupo_1179686" data-name="Grupo 1179686" transform="translate(2.694 29.808)" opacity="0.24">
              <g id="Grupo_1179685" data-name="Grupo 1179685">
                <g id="Grupo_1179684" data-name="Grupo 1179684" clip-path="url(#clip-path-5)">
                  <path id="Trazado_998775" data-name="Trazado 998775" d="M3.224,35.673v18.07H6.5l3.347-18.07Z" transform="translate(-3.224 -35.673)" fill="#fff"/>
                </g>
              </g>
            </g>
          </g>
        </g>
      </g>
    </g>
  </g>
</svg>
