<svg xmlns="http://www.w3.org/2000/svg" width="128" height="128" viewBox="0 0 128 128">
  <g id="Grupo_1188589" data-name="Grupo 1188589" transform="translate(-383.746 -8400)">
    <circle id="Elipse_13890" data-name="Elipse 13890" cx="64" cy="64" r="64" transform="translate(383.746 8400)" fill="#5a9ad7"/>
    <path id="Intersección_1" data-name="Intersección 1" d="M23204.689,11774.869a64,64,0,0,1,106.254-48.067l-104.787,61.753A64.213,64.213,0,0,1,23204.689,11774.869Z" transform="translate(-22820.941 -3310.872)" fill="#19538d"/>
    <circle id="Elipse_13891" data-name="Elipse 13891" cx="54" cy="54" r="54" transform="translate(393.746 8410)" fill="#fff"/>
    <path id="Trazado_1033051" data-name="Trazado 1033051" d="M151.069,13.125,143.463,25.74l-6.949-.031V25.3l8.765-12.177Zm-7.606,12.333L151.069,38.1h-5.791L136.514,25.9V25.49Zm19.72-12.333L155.577,25.74l-6.949-.031V25.3l8.765-12.177Zm-7.606,12.333L163.183,38.1h-5.791L148.628,25.9V25.49ZM169.729,11.9a4.468,4.468,0,0,1,1.393-3.349,5.784,5.784,0,0,1,7.419,0,4.468,4.468,0,0,1,1.393,3.349,4.468,4.468,0,0,1-1.393,3.349,5.784,5.784,0,0,1-7.419,0A4.468,4.468,0,0,1,169.729,11.9Zm9.328,22.569-.031,6.041a15.8,15.8,0,0,1-1.737,7.012,17.662,17.662,0,0,1-4.4,5.791l-4.7-2.41q.783-1.44,1.534-2.88a17.21,17.21,0,0,0,1.252-3.162,14.016,14.016,0,0,0,.5-3.913v-6.48Zm7.015,3.631,7.606-12.646,6.98.031V25.9L191.895,38.1Zm0-24.979h5.822L200.659,25.3v.407l-6.98.031ZM198.343,38.1l7.606-12.646,6.98.031V25.9L204.165,38.1Zm0-24.979h5.822L212.93,25.3v.407l-6.98.031Z" transform="translate(273.232 8433.791)" fill="#19538d"/>
  </g>
</svg>
