<svg xmlns="http://www.w3.org/2000/svg" width="96" height="96" viewBox="0 0 96 96">
  <g id="Grupo_1188520" data-name="Grupo 1188520" transform="translate(-383.67 -8399.924)">
    <circle id="Elipse_13890" data-name="Elipse 13890" cx="48" cy="48" r="48" transform="translate(383.67 8399.924)" fill="#5a9ad7"/>
    <path id="Intersección_1" data-name="Intersección 1" d="M0,47.89A47.893,47.893,0,0,1,79.511,11.92L1.1,58.131A48,48,0,0,1,0,47.89Z" transform="translate(383.779 8400.031)" fill="#19538d"/>
    <path id="Trazado_1032916" data-name="Trazado 1032916" d="M40,0A40,40,0,1,1,0,40,40,40,0,0,1,40,0Z" transform="translate(391.67 8407.924)" fill="#e6f3ff"/>
    <g id="Grupo_1188343" data-name="Grupo 1188343" transform="translate(406.126 8422.38)">
      <rect id="Rectángulo_459838" data-name="Rectángulo 459838" width="52" height="52" transform="translate(-0.455 -0.456)" fill="none"/>
      <g id="_x30_3" transform="translate(-0.456 0.21)">
        <path id="Trazado_1030358" data-name="Trazado 1030358" d="M16.214,17v5.214H11Z" transform="translate(6.643 11.072)" fill="#19538d"/>
        <path id="Trazado_1030359" data-name="Trazado 1030359" d="M7.214,2,2,7.214H7.214Z" fill="#19538d"/>
        <path id="Trazado_1030360" data-name="Trazado 1030360" d="M14.167,2H8.952V7.214A1.738,1.738,0,0,1,7.214,8.952H2V19.381a1.738,1.738,0,0,0,1.738,1.738H7.214V36.762A1.738,1.738,0,0,0,8.952,38.5H15.9V35.024H10.691v-13.9h3.476A1.738,1.738,0,0,0,15.9,19.381V3.738A1.738,1.738,0,0,0,14.167,2ZM13.3,19.381H4.607a.869.869,0,0,1,0-1.738H13.3a.869.869,0,1,1,0,1.738Zm0-3.476H4.607a.869.869,0,1,1,0-1.738H13.3a.869.869,0,1,1,0,1.738Zm0-3.476H4.607a.869.869,0,0,1,0-1.738H13.3a.869.869,0,1,1,0,1.738Z" fill="#19538d"/>
        <path id="Trazado_1030361" data-name="Trazado 1030361" d="M27,2V7.214h5.214Z" transform="translate(18.453)" fill="#19538d"/>
        <path id="Trazado_1030362" data-name="Trazado 1030362" d="M28.952,7.214V2H23.738A1.738,1.738,0,0,0,22,3.738V19.381a1.738,1.738,0,0,0,1.738,1.738h3.476v13.9H22V38.5h6.952a1.738,1.738,0,0,0,1.738-1.738V21.119h3.476A1.738,1.738,0,0,0,35.9,19.381V8.952H30.691A1.738,1.738,0,0,1,28.952,7.214ZM33.3,19.381H24.607a.869.869,0,1,1,0-1.738H33.3a.869.869,0,1,1,0,1.738Zm0-3.476H24.607a.869.869,0,1,1,0-1.738H33.3a.869.869,0,1,1,0,1.738Zm.869-4.345a.869.869,0,0,1-.869.869H24.607a.869.869,0,0,1,0-1.738H33.3A.869.869,0,0,1,34.167,11.56Z" transform="translate(14.762)" fill="#19538d"/>
        <path id="Trazado_1030363" data-name="Trazado 1030363" d="M24.167,2H13.738A1.738,1.738,0,0,0,12,3.738V19.381a1.738,1.738,0,0,0,1.738,1.738h3.476v5.214h3.476V21.119h3.476A1.738,1.738,0,0,0,25.9,19.381V3.738A1.738,1.738,0,0,0,24.167,2ZM23.3,15.9H14.607a.869.869,0,1,1,0-1.738H23.3a.869.869,0,1,1,0,1.738Zm0-3.476H14.607a.869.869,0,0,1,0-1.738H23.3a.869.869,0,1,1,0,1.738Zm0-3.476H14.607a.869.869,0,0,1,0-1.738H23.3a.869.869,0,1,1,0,1.738Z" transform="translate(7.381)" fill="#19538d"/>
        <path id="Trazado_1030364" data-name="Trazado 1030364" d="M26.643,17H17.952v5.214a1.738,1.738,0,0,1-1.738,1.738H11v13.9A1.738,1.738,0,0,0,12.738,39.6h13.9a1.738,1.738,0,0,0,1.738-1.738V18.738A1.738,1.738,0,0,0,26.643,17Zm-1.863,8.267-5.214,8.691a.868.868,0,0,1-.638.415.9.9,0,0,1-.107.007.869.869,0,0,1-.614-.255L14.73,30.649a.869.869,0,0,1,1.229-1.229l2.69,2.69,4.642-7.737a.869.869,0,0,1,1.49.895Z" transform="translate(6.643 11.072)" fill="#19538d"/>
      </g>
    </g>
  </g>
</svg>
