<svg xmlns="http://www.w3.org/2000/svg" width="98" height="98" viewBox="0 0 98 98">
  <g id="Grupo_1188525" data-name="Grupo 1188525" transform="translate(-185.739 -9253.217)">
    <g id="Grupo_1188415" data-name="Grupo 1188415" transform="translate(185.738 9253.217)">
      <circle id="Elipse_13890" data-name="Elipse 13890" cx="49" cy="49" r="49" transform="translate(98 98) rotate(180)" fill="#19538d"/>
      <circle id="Elipse_13891" data-name="Elipse 13891" cx="40.698" cy="40.698" r="40.698" transform="translate(89.429 89.95) rotate(180)" fill="#fff"/>
      <g id="Grupo_1188533" data-name="Grupo 1188533" transform="translate(24.774 25.087)">
        <rect id="Rectángulo_456311" data-name="Rectángulo 456311" width="48.582" height="48.933" transform="translate(0 -0.257)" fill="none"/>
        <g id="Grupo_1185407" data-name="Grupo 1185407" transform="translate(0.682 5.046)">
          <g id="videojuego">
            <path id="Trazado_1030404" data-name="Trazado 1030404" d="M50.177,33.093l-5.108-8.258A6.829,6.829,0,0,0,39.28,21.6H16.294a6.829,6.829,0,0,0-5.789,3.235l-4.938,8a8.649,8.649,0,0,0-.17,8.939A8.794,8.794,0,0,0,13.144,46.2a8.8,8.8,0,0,0,7.747-5.193l.6-1.362,11.748-.17,1.022,2.128a8.8,8.8,0,0,0,7.832,4.853h.426a8.738,8.738,0,0,0,7.662-4.512,8.311,8.311,0,0,0,0-8.854Zm-8.854.426a2.043,2.043,0,1,1,2.043-2.043A2.072,2.072,0,0,1,41.323,33.519Zm-8.428-2.043a2.043,2.043,0,1,1,2.043,2.043A2.072,2.072,0,0,1,32.895,31.475ZM18.933,33.093H18v.936a1.708,1.708,0,0,1-1.7,1.7,1.765,1.765,0,0,1-1.7-1.7v-.936h-.936a1.708,1.708,0,0,1-1.7-1.7,1.765,1.765,0,0,1,1.7-1.7h.936v-.936a1.708,1.708,0,0,1,1.7-1.7,1.765,1.765,0,0,1,1.7,1.7v.936h.936a1.708,1.708,0,0,1,1.7,1.7A1.765,1.765,0,0,1,18.933,33.093ZM40.216,27.73a2.043,2.043,0,1,1-2.043-2.043A2.017,2.017,0,0,1,40.216,27.73Zm-2.043,5.534a2.043,2.043,0,1,1-2.043,2.043A2.017,2.017,0,0,1,38.173,33.263Z" transform="translate(-4.235 -8.49)" fill="#12263f"/>
            <path id="Trazado_1030405" data-name="Trazado 1030405" d="M28.6,16.616a2.774,2.774,0,0,1,2.809-.341,3.2,3.2,0,0,1,1.532,1.277,1.67,1.67,0,0,0,2.3.6,1.689,1.689,0,0,0,.6-2.3A6.43,6.43,0,0,0,30.3,12.7a6.621,6.621,0,0,0-5.534,3.15,1.749,1.749,0,0,0,.6,2.3,1.726,1.726,0,0,0,2.3-.6Z" transform="translate(-7.257 -7.166)" fill="#12263f"/>
            <path id="Trazado_1030406" data-name="Trazado 1030406" d="M24.242,12.84a6.511,6.511,0,0,1,5.534-3.235,6.405,6.405,0,0,1,5.534,3.235c1.107,1.873,4.086.17,2.98-1.7a9.808,9.808,0,0,0-17.026,0C20.241,13.011,23.135,14.713,24.242,12.84Z" transform="translate(-6.735 -6.2)" fill="#12263f"/>
          </g>
        </g>
      </g>
    </g>
  </g>
</svg>
