<svg xmlns="http://www.w3.org/2000/svg" width="98" height="98" viewBox="0 0 98 98">
  <g id="Grupo_1188622" data-name="Grupo 1188622" transform="translate(-185.739 -9253.217)">
    <g id="Grupo_1188415" data-name="Grupo 1188415" transform="translate(185.738 9253.217)">
      <circle id="Elipse_13890" data-name="Elipse 13890" cx="49" cy="49" r="49" transform="translate(98 98) rotate(180)" fill="#727997"/>
      <circle id="Elipse_13891" data-name="Elipse 13891" cx="40.698" cy="40.698" r="40.698" transform="translate(89.429 89.95) rotate(180)" fill="#fff"/>
      <g id="error_2_" data-name="error (2)" transform="translate(25.258 23.488)">
        <path id="Trazado_1031197" data-name="Trazado 1031197" d="M357.752,16.08l-7.209-7.209v7.2Zm0,0" transform="translate(-314.275 -7.855)" fill="#12263f"/>
        <path id="Trazado_1031198" data-name="Trazado 1031198" d="M90.813,10.814H81.743a1.593,1.593,0,0,1-1.575-1.607V0H53.817a1.593,1.593,0,0,0-1.579,1.607V30.349a13.665,13.665,0,0,1,7.454-.921,1.623,1.623,0,0,1-.081-.5,1.593,1.593,0,0,1,1.579-1.607H80.2a1.607,1.607,0,0,1,0,3.213H63.317a14.264,14.264,0,0,1,6.747,19.026H89.235a1.593,1.593,0,0,0,1.578-1.607Zm-16.3,5.471a1.592,1.592,0,0,1-1.578,1.607H61.191a1.607,1.607,0,0,1,0-3.213H72.939A1.593,1.593,0,0,1,74.518,16.285ZM80.2,24.212H61.191a1.607,1.607,0,0,1,0-3.213H80.2a1.607,1.607,0,0,1,0,3.213Zm0,0" transform="translate(-46.311 -0.001)" fill="#12263f"/>
        <path id="Trazado_1031199" data-name="Trazado 1031199" d="M24.085,317.941a11.793,11.793,0,1,0-11.793,11.793A11.806,11.806,0,0,0,24.085,317.941Zm-6.831,5.071a1.735,1.735,0,0,1-2.454,0L12.293,320.5l-2.508,2.508a1.735,1.735,0,1,1-2.454-2.454l2.508-2.508-2.508-2.508a1.735,1.735,0,1,1,2.454-2.454l2.508,2.508,2.508-2.508a1.735,1.735,0,1,1,2.454,2.454l-2.508,2.508,2.508,2.508a1.736,1.736,0,0,1,0,2.454Zm0,0" transform="translate(-0.5 -275.04)" fill="#12263f"/>
      </g>
    </g>
  </g>
</svg>
