<svg xmlns="http://www.w3.org/2000/svg" width="128" height="128" viewBox="0 0 128 128">
  <g id="Grupo_1188588" data-name="Grupo 1188588" transform="translate(-383.746 -8400)">
    <circle id="Elipse_13890" data-name="Elipse 13890" cx="64" cy="64" r="64" transform="translate(383.746 8400)" fill="#5a9ad7"/>
    <path id="Intersección_1" data-name="Intersección 1" d="M23204.689,11774.869a64,64,0,0,1,106.254-48.067l-104.787,61.753A64.213,64.213,0,0,1,23204.689,11774.869Z" transform="translate(-22820.941 -3310.872)" fill="#19538d"/>
    <circle id="Elipse_13891" data-name="Elipse 13891" cx="54" cy="54" r="54" transform="translate(393.746 8410)" fill="#fff"/>
    <path id="Trazado_1033050" data-name="Trazado 1033050" d="M149.175,8.87l-7.717,12.8-7.05-.032v-.413L143.3,8.87Zm-7.717,12.512,7.717,12.83H143.3l-8.892-12.385v-.413ZM161.466,8.87l-7.717,12.8-7.05-.032v-.413L155.59,8.87Zm-7.717,12.512,7.717,12.83H155.59L146.7,21.827v-.413ZM176.9,30.529l-.032,6.129a16.034,16.034,0,0,1-1.763,7.114,17.919,17.919,0,0,1-4.462,5.875L165.884,47.2q.794-1.461,1.556-2.922a17.462,17.462,0,0,0,1.27-3.208,14.221,14.221,0,0,0,.508-3.97V30.529Zm6.673,3.684,7.717-12.83,7.082.032v.413l-8.892,12.385Zm0-25.343h5.907l8.892,12.354v.413l-7.082.032Zm12.449,25.343,7.717-12.83,7.082.032v.413l-8.892,12.385Zm0-25.343h5.907l8.892,12.354v.413l-7.082.032Z" transform="translate(275.338 8435.13)" fill="#19538d"/>
  </g>
</svg>
