<svg xmlns="http://www.w3.org/2000/svg" width="128" height="128" viewBox="0 0 128 128">
  <g id="Grupo_1188587" data-name="Grupo 1188587" transform="translate(-383.746 -8400)">
    <circle id="Elipse_13890" data-name="Elipse 13890" cx="64" cy="64" r="64" transform="translate(383.746 8400)" fill="#5a9ad7"/>
    <path id="Intersección_1" data-name="Intersección 1" d="M23204.689,11774.869a64,64,0,0,1,106.254-48.067l-104.787,61.753A64.213,64.213,0,0,1,23204.689,11774.869Z" transform="translate(-22820.941 -3310.872)" fill="#19538d"/>
    <circle id="Elipse_13891" data-name="Elipse 13891" cx="54" cy="54" r="54" transform="translate(393.746 8410)" fill="#fff"/>
    <path id="Trazado_1033049" data-name="Trazado 1033049" d="M150.742,8.87,143.18,21.411l-6.908-.031v-.4L144.985,8.87ZM143.18,21.131,150.742,33.7h-5.757l-8.713-12.136v-.4ZM162.785,8.87l-7.562,12.541-6.908-.031v-.4L157.028,8.87Zm-7.562,12.261L162.785,33.7h-5.757l-8.713-12.136v-.4Zm14.63,12.2A4.442,4.442,0,0,1,171.238,30a5.75,5.75,0,0,1,7.375,0,4.7,4.7,0,0,1,0,6.659,5.75,5.75,0,0,1-7.375,0A4.442,4.442,0,0,1,169.853,33.33Zm17.4.373,7.562-12.572,6.94.031v.4L193.041,33.7Zm0-24.833h5.788l8.713,12.105v.4l-6.94.031Zm12.2,24.833,7.562-12.572,6.94.031v.4L205.239,33.7Zm0-24.833h5.788l8.713,12.105v.4l-6.94.031Z" transform="translate(272.474 8440.13)" fill="#19538d"/>
  </g>
</svg>
