<svg xmlns="http://www.w3.org/2000/svg" width="98" height="98" viewBox="0 0 98 98">
  <g id="Grupo_1188597" data-name="Grupo 1188597" transform="translate(-185.739 -9253.217)">
    <g id="Grupo_1188415" data-name="Grupo 1188415" transform="translate(185.738 9253.217)">
      <circle id="Elipse_13890" data-name="Elipse 13890" cx="49" cy="49" r="49" transform="translate(98 98) rotate(180)" fill="#19538d"/>
      <circle id="Elipse_13891" data-name="Elipse 13891" cx="40.698" cy="40.698" r="40.698" transform="translate(89.429 89.95) rotate(180)" fill="#fff"/>
      <g id="calculadora_1_" data-name="calculadora (1)" transform="translate(26.741 24.157)">
        <path id="Trazado_1031366" data-name="Trazado 1031366" d="M45.045,4.2H39.159V3.364A3.364,3.364,0,0,0,35.795,0H15.613A3.364,3.364,0,0,0,12.25,3.364V4.2H6.364A3.364,3.364,0,0,0,3,7.568V38.681a3.364,3.364,0,0,0,3.364,3.364H17.3v2.523H13.932a2.523,2.523,0,0,0-2.523,2.523v1.682a1.682,1.682,0,0,0,1.682,1.682H38.318A1.682,1.682,0,0,0,40,48.772V47.09a2.523,2.523,0,0,0-2.523-2.523H34.113V42.045H45.045a3.364,3.364,0,0,0,3.364-3.364V7.568A3.364,3.364,0,0,0,45.045,4.2ZM39.159,9.25h4.2V30.272H38.691a3.329,3.329,0,0,0,.468-1.682ZM13.932,3.364a1.682,1.682,0,0,1,1.682-1.682H35.795a1.682,1.682,0,0,1,1.682,1.682V28.59a1.682,1.682,0,0,1-1.682,1.682H15.613a1.682,1.682,0,0,1-1.682-1.682ZM12.717,30.272H8.045V9.25h4.2V28.59a3.329,3.329,0,0,0,.468,1.682ZM6.364,5.886H12.25V7.568h-4.2A1.682,1.682,0,0,0,6.364,9.25V30.272a1.682,1.682,0,0,0,1.682,1.682H43.363a1.682,1.682,0,0,0,1.682-1.682V9.25a1.682,1.682,0,0,0-1.682-1.682h-4.2V5.886h5.886a1.682,1.682,0,0,1,1.682,1.682V33.636H4.682V7.568A1.682,1.682,0,0,1,6.364,5.886Zm31.954,41.2v1.682H13.091V47.09a.841.841,0,0,1,.841-.841H37.477A.841.841,0,0,1,38.318,47.09Zm-5.886-2.523H18.977V42.045H32.431Zm12.613-4.2H6.364a1.682,1.682,0,0,1-1.682-1.682V35.318H46.727v3.364A1.682,1.682,0,0,1,45.045,40.363Z" transform="translate(-3)" fill="#12263f"/>
        <path id="Trazado_1031367" data-name="Trazado 1031367" d="M19.682,12.409H36.5a1.682,1.682,0,0,0,1.682-1.682V5.682A1.682,1.682,0,0,0,36.5,4H19.682A1.682,1.682,0,0,0,18,5.682v5.045A1.682,1.682,0,0,0,19.682,12.409ZM32.3,5.682l-3.784,5.045H23.886L27.67,5.682Zm4.2,5.045H30.613L34.4,5.682h2.1ZM19.682,5.682h5.886l-3.784,5.045h-2.1Z" transform="translate(-5.387 -0.636)" fill="#12263f"/>
        <path id="Trazado_1031368" data-name="Trazado 1031368" d="M30.523,44H28.841a.841.841,0,1,0,0,1.682h1.682a.841.841,0,1,0,0-1.682Z" transform="translate(-6.978 -7.001)" fill="#12263f"/>
        <path id="Trazado_1031369" data-name="Trazado 1031369" d="M-8.9-11.46v8.636H-9.992V-10.1l-2.2.8v-.985l3.121-1.18Zm8.861,7.74v.9H-5.661v-.785l2.814-3.132a11.41,11.41,0,0,0,.805-.982,3.118,3.118,0,0,0,.4-.726,1.939,1.939,0,0,0,.115-.658,1.685,1.685,0,0,0-.174-.77,1.351,1.351,0,0,0-.51-.552,1.527,1.527,0,0,0-.814-.206,1.871,1.871,0,0,0-.953.221,1.392,1.392,0,0,0-.569.616,2.084,2.084,0,0,0-.189.908H-5.827a2.792,2.792,0,0,1,.319-1.327,2.366,2.366,0,0,1,.944-.959,3.064,3.064,0,0,1,1.54-.357,3.111,3.111,0,0,1,1.392.286,2.085,2.085,0,0,1,.888.8,2.3,2.3,0,0,1,.31,1.206,2.439,2.439,0,0,1-.127.764A4.1,4.1,0,0,1-.91-7.7a6.4,6.4,0,0,1-.513.755q-.292.372-.622.731l-2.3,2.5ZM2.746-7.656h.779a2.07,2.07,0,0,0,.947-.192,1.3,1.3,0,0,0,.56-.525,1.518,1.518,0,0,0,.186-.752,1.877,1.877,0,0,0-.165-.832,1.106,1.106,0,0,0-.5-.507,1.814,1.814,0,0,0-.838-.171,1.754,1.754,0,0,0-.811.18,1.335,1.335,0,0,0-.549.51,1.488,1.488,0,0,0-.2.779H1.07a2.229,2.229,0,0,1,.33-1.192,2.371,2.371,0,0,1,.929-.855,2.914,2.914,0,0,1,1.389-.319,3.174,3.174,0,0,1,1.363.274,2.052,2.052,0,0,1,.908.814A2.565,2.565,0,0,1,6.315-9.1a1.84,1.84,0,0,1-.15.693A2.11,2.11,0,0,1,5.7-7.72a2.4,2.4,0,0,1-.817.522,3.2,3.2,0,0,1-1.2.2H2.746Zm0,.9v-.655h.932a4.029,4.029,0,0,1,1.357.195,2.17,2.17,0,0,1,.847.519,1.871,1.871,0,0,1,.437.711,2.456,2.456,0,0,1,.127.77,2.645,2.645,0,0,1-.2,1.068,2.223,2.223,0,0,1-.572.79,2.478,2.478,0,0,1-.864.49,3.4,3.4,0,0,1-1.08.165,3.4,3.4,0,0,1-1.053-.159,2.7,2.7,0,0,1-.87-.463,2.119,2.119,0,0,1-.59-.749A2.337,2.337,0,0,1,1-5.1H2.091a1.52,1.52,0,0,0,.2.785,1.337,1.337,0,0,0,.566.522,1.911,1.911,0,0,0,.87.186,1.981,1.981,0,0,0,.864-.174,1.244,1.244,0,0,0,.56-.528,1.81,1.81,0,0,0,.2-.891,1.591,1.591,0,0,0-.224-.882,1.339,1.339,0,0,0-.634-.513,2.532,2.532,0,0,0-.965-.168Z" transform="translate(25.282 26.79)" fill="#12263f"/>
      </g>
    </g>
  </g>
</svg>
