<svg xmlns="http://www.w3.org/2000/svg" width="160" height="160" viewBox="0 0 160 160">
  <g id="Grupo_1188595" data-name="Grupo 1188595" transform="translate(-186 -9253.863)">
    <g id="Grupo_1188415" data-name="Grupo 1188415" transform="translate(186 9253.862)">
      <circle id="Elipse_13890" data-name="Elipse 13890" cx="80" cy="80" r="80" transform="translate(160 160.001) rotate(180)" fill="#4dd0e1"/>
      <path id="Intersección_3" data-name="Intersección 3" d="M0,75.841,132.185,0a80.107,80.107,0,0,1-78.3,96.7A79.753,79.753,0,0,1,0,75.841Z" transform="translate(26.074 63.298)" fill="#1e535a"/>
      <ellipse id="Elipse_13891" data-name="Elipse 13891" cx="67.127" cy="67.127" rx="67.127" ry="67.127" transform="translate(147.128 147.099) rotate(180)" fill="#d5f4f8"/>
      <path id="Intersección_2" data-name="Intersección 2" d="M0,67.169A67.131,67.131,0,0,1,133.583,57.6L25.818,120.113A67.077,67.077,0,0,1,0,67.169Z" transform="translate(12.874 12.842)" fill="#fff"/>
      <g id="Grupo_1188343" data-name="Grupo 1188343" transform="translate(38.161 38.133)">
        <rect id="Rectángulo_459838" data-name="Rectángulo 459838" width="83.674" height="83.674" transform="translate(0 0)" fill="none"/>
        <g id="Grupo_1188596" data-name="Grupo 1188596" transform="translate(-1051.363 -9461.477)">
          <g id="User_Experience" data-name="User Experience" transform="translate(1052.984 9463.604)">
            <path id="Trazado_1030754" data-name="Trazado 1030754" d="M29.514,4.257a1.257,1.257,0,1,0-1.257,1.257A1.257,1.257,0,0,0,29.514,4.257Z" transform="translate(6.934 0.77)" fill="#12263f"/>
            <path id="Trazado_1030755" data-name="Trazado 1030755" d="M37.514,4.257a1.257,1.257,0,1,0-1.257,1.257A1.257,1.257,0,0,0,37.514,4.257Z" transform="translate(8.989 0.77)" fill="#12263f"/>
            <path id="Trazado_1030756" data-name="Trazado 1030756" d="M79.18,15.082H65.355v-8.8A6.284,6.284,0,0,0,59.071,0h-37.7a6.284,6.284,0,0,0-6.284,6.284v8.8H5.027A1.257,1.257,0,0,0,3.77,16.339V38.962a1.257,1.257,0,0,0,1.257,1.257H15.082V50.273H1.257A1.257,1.257,0,0,0,0,51.53V66.612a1.257,1.257,0,0,0,1.257,1.257H15.082v6.284a6.284,6.284,0,0,0,6.284,6.284h37.7a6.284,6.284,0,0,0,6.284-6.284V68.61c13.41-3.833,13.3-22.824,0-26.594V35.191H79.18a1.257,1.257,0,0,0,1.257-1.257v-17.6A1.257,1.257,0,0,0,79.18,15.082ZM17.6,6.284a3.77,3.77,0,0,1,3.77-3.77h37.7a3.77,3.77,0,0,1,3.77,3.77v8.8H60.328v-8.8a1.257,1.257,0,0,0-1.257-1.257h-8.8a1.257,1.257,0,0,0-1.257,1.257,1.257,1.257,0,0,1-1.257,1.257H32.677a1.257,1.257,0,0,1-1.257-1.257,1.257,1.257,0,0,0-1.257-1.257h-8.8a1.257,1.257,0,0,0-1.257,1.257v8.8H17.6Zm26.393,8.8a1.257,1.257,0,0,0-1.257,1.257v17.6a1.257,1.257,0,0,0,1.257,1.257H57.814v6.825c-13.247,3.77-13.385,22.485-.277,26.506.39.113.277-.465.277,4.374H22.623V67.868H38.962a1.257,1.257,0,0,0,1.257-1.257V51.53a1.257,1.257,0,0,0-1.257-1.257H22.623V40.218H32.677a1.257,1.257,0,0,0,1.257-1.257V16.339a1.257,1.257,0,0,0-1.257-1.257H22.623V7.541h6.5a3.77,3.77,0,0,0,3.557,2.514H47.759a3.77,3.77,0,0,0,3.557-2.514h6.5v7.541ZM64.9,53.013a3.318,3.318,0,0,1-6.636,0V51.869a3.318,3.318,0,0,1,6.636,0Zm2.966,10.394.339,1.005a11.223,11.223,0,0,1-13.335,0l.352-1.018a6.674,6.674,0,0,1,12.644.013ZM6.284,17.6H31.421V37.7H6.284ZM17.6,40.218h2.514V50.273H17.6ZM2.514,52.787H37.7V65.355H2.514ZM59.071,77.923h-37.7a3.77,3.77,0,0,1-3.77-3.77V67.868h2.514v6.284a1.257,1.257,0,0,0,1.257,1.257h37.7a1.257,1.257,0,0,0,1.257-1.257V69.125a12,12,0,0,0,2.514,0v5.027A3.77,3.77,0,0,1,59.071,77.923Zm11.2-15.384a9.087,9.087,0,0,0-4.688-5.3,6.4,6.4,0,0,0,1.835-5.367,5.832,5.832,0,0,0-11.663,0c0,1.835,0,3.595,1.835,5.367a9.049,9.049,0,0,0-4.688,5.3,11.311,11.311,0,1,1,17.369,0Zm-7.428-21a12,12,0,0,0-2.514,0V35.191h2.514Zm15.082-8.8H45.246V17.6H77.923Z" transform="translate(0)" fill="#12263f"/>
            <path id="Trazado_1030757" data-name="Trazado 1030757" d="M26.366,48H6.257a1.257,1.257,0,1,0,0,2.514H26.366a1.257,1.257,0,1,0,0-2.514Z" transform="translate(1.284 12.328)" fill="#12263f"/>
            <path id="Trazado_1030758" data-name="Trazado 1030758" d="M6.257,46.514H31.393a1.257,1.257,0,0,0,0-2.514H6.257a1.257,1.257,0,1,0,0,2.514Z" transform="translate(1.284 11.3)" fill="#12263f"/>
            <path id="Trazado_1030759" data-name="Trazado 1030759" d="M14.514,28.8V21.257a1.257,1.257,0,1,0-2.514,0V28.8a1.257,1.257,0,1,0,2.514,0Z" transform="translate(3.082 5.136)" fill="#12263f"/>
            <path id="Trazado_1030760" data-name="Trazado 1030760" d="M8,25.257V27.77a1.257,1.257,0,1,0,2.514,0V25.257a1.257,1.257,0,0,0-2.514,0Z" transform="translate(2.055 6.164)" fill="#12263f"/>
            <path id="Trazado_1030761" data-name="Trazado 1030761" d="M18.514,28.541V22.257a1.257,1.257,0,1,0-2.514,0v6.284a1.257,1.257,0,1,0,2.514,0Z" transform="translate(4.109 5.393)" fill="#12263f"/>
            <path id="Trazado_1030762" data-name="Trazado 1030762" d="M22.514,29.825V17.257a1.257,1.257,0,0,0-2.514,0V29.825a1.257,1.257,0,1,0,2.514,0Z" transform="translate(5.136 4.109)" fill="#12263f"/>
            <path id="Trazado_1030763" data-name="Trazado 1030763" d="M43.136,16.366l-3.77,3.77a1.257,1.257,0,0,0,0,1.785l3.77,3.77a1.262,1.262,0,0,0,1.785-1.785L42.03,21.028l2.891-2.878a1.262,1.262,0,1,0-1.785-1.785Z" transform="translate(10.015 4.108)" fill="#12263f"/>
            <path id="Trazado_1030764" data-name="Trazado 1030764" d="M56.15,25.691l3.77-3.77a1.257,1.257,0,0,0,0-1.785l-3.77-3.77a1.262,1.262,0,0,0-1.785,1.785l2.891,2.878-2.891,2.878a1.262,1.262,0,0,0,1.785,1.785Z" transform="translate(13.867 4.108)" fill="#12263f"/>
            <path id="Trazado_1030765" data-name="Trazado 1030765" d="M46.212,24.087a1.257,1.257,0,0,0,1.043,1.948c.917,0,.578.151,6.07-8.107a1.257,1.257,0,0,0-2.086-1.383Z" transform="translate(11.815 4.129)" fill="#12263f"/>
          </g>
        </g>
      </g>
    </g>
  </g>
</svg>
