<svg xmlns="http://www.w3.org/2000/svg" width="96" height="96" viewBox="0 0 96 96">
  <g id="Grupo_1188550" data-name="Grupo 1188550" transform="translate(-383.67 -8399.924)">
    <circle id="Elipse_13890" data-name="Elipse 13890" cx="48" cy="48" r="48" transform="translate(383.67 8399.924)" fill="#5a9ad7"/>
    <path id="Intersección_1" data-name="Intersección 1" d="M0,47.89A47.893,47.893,0,0,1,79.511,11.92L1.1,58.131A48,48,0,0,1,0,47.89Z" transform="translate(383.779 8400.031)" fill="#19538d"/>
    <path id="Trazado_1032916" data-name="Trazado 1032916" d="M40,0A40,40,0,1,1,0,40,40,40,0,0,1,40,0Z" transform="translate(391.67 8407.924)" fill="#e6f3ff"/>
    <g id="Grupo_1188343" data-name="Grupo 1188343" transform="translate(406.126 8422.38)">
      <rect id="Rectángulo_459838" data-name="Rectángulo 459838" width="52" height="52" transform="translate(-0.202 -0.456)" fill="none"/>
      <g id="_x35_4" transform="translate(1.262 1.263)">
        <path id="Trazado_1030416" data-name="Trazado 1030416" d="M1,15.4H47.563V7.791A6.8,6.8,0,0,0,40.773,1H7.791A6.8,6.8,0,0,0,1,7.791ZM21.6,6.277a1.98,1.98,0,0,1,2.115.427,1.921,1.921,0,0,1,0,2.736,1.9,1.9,0,0,1-2.736,0A1.94,1.94,0,0,1,21.6,6.277ZM13.223,6.7a1.933,1.933,0,0,1,2.736,0,1.934,1.934,0,1,1-2.736,0Zm-7.78,0a2.007,2.007,0,0,1,2.736,0,1.934,1.934,0,1,1-2.736,0Z" fill="#19538d"/>
        <path id="Trazado_1030417" data-name="Trazado 1030417" d="M1,31.917a6.8,6.8,0,0,0,6.791,6.791H40.773a6.8,6.8,0,0,0,6.791-6.791V10.42H1ZM30.432,20.509a1.617,1.617,0,0,1,0-2.328,1.651,1.651,0,0,1,2.328,0l2.93,2.93a1.651,1.651,0,0,1,0,2.328l-2.93,2.949a1.639,1.639,0,0,1-2.328,0,1.617,1.617,0,0,1,0-2.328L32.2,22.274Zm-9.216,8.847,3.861-13.794a1.65,1.65,0,0,1,3.182.873L24.4,30.248a1.652,1.652,0,0,1-3.182-.893Zm-8.323-6.965,2.93-2.93a1.646,1.646,0,0,1,2.328,2.328l-1.766,1.766,1.766,1.785a1.646,1.646,0,0,1-2.328,2.328l-2.93-2.949a1.617,1.617,0,0,1,0-2.328Z" transform="translate(0 8.856)" fill="#19538d"/>
      </g>
    </g>
  </g>
</svg>
