<svg xmlns="http://www.w3.org/2000/svg" width="98" height="98" viewBox="0 0 98 98">
  <g id="Grupo_1188528" data-name="Grupo 1188528" transform="translate(-185.739 -9253.217)">
    <g id="Grupo_1188415" data-name="Grupo 1188415" transform="translate(185.738 9253.217)">
      <circle id="Elipse_13890" data-name="Elipse 13890" cx="49" cy="49" r="49" transform="translate(98 98) rotate(180)" fill="#727997"/>
      <circle id="Elipse_13891" data-name="Elipse 13891" cx="40.698" cy="40.698" r="40.698" transform="translate(89.429 89.95) rotate(180)" fill="#fff"/>
      <g id="Grupo_1188343" data-name="Grupo 1188343" transform="translate(23.364 23.886)">
        <rect id="Rectángulo_459838" data-name="Rectángulo 459838" width="50.731" height="50.731" transform="translate(0 0)" fill="none"/>
        <g id="productivity" transform="translate(2.189 1.328)">
          <path id="Trazado_1030410" data-name="Trazado 1030410" d="M44.142,30.978V27.55a.732.732,0,0,0-.6-.721l-2.377-.423a11.523,11.523,0,0,0-1.487-3.542l1.393-1.992a.732.732,0,0,0-.082-.938l-2.4-2.4a.732.732,0,0,0-.937-.083l-1.985,1.386a12.02,12.02,0,0,0-3.534-1.471L31.7,14.98a.732.732,0,0,0-.722-.6l-3.433.006a.732.732,0,0,0-.72.6l-.43,2.372a12.264,12.264,0,0,0-3.512,1.487l-2.008-1.407a.732.732,0,0,0-.938.081l-2.4,2.4a.732.732,0,0,0-.087.932l1.394,2.039a12.293,12.293,0,0,0-1.471,3.5l-2.381.436a.732.732,0,0,0-.6.719l-.006,3.431a.732.732,0,0,0,.607.723l2.4.417a12.553,12.553,0,0,0,1.464,3.542l-1.386,1.984a.732.732,0,0,0,.083.937l2.4,2.4a.732.732,0,0,0,.938.082l2-1.4a11.9,11.9,0,0,0,3.542,1.487l.411,2.388a.732.732,0,0,0,.722.608h3.426a.732.732,0,0,0,.721-.6l.424-2.4a12.477,12.477,0,0,0,3.5-1.456l2.016,1.379a.732.732,0,0,0,.931-.087l2.405-2.405a.732.732,0,0,0,.082-.938l-1.393-1.992a12.264,12.264,0,0,0,1.471-3.519l2.389-.417a.732.732,0,0,0,.606-.722Zm-9.754,3.391a7.246,7.246,0,1,1-.008-10.232,7.231,7.231,0,0,1,.008,10.232Z" transform="translate(-5.749 -5.744)" fill="#12263f"/>
          <path id="Trazado_1030411" data-name="Trazado 1030411" d="M43.275,45.713,41.2,51.529a.453.453,0,0,1-.8.1L39.2,49.851c-.091.061-.19.121-.281.174-.076.053-.159.1-.243.152a23.569,23.569,0,0,1-32.247-32.5.461.461,0,0,1,.639-.144l3.135,2.009c-.137.212-.265.425-.394.637A19.38,19.38,0,0,0,36.858,46.37l-.6-.891a.453.453,0,0,1,.4-.706l4.052.217,2.162.118a.454.454,0,0,1,.4.605Z" transform="translate(-3.001 -6.489)" fill="#12263f"/>
          <path id="Trazado_1030412" data-name="Trazado 1030412" d="M48.164,38.971l-2.8-1.787a.43.43,0,0,1-.132-.59A19.377,19.377,0,0,0,18.268,10.19l.787,1.232a.453.453,0,0,1-.416.7l-6.163-.458a.453.453,0,0,1-.39-.613l2.189-5.771a.453.453,0,0,1,.807-.082l.931,1.466A23.564,23.564,0,0,1,48.777,38.833a.443.443,0,0,1-.613.139Z" transform="translate(-5.187 -2.994)" fill="#12263f"/>
          <path id="Trazado_1030413" data-name="Trazado 1030413" d="M44.142,30.978V27.55a.732.732,0,0,0-.6-.721l-2.377-.423a11.523,11.523,0,0,0-1.487-3.542l1.393-1.992a.732.732,0,0,0-.082-.938l-2.4-2.4a.732.732,0,0,0-.937-.083l-1.985,1.386a12.02,12.02,0,0,0-3.534-1.471L31.7,14.98a.732.732,0,0,0-.722-.6l-3.433.006a.732.732,0,0,0-.72.6l-.43,2.372a12.264,12.264,0,0,0-3.512,1.487l-2.008-1.407a.732.732,0,0,0-.938.081l-2.4,2.4a.732.732,0,0,0-.087.932l1.394,2.039a12.293,12.293,0,0,0-1.471,3.5l-2.381.436a.732.732,0,0,0-.6.719l-.006,3.431a.732.732,0,0,0,.607.723l2.4.417a12.553,12.553,0,0,0,1.464,3.542l-1.386,1.984a.732.732,0,0,0,.083.937l2.4,2.4a.732.732,0,0,0,.938.082l2-1.4a11.9,11.9,0,0,0,3.542,1.487l.411,2.388a.732.732,0,0,0,.722.608h3.426a.732.732,0,0,0,.721-.6l.424-2.4a12.477,12.477,0,0,0,3.5-1.456l2.016,1.379a.732.732,0,0,0,.931-.087l2.405-2.405a.732.732,0,0,0,.082-.938l-1.393-1.992a12.264,12.264,0,0,0,1.471-3.519l2.389-.417a.732.732,0,0,0,.606-.722Zm-9.754,3.391a7.246,7.246,0,1,1-.008-10.232,7.231,7.231,0,0,1,.008,10.232Z" transform="translate(-5.749 -5.744)" fill="#12263f"/>
          <path id="Trazado_1030414" data-name="Trazado 1030414" d="M43.272,45.71,41.2,51.526a.453.453,0,0,1-.8.1L39.2,49.85A23.566,23.566,0,0,1,6.433,17.676a.461.461,0,0,1,.64-.143l2.4,1.544a.894.894,0,0,1,.277,1.208A19.38,19.38,0,0,0,36.86,46.37l-.6-.889a.453.453,0,0,1,.4-.706l6.207.33a.453.453,0,0,1,.4.605Z" transform="translate(-3 -6.488)" fill="#12263f"/>
          <path id="Trazado_1030415" data-name="Trazado 1030415" d="M48.164,38.971l-2.8-1.787a.43.43,0,0,1-.132-.59A19.377,19.377,0,0,0,18.268,10.19l.787,1.232a.453.453,0,0,1-.416.7l-6.163-.458a.453.453,0,0,1-.39-.613l2.189-5.771a.453.453,0,0,1,.807-.082l.931,1.466A23.564,23.564,0,0,1,48.777,38.833a.443.443,0,0,1-.613.139Z" transform="translate(-5.187 -2.994)" fill="#12263f"/>
        </g>
      </g>
    </g>
  </g>
</svg>
