<svg xmlns="http://www.w3.org/2000/svg" width="98" height="98" viewBox="0 0 98 98">
  <g id="Grupo_1188598" data-name="Grupo 1188598" transform="translate(-185.739 -9253.217)">
    <g id="Grupo_1188415" data-name="Grupo 1188415" transform="translate(185.738 9253.217)">
      <circle id="Elipse_13890" data-name="Elipse 13890" cx="49" cy="49" r="49" transform="translate(98 98) rotate(180)" fill="#7a4f1e"/>
      <circle id="Elipse_13891" data-name="Elipse 13891" cx="40.698" cy="40.698" r="40.698" transform="translate(89.429 89.95) rotate(180)" fill="#fff"/>
      <g id="Icons" transform="translate(23.668 23.668)">
        <path id="Trazado_1031370" data-name="Trazado 1031370" d="M47.845,3.358H41.969V2.518A2.518,2.518,0,0,0,39.451,0H29.378A2.518,2.518,0,0,0,26.86,2.518v.839H23.5V2.518A2.518,2.518,0,0,0,20.984,0H10.912A2.518,2.518,0,0,0,8.394,2.518v.839H2.518A2.518,2.518,0,0,0,0,5.876v31.9A2.518,2.518,0,0,0,2.518,40.29H18.466V42.4L14.584,45.51a.839.839,0,0,0-.315.656v1.679a2.518,2.518,0,0,0,2.518,2.518H33.575a2.518,2.518,0,0,0,2.518-2.518V46.166a.839.839,0,0,0-.315-.656L31.9,42.4V40.29H47.845a2.518,2.518,0,0,0,2.518-2.518V5.876a2.518,2.518,0,0,0-2.518-2.518ZM10.912,30.218H20.984A2.518,2.518,0,0,0,23.5,27.7V8.394H26.86V27.7a2.518,2.518,0,0,0,2.518,2.518H39.451A2.518,2.518,0,0,0,41.969,27.7V8.394h3.358V31.9H5.036V8.394H8.394V27.7A2.518,2.518,0,0,0,10.912,30.218Zm17.627-27.7a.839.839,0,0,1,.839-.839H39.451a.839.839,0,0,1,.839.839h-.839a.839.839,0,1,0,0,1.679h.839V5.876h-.839a.839.839,0,1,0,0,1.679h.839V9.233h-.839a.839.839,0,1,0,0,1.679h.839v1.679h-.839a.839.839,0,1,0,0,1.679h.839v1.679h-.839a.839.839,0,1,0,0,1.679h.839v1.679h-.839a.839.839,0,1,0,0,1.679h.839v1.679h-.839a.839.839,0,1,0,0,1.679h.839v1.679h-.839a.839.839,0,1,0,0,1.679h.839a.839.839,0,0,1-.839.839H29.378a.839.839,0,0,1-.839-.839ZM26.86,5.036V6.715H23.5V5.036ZM10.073,2.518a.839.839,0,0,1,.839-.839H20.984a.839.839,0,0,1,.839.839h-.839a.839.839,0,0,0,0,1.679h.839V5.876h-.839a.839.839,0,0,0,0,1.679h.839V9.233h-.839a.839.839,0,0,0,0,1.679h.839v1.679h-.839a.839.839,0,0,0,0,1.679h.839v1.679h-.839a.839.839,0,0,0,0,1.679h.839v1.679h-.839a.839.839,0,0,0,0,1.679h.839v1.679h-.839a.839.839,0,0,0,0,1.679h.839v1.679h-.839a.839.839,0,0,0,0,1.679h.839a.839.839,0,0,1-.839.839H10.912a.839.839,0,0,1-.839-.839ZM32.861,45.326H17.5l2.1-1.679H30.762Zm.714,3.358H16.788a.839.839,0,0,1-.839-.839v-.839H34.415v.839A.839.839,0,0,1,33.575,48.684Zm-3.358-6.715H20.145V40.29H30.218Zm18.466-4.2a.839.839,0,0,1-.839.839H2.518a.839.839,0,0,1-.839-.839V5.876a.839.839,0,0,1,.839-.839H8.394V6.715H5.036A1.679,1.679,0,0,0,3.358,8.394V31.9a1.679,1.679,0,0,0,1.679,1.679h40.29A1.679,1.679,0,0,0,47.005,31.9V8.394a1.679,1.679,0,0,0-1.679-1.679H41.969V5.036h5.876a.839.839,0,0,1,.839.839Z" transform="translate(0 0)" fill="#12263f"/>
        <path id="Trazado_1031371" data-name="Trazado 1031371" d="M31.2,42H27.839a.839.839,0,1,0,0,1.679H31.2A.839.839,0,0,0,31.2,42Z" transform="translate(-4.337 -6.746)" fill="#12263f"/>
        <path id="Trazado_1031372" data-name="Trazado 1031372" d="M15.679,10.715H18.2a1.679,1.679,0,0,0,1.679-1.679V5.679A1.679,1.679,0,0,0,18.2,4H15.679A1.679,1.679,0,0,0,14,5.679V9.036A1.679,1.679,0,0,0,15.679,10.715Zm0-5.036H18.2V9.036H15.679Z" transform="translate(-2.249 -0.642)" fill="#12263f"/>
        <path id="Trazado_1031373" data-name="Trazado 1031373" d="M15.679,20.715H18.2a1.679,1.679,0,0,0,1.679-1.679V15.679A1.679,1.679,0,0,0,18.2,14H15.679A1.679,1.679,0,0,0,14,15.679v3.358A1.679,1.679,0,0,0,15.679,20.715Zm0-5.036H18.2v3.358H15.679Z" transform="translate(-2.249 -2.249)" fill="#12263f"/>
        <path id="Trazado_1031374" data-name="Trazado 1031374" d="M15.679,30.715H18.2a1.679,1.679,0,0,0,1.679-1.679V25.679A1.679,1.679,0,0,0,18.2,24H15.679A1.679,1.679,0,0,0,14,25.679v3.358A1.679,1.679,0,0,0,15.679,30.715Zm0-5.036H18.2v3.358H15.679Z" transform="translate(-2.249 -3.855)" fill="#12263f"/>
        <path id="Trazado_1031375" data-name="Trazado 1031375" d="M37.679,10.715H40.2a1.679,1.679,0,0,0,1.679-1.679V5.679A1.679,1.679,0,0,0,40.2,4H37.679A1.679,1.679,0,0,0,36,5.679V9.036A1.679,1.679,0,0,0,37.679,10.715Zm0-5.036H40.2V9.036H37.679Z" transform="translate(-5.782 -0.642)" fill="#12263f"/>
        <path id="Trazado_1031376" data-name="Trazado 1031376" d="M37.679,20.715H40.2a1.679,1.679,0,0,0,1.679-1.679V15.679A1.679,1.679,0,0,0,40.2,14H37.679A1.679,1.679,0,0,0,36,15.679v3.358A1.679,1.679,0,0,0,37.679,20.715Zm0-5.036H40.2v3.358H37.679Z" transform="translate(-5.782 -2.249)" fill="#12263f"/>
        <path id="Trazado_1031377" data-name="Trazado 1031377" d="M37.679,30.715H40.2a1.679,1.679,0,0,0,1.679-1.679V25.679A1.679,1.679,0,0,0,40.2,24H37.679A1.679,1.679,0,0,0,36,25.679v3.358A1.679,1.679,0,0,0,37.679,30.715Zm0-5.036H40.2v3.358H37.679Z" transform="translate(-5.782 -3.855)" fill="#12263f"/>
      </g>
    </g>
  </g>
</svg>
