<svg xmlns="http://www.w3.org/2000/svg" width="150" height="150" viewBox="0 0 150 150">
  <g id="Grupo_1188573" data-name="Grupo 1188573" transform="translate(-185.738 -9253.601)">
    <g id="Grupo_1188415" data-name="Grupo 1188415" transform="translate(185.738 9253.602)">
      <circle id="Elipse_13890" data-name="Elipse 13890" cx="75" cy="75" r="75" transform="translate(150 150) rotate(180)" fill="#7dbfff"/>
      <path id="Intersección_3" data-name="Intersección 3" d="M0,70.769,123.344,0a74.749,74.749,0,0,1-73.06,90.233A74.419,74.419,0,0,1,0,70.769Z" transform="translate(24.681 59.414)" fill="#19538d"/>
      <circle id="Elipse_13891" data-name="Elipse 13891" cx="62.637" cy="62.637" r="62.637" transform="translate(137.638 137.609) rotate(180)" fill="#dfefff"/>
      <path id="Intersección_2" data-name="Intersección 2" d="M0,62.677a62.641,62.641,0,0,1,124.648-8.925L24.091,112.08A62.59,62.59,0,0,1,0,62.677Z" transform="translate(12.364 12.333)" fill="#fff"/>
      <g id="Grupo_1188343" data-name="Grupo 1188343" transform="translate(35.959 35.932)">
        <rect id="Rectángulo_459838" data-name="Rectángulo 459838" width="78.078" height="78.078" transform="translate(0 0)" fill="none"/>
        <g id="Grupo_1188576" data-name="Grupo 1188576" transform="translate(1.352 -0.396)">
          <g id="precios" transform="translate(2.939 5.682)">
            <path id="Trazado_1030472" data-name="Trazado 1030472" d="M24.269,250.3a1.2,1.2,0,0,0,1.691,0l5.979-5.979-1.691-1.691-5.134,5.134L2.889,225.542l13.5-13.5L14.7,210.347.353,224.7a1.2,1.2,0,0,0,0,1.691Zm0,0" transform="translate(-0.002 -178.905)" fill="#12263f"/>
            <path id="Trazado_1030473" data-name="Trazado 1030473" d="M284.665,24.987,282.273,3.462A1.2,1.2,0,0,0,281.216,2.4L259.691.013a1.209,1.209,0,0,0-.977.343l-8.371,8.371,1.691,1.691L260,2.454l20.01,2.222,2.222,20-4.692,4.693-2.273-15.284a3.6,3.6,0,1,0-2.4.091l1.85,12.436-16.7-16.692a1.2,1.2,0,0,0-1.691,0L250.344,15.9l1.691,1.691,5.134-5.134L272.219,27.51l-2.742,2.742,1.691,1.691,3.587-3.587a1.16,1.16,0,0,0,.17-.255l.5,3.376-2.363,2.363,1.691,1.691,1.109-1.11.76,5.1a4.04,4.04,0,1,0,7.965-1.31l-2.2-10.312,1.933-1.932a1.2,1.2,0,0,0,.343-.977ZM273.91,9.573a1.2,1.2,0,1,1-1.2,1.2A1.2,1.2,0,0,1,273.91,9.573Zm8.339,29.121a1.648,1.648,0,1,1-3.255.5l-1.018-6.877,2.405-2.405Zm0,0" transform="translate(-212.923 -0.006)" fill="#12263f"/>
            <path id="Trazado_1030474" data-name="Trazado 1030474" d="M58.352,266.924l7.772-7.772,1.691,1.691-7.772,7.772Zm0,0" transform="translate(-49.629 -220.415)" fill="#12263f"/>
            <path id="Trazado_1030475" data-name="Trazado 1030475" d="M83.137,291.721l7.772-7.772L92.6,285.64l-7.773,7.772Zm0,0" transform="translate(-70.71 -241.505)" fill="#12263f"/>
            <path id="Trazado_1030476" data-name="Trazado 1030476" d="M107.941,334.888l4.544-4.544,1.692,1.691-4.544,4.544Zm0,0" transform="translate(-91.806 -280.965)" fill="#12263f"/>
            <path id="Trazado_1030477" data-name="Trazado 1030477" d="M132.742,367.174l3.23-3.229,1.691,1.691-3.229,3.23Zm0,0" transform="translate(-112.9 -309.544)" fill="#12263f"/>
            <path id="Trazado_1030478" data-name="Trazado 1030478" d="M157.543,396.743l2.392-2.391,1.691,1.691-2.391,2.391Zm0,0" transform="translate(-133.994 -335.406)" fill="#12263f"/>
            <path id="Trazado_1030479" data-name="Trazado 1030479" d="M179.118,222.484a19.01,19.01,0,0,0,11.312-3.738l8.624,8.624a3.732,3.732,0,1,0,5.278-5.278l-8.824-8.824-.153.153a19.114,19.114,0,1,0-16.238,9.063Zm23.524,1.3a1.341,1.341,0,1,1-1.9,1.9l-8.473-8.472a19.267,19.267,0,0,0,1.816-1.977Zm-23.524-37.173a16.742,16.742,0,1,1-16.742,16.742A16.742,16.742,0,0,1,179.118,186.609Zm0,0" transform="translate(-136.069 -156.713)" fill="#12263f"/>
            <path id="Trazado_1030480" data-name="Trazado 1030480" d="M206.35,244.7A14.35,14.35,0,1,0,192,230.354,14.35,14.35,0,0,0,206.35,244.7Zm0-26.308a11.958,11.958,0,1,1-11.958,11.958A11.958,11.958,0,0,1,206.35,218.4Zm0,0" transform="translate(-163.3 -183.717)" fill="#12263f"/>
            <path id="Trazado_1030481" data-name="Trazado 1030481" d="M261.979,262.354h-2.392a1.2,1.2,0,0,1-1.2-1.2H256a3.588,3.588,0,0,0,3.588,3.587v2.392h2.392v-2.392a3.588,3.588,0,0,0,3.587-3.587v-1.2a3.588,3.588,0,0,0-3.587-3.587h-2.392a1.2,1.2,0,0,1-1.2-1.2v-1.2a1.2,1.2,0,0,1,1.2-1.2h2.392a1.2,1.2,0,0,1,1.2,1.2h2.392a3.588,3.588,0,0,0-3.587-3.587V248h-2.392V250.4A3.588,3.588,0,0,0,256,253.983v1.2a3.588,3.588,0,0,0,3.588,3.587h2.392a1.2,1.2,0,0,1,1.2,1.2v1.2A1.2,1.2,0,0,1,261.979,262.354Zm0,0" transform="translate(-217.734 -210.934)" fill="#12263f"/>
            <path id="Trazado_1030482" data-name="Trazado 1030482" d="M5.979,28.7h7.988l8.058,5.755a1.192,1.192,0,0,0,.695.224,1.209,1.209,0,0,0,.649-.192,1.2,1.2,0,0,0,.523-1.244L22.984,28.7H29.9a5.987,5.987,0,0,0,5.979-5.979V5.983A5.986,5.986,0,0,0,29.9,0H5.979A5.986,5.986,0,0,0,0,5.983V22.725A5.987,5.987,0,0,0,5.979,28.7ZM2.392,5.983A3.588,3.588,0,0,1,5.979,2.4H29.9a3.588,3.588,0,0,1,3.587,3.587V22.725A3.588,3.588,0,0,1,29.9,26.312H21.525a1.2,1.2,0,0,0-1.172,1.435l.6,3.015-5.91-4.221a1.187,1.187,0,0,0-.691-.228H5.979a3.588,3.588,0,0,1-3.587-3.587Zm0,0" transform="translate(0 -0.004)" fill="#12263f"/>
            <path id="Trazado_1030483" data-name="Trazado 1030483" d="M33.2,57.941H58.308V55.55H34.392V52.361l2.392-3.188,2.631,3.507a1.272,1.272,0,0,0,.989.478,1.2,1.2,0,0,0,.963-.533l3.895-5.842,4.953,5.946a1.2,1.2,0,0,0,.92.429.906.906,0,0,0,.113,0,1.2,1.2,0,0,0,.932-.61l5.979-10.762-2.09-1.16-5.132,9.237-4.861-5.836a1.175,1.175,0,0,0-.984-.435,1.2,1.2,0,0,0-.93.531l-3.846,5.771L37.74,46.461a1.238,1.238,0,0,0-1.913,0l-1.435,1.913V40H32V56.746a1.2,1.2,0,0,0,1.2,1.2Zm0,0" transform="translate(-27.217 -34.025)" fill="#12263f"/>
          </g>
        </g>
      </g>
    </g>
  </g>
</svg>
