<svg xmlns="http://www.w3.org/2000/svg" width="98" height="98" viewBox="0 0 98 98">
  <g id="Grupo_1188527" data-name="Grupo 1188527" transform="translate(-185.739 -9253.217)">
    <g id="Grupo_1188415" data-name="Grupo 1188415" transform="translate(185.738 9253.217)">
      <path id="Trazado_1032951" data-name="Trazado 1032951" d="M49,0A49,49,0,1,1,0,49,49,49,0,0,1,49,0Z" transform="translate(98 98) rotate(180)" fill="#1e535a"/>
      <circle id="Elipse_13891" data-name="Elipse 13891" cx="40.698" cy="40.698" r="40.698" transform="translate(89.429 89.95) rotate(180)" fill="#fff"/>
      <g id="Grupo_1188343" data-name="Grupo 1188343" transform="translate(23.364 23.886)">
        <rect id="Rectángulo_459838" data-name="Rectángulo 459838" width="50.731" height="50.731" transform="translate(0 0)" fill="none"/>
        <g id="Grupo_1188531" data-name="Grupo 1188531" transform="translate(1.259 1.412)">
          <rect id="Rectángulo_456311" data-name="Rectángulo 456311" width="48.165" height="48.513" transform="translate(0.359 -0.257)" fill="none"/>
          <g id="robot" transform="translate(1.11 1.246)">
            <path id="Trazado_1030407" data-name="Trazado 1030407" d="M92.954,404.61H67.723a4.849,4.849,0,0,0,0,9.7h25.23a4.849,4.849,0,1,0,0-9.7Zm-23.669,6.2H66.575V408.1h2.709Zm6.2,0H72.779V408.1h2.709Zm6.2,0H78.984V408.1h2.709Zm6.2,0H85.188V408.1H87.9Zm6.2,0H91.392V408.1H94.1Z" transform="translate(-57.218 -368.068)" fill="#12263f"/>
            <path id="Trazado_1030408" data-name="Trazado 1030408" d="M142.124,20.622a2.46,2.46,0,0,0,.85.15h15.879a2.46,2.46,0,0,0,.85-.15,2.5,2.5,0,0,0,1.644-2.344V7.362a2.5,2.5,0,0,0-2.494-2.494h-6.585V0h-2.709V4.869h-6.585a2.5,2.5,0,0,0-2.494,2.494V18.279a2.5,2.5,0,0,0,1.644,2.344ZM154.606,8.364h2.709v2.709h-2.709Zm-7.209,6.2h7.032v2.709H147.4Zm-2.886-6.2h2.709v2.709h-2.709Z" transform="translate(-127.792 0)" fill="#12263f"/>
            <path id="Trazado_1030409" data-name="Trazado 1030409" d="M43.532,168v2.709a1.355,1.355,0,0,1-2.709,0V168H38.113v2.709a4.071,4.071,0,0,0,2.709,3.831v1.693a3.872,3.872,0,0,1-3.868,3.868c-1.69,0-4.74,0-6.4,0v-3.793H15.686V180.1h-6.4a3.872,3.872,0,0,1-3.868-3.868v-1.693a4.071,4.071,0,0,0,2.709-3.831V168H5.419v2.709a1.355,1.355,0,0,1-2.709,0V168H0v2.709a4.071,4.071,0,0,0,2.709,3.831v1.693a6.585,6.585,0,0,0,6.578,6.578c1.687,0,4.741,0,6.4,0v3.848H30.555v-3.848h6.4a6.585,6.585,0,0,0,6.578-6.578v-1.693a4.071,4.071,0,0,0,2.709-3.831V168Z" transform="translate(0 -152.827)" fill="#12263f"/>
          </g>
        </g>
      </g>
    </g>
  </g>
</svg>
