<svg xmlns="http://www.w3.org/2000/svg" xmlns:xlink="http://www.w3.org/1999/xlink" width="129" height="123.611" viewBox="0 0 129 123.611">
  <defs>
    <clipPath id="clip-path">
      <rect id="Rectángulo_454807" data-name="Rectángulo 454807" width="128.943" height="123.126" fill="#d5f4f8"/>
    </clipPath>
    <clipPath id="clip-path-2">
      <path id="Trazado_1032942" data-name="Trazado 1032942" d="M0,0H129V123.126H0Z" fill="#4dd0e1"/>
    </clipPath>
    <clipPath id="clip-path-3">
      <rect id="Rectángulo_459850" data-name="Rectángulo 459850" width="160" height="197" rx="20" transform="translate(-0.244 -0.107)" fill="#dfefff"/>
    </clipPath>
    <linearGradient id="linear-gradient" x1="0.437" y1="0.27" x2="0.445" y2="0.492" gradientUnits="objectBoundingBox">
      <stop offset="0" stop-color="#8cc6fe"/>
      <stop offset="1" stop-color="#7dbfff"/>
    </linearGradient>
    <radialGradient id="radial-gradient" cx="0.5" cy="0.5" r="0.5" gradientTransform="matrix(1, 0, 0, -1, 0, 1)" gradientUnits="objectBoundingBox">
      <stop offset="0" stop-color="#fff"/>
      <stop offset="0.803" stop-color="#fff" stop-opacity="0.129"/>
      <stop offset="1" stop-color="#fff" stop-opacity="0"/>
    </radialGradient>
    <clipPath id="clip-path-4">
      <rect id="Rectángulo_459849" data-name="Rectángulo 459849" width="139.716" height="76.778" fill="#5a9ad7"/>
    </clipPath>
    <clipPath id="clip-path-5">
      <rect id="Rectángulo_459851" data-name="Rectángulo 459851" width="160" height="197" rx="20" transform="translate(-0.244 -0.107)" fill="#7dbfff"/>
    </clipPath>
  </defs>
  <g id="Grupo_1188565" data-name="Grupo 1188565" transform="translate(-394.059 -4713)">
    <g id="Grupo_1188401" data-name="Grupo 1188401" transform="translate(394.115 4713)">
      <g id="Grupo_1185582" data-name="Grupo 1185582" transform="translate(0 0)">
        <g id="Grupo_1184048" data-name="Grupo 1184048" transform="translate(34.562 30.668)">
          <g id="Grupo_1180053" data-name="Grupo 1180053" transform="translate(0)">
            <rect id="Rectángulo_401104" data-name="Rectángulo 401104" width="61.058" height="61.794" transform="translate(0)" fill="none"/>
          </g>
        </g>
      </g>
    </g>
    <g id="Enmascarar_grupo_1187778" data-name="Enmascarar grupo 1187778" transform="translate(394.059 4713.485)" clip-path="url(#clip-path-2)">
      <g id="Grupo_1188406" data-name="Grupo 1188406" transform="translate(-7.756 -3.878)">
        <g id="Grupo_1188405" data-name="Grupo 1188405" transform="translate(0 0)" clip-path="url(#clip-path-3)">
          <g id="Trazado_1032935" data-name="Trazado 1032935" transform="translate(-6.867 -8.699)" fill="#7dbfff">
            <path d="M 170.6738891601562 215.797119140625 L 0.5000077486038208 215.797119140625 L 0.5000077486038208 0.5000039935112 L 170.6738891601562 0.5000039935112 L 170.6738891601562 215.797119140625 Z" stroke="none"/>
            <path d="M 1.000015258789062 1 L 1.000015258789062 215.297119140625 L 170.1738891601562 215.297119140625 L 170.1738891601562 1 L 1.000015258789062 1 M 1.52587890625e-05 0 L 171.1738891601562 0 L 171.1738891601562 216.297119140625 L 1.52587890625e-05 216.297119140625 L 1.52587890625e-05 0 Z" stroke="none" fill="#707070"/>
          </g>
          <path id="Trazado_1032936" data-name="Trazado 1032936" d="M169.189,217.352l-42.707-24.659-42.7,24.671L126.5,242.021Zm89.364,0L215.838,192.69,173.15,217.356l42.714,24.663Zm89.382-.024-42.7-24.662-42.716,24.683,42.71,24.658Zm178.7-.007-42.712-24.66L441.26,217.313l42.7,24.67Zm89.364-.01-42.711-24.659L530.6,217.318l42.713,24.66Zm-178.705,0-42.689-24.666L351.89,217.334l42.7,24.661Zm268.079-.01-42.719-24.662-42.688,24.666,42.717,24.662Zm-580.87-25.754L81.787,166.886l-42.7,24.673,42.721,24.663Zm89.348-.008-42.709-24.659-42.687,24.666,42.708,24.659Zm268.091-.027-42.706-24.657L396.59,191.5l42.69,24.665Zm-178.691.007-42.709-24.665L217.82,191.544l42.716,24.661Zm268.057-.016L528.6,166.848l-42.689,24.666,42.713,24.66Zm89.364-.01-42.71-24.657-42.689,24.666,42.712,24.659Zm-268.047.007-42.693-24.669L307.2,191.525l42.7,24.663ZM750.04,191.5l-42.718-24.664L664.634,191.5l42.717,24.663ZM169.169,165.744l-42.72-24.665L83.762,165.745l42.719,24.665Zm268.089-.029-42.711-24.659-42.634,24.635,42.695,24.668Zm-178.7,0-42.7-24.662-42.73,24.691,42.71,24.658Zm268.055-.008-42.708-24.657L441.22,165.713l42.707,24.657Zm89.364-.009-42.71-24.658L530.58,165.7l42.712,24.659Zm89.356-.007L662.63,141.031,619.941,165.7l42.708,24.658Zm-357.381,0-42.7-24.672-42.738,24.7,42.707,24.666ZM124.474,139.938,81.76,115.276,39.071,139.942l42.716,24.663Zm268.093-.025-42.715-24.662-42.618,24.627,42.7,24.671Zm89.361-.01-42.712-24.659L396.528,139.91,439.24,164.57Zm-268.047.006-42.714-24.669-42.739,24.695L171.15,164.6Zm357.4-.018-42.709-24.657L485.889,139.9,528.6,164.558Zm89.359-.007-42.707-24.657-42.689,24.666,42.709,24.658Zm89.367-.013L707.3,115.217,664.6,139.89l42.705,24.657Zm-446.736,0L260.58,115.206l-42.748,24.7,42.7,24.664Zm44.6-25.769-42.711-24.66-42.6,24.617,42.7,24.669Zm89.366,0L394.522,89.44l-42.688,24.666,42.715,24.662Zm-268.046,0L126.483,89.435l-42.746,24.7,42.716,24.661Zm357.407-.007-42.714-24.66L441.2,114.1l42.713,24.659Zm89.353-.012L573.243,89.423,530.556,114.09l42.708,24.658Zm89.365-.011L662.609,89.414l-42.7,24.672,42.707,24.658Zm-446.709,0L215.9,89.39,173.146,114.1l42.713,24.669Zm44.58-25.758L260.465,63.641,217.878,88.249l42.706,24.674ZM392.54,88.3l-42.713-24.66L307.139,88.3l42.712,24.66Zm89.365-.006L439.189,63.629,396.5,88.3l42.716,24.661Zm-357.4,0L81.794,63.626,39.042,88.33l42.721,24.664Zm446.759-.013L528.555,63.621,485.866,88.288l42.713,24.66Zm89.356-.014L617.912,63.61,575.218,88.281l42.708,24.658Zm89.358-.008L707.278,63.6,664.588,88.27l42.706,24.657Zm-536.054-.01-42.694-24.67L128.465,88.29l42.705,24.666ZM258.488,62.5,215.779,37.84l-42.573,24.6,42.7,24.669Zm89.367,0L305.132,37.831,262.444,62.5l42.723,24.666Zm89.353-.011-42.715-24.66L351.806,62.492,394.52,87.152Zm89.367-.007L483.86,37.816,441.171,62.484l42.715,24.662Zm89.363-.008L573.223,37.81,530.53,62.479,573.243,87.14Zm89.352-.013L662.581,37.8,619.893,62.465,662.6,87.124Zm-536.033-.019L126.552,37.762,83.777,62.48,126.49,87.15ZM213.8,36.7,171.079,12.032,128.524,36.623,171.23,61.3Zm89.353-.01L260.446,12.031,217.757,36.7l42.711,24.659Zm89.368,0L349.8,12.022,307.11,36.688l42.724,24.666Zm89.358-.014L439.167,12.012,396.477,36.679,439.191,61.34Zm89.362-.006L528.527,12.006l-42.69,24.668,42.714,24.662Zm89.366-.009L617.894,12,575.205,36.664l42.714,24.662Zm89.357-.017-42.71-24.659-42.7,24.673,42.709,24.659Zm-625.383-.017-42.7-24.672L39.1,36.673l42.71,24.668ZM65.137,0,81.875,9.671,98.611,0h3.956L83.853,10.813l42.7,24.671,42.555-24.59L150.239,0h3.956l16.891,9.752L187.963,0H191.9L173.056,10.89,215.78,35.556,258.468,10.89,239.607,0h3.955l16.884,9.748L277.315,0h3.954L262.424,10.889l42.709,24.657L347.82,10.88,328.976,0h3.972L349.8,9.732,366.648,0H370.6l-18.82,10.875,42.723,24.666L437.2,10.874,418.362,0h3.955l16.856,9.732L456.016,0h3.938L441.143,10.87l42.714,24.662,42.691-24.667L507.729,0H511.7l16.83,9.717L545.349,0H549.3L530.512,10.859l42.714,24.662,42.689-24.667L597.116,0h3.955l16.82,9.712L634.7,0h3.958L619.871,10.855l42.713,24.662,42.7-24.673L686.5,0h3.955l16.8,9.7L724.052,0h3.938L709.231,10.84,751.939,35.5l25.329-14.636v2.3L753.928,36.649l23.34,13.477V52.4L751.954,37.79l-42.7,24.673,42.7,24.656,25.313-14.628v2.3L753.945,88.267l23.324,13.467v2.281l-25.3-14.607-42.688,24.666,42.7,24.656,25.284-14.611v2.3l-23.3,13.461,23.3,13.449v2.281L752,141.02l-42.7,24.675,42.718,24.664,25.256-14.593v2.28L753.987,191.5l23.281,13.442v2.279l-25.255-14.581L709.327,217.3l42.706,24.656,25.236-14.585v2.3L754.02,243.109l23.249,13.423v2.279l-25.222-14.562-25.68,14.841h-3.972L750.059,243.1l-42.708-24.656-42.688,24.667,27.675,15.978h-3.972l-25.688-14.831-25.663,14.83H633.06L660.7,243.117l-42.716-24.662L575.3,243.122l27.658,15.968h-3.972l-25.671-14.822-25.648,14.82h-3.956l27.624-15.963-42.713-24.661-42.681,24.662,27.63,15.964H509.6l-25.642-14.816-25.639,14.815h-3.956l27.616-15.959-42.7-24.671-42.711,24.679,27.616,15.95h-3.937L394.6,244.276l-25.635,14.812h-3.956l27.612-15.955-42.7-24.66-42.708,24.679,27.6,15.936H330.84L305.226,244.3l-25.6,14.791h-3.972l27.582-15.937-42.708-24.658-42.689,24.666,27.585,15.928h-3.956L215.866,244.3,190.277,259.09h-3.956l27.567-15.929L171.174,218.5l-42.692,24.669,27.579,15.922h-3.954l-25.6-14.78L100.926,259.09H96.954l27.566-15.929L81.811,218.5,39.117,243.176l27.558,15.912H62.721L37.142,244.316,11.574,259.09H7.619l27.545-15.916L0,222.867v-2.279l37.139,21.445,42.7-24.67L37.114,192.7,0,214.144v-2.28l35.137-20.3L0,171.274V169L37.114,190.42l42.7-24.673L37.1,141.082,0,162.516v-2.279l35.123-20.295L0,119.664v-2.28L37.1,138.8l42.687-24.666L37.066,89.472,0,110.889V108.61L35.094,88.332,0,68.071V65.79l37.068,21.4,42.752-24.7L37.111,37.82,0,59.262V56.982l35.134-20.3L0,16.389v-2.3L37.121,35.533,79.906,10.809,61.2,0Z" transform="translate(-284.222 -22.194)" fill="url(#linear-gradient)"/>
          <g id="Grupo_1188402" data-name="Grupo 1188402" transform="translate(1.532 24.155) rotate(-60)">
            <circle id="Elipse_13897" data-name="Elipse 13897" cx="4.316" cy="4.316" r="4.316" transform="translate(13.51 7.506)" fill="url(#radial-gradient)"/>
            <circle id="Elipse_13898" data-name="Elipse 13898" cx="3.002" cy="3.002" r="3.002" transform="translate(6.38 3.753)" fill="url(#radial-gradient)"/>
            <circle id="Elipse_13899" data-name="Elipse 13899" cx="2.252" cy="2.252" r="2.252" transform="translate(0 0)" fill="url(#radial-gradient)"/>
          </g>
          <g id="Grupo_1188404" data-name="Grupo 1188404" transform="translate(50.249 -43.375)">
            <g id="Grupo_1188403" data-name="Grupo 1188403" transform="translate(0 0)" clip-path="url(#clip-path-4)">
              <path id="Trazado_1032937" data-name="Trazado 1032937" d="M78.869,129.016,6.688,86.841a5.976,5.976,0,0,0-5.376-.251L.938,86.8c-1.382.79-1.217,2.18.37,3.107l72.183,42.175a5.977,5.977,0,0,0,5.376.251l.374-.213c1.382-.79,1.217-2.179-.37-3.107" transform="translate(0 -56.509)" fill="#5a9ad7"/>
              <path id="Trazado_1032938" data-name="Trazado 1032938" d="M119.879,125.268a5.976,5.976,0,0,0,5.376.251l.374-.213c1.382-.79,1.217-2.18-.37-3.107L90.4,101.827a5.978,5.978,0,0,0-5.376-.251l-.373.213c-1.383.79-1.217,2.179.37,3.107Z" transform="translate(-54.961 -66.349)" fill="#5a9ad7"/>
              <path id="Trazado_1032939" data-name="Trazado 1032939" d="M209.746,137.609,144.08,99.28a5.978,5.978,0,0,0-5.376-.251l-.373.213c-1.383.79-1.217,2.18.37,3.107l65.665,38.329a5.978,5.978,0,0,0,5.376.251l.374-.213c1.382-.79,1.217-2.179-.37-3.107" transform="translate(-90.21 -64.676)" fill="#5a9ad7"/>
              <path id="Trazado_1032940" data-name="Trazado 1032940" d="M156.042,72.507,33.544.776A5.978,5.978,0,0,0,28.167.525l-.374.213c-1.382.79-1.217,2.179.37,3.107l122.5,71.731a5.978,5.978,0,0,0,5.376.251l.374-.213c1.382-.79,1.217-2.179-.37-3.107" transform="translate(-17.634 0)" fill="#5a9ad7"/>
            </g>
          </g>
          <path id="Trazado_1032941" data-name="Trazado 1032941" d="M154.75,64.554,139.986,51.168,1.605,132.071l5.677,9.388,132.7,6.3Z" transform="translate(-1.605 -12.096)" fill="#66aaec"/>
        </g>
      </g>
    </g>
    <g id="Grupo_1188407" data-name="Grupo 1188407" transform="translate(410.54 4727.058)">
      <path id="Intersección_1" data-name="Intersección 1" d="M0,52.441A52.444,52.444,0,0,1,87.067,13.054L1.2,63.655A52.589,52.589,0,0,1,0,52.441Z" transform="translate(95.935 95.938) rotate(180)" fill="#19538d"/>
      <circle id="Elipse_13891" data-name="Elipse 13891" cx="43.766" cy="43.766" r="43.766" transform="translate(87.532 87.533) rotate(180)" fill="#dfefff"/>
      <path id="Intersección_2" data-name="Intersección 2" d="M0,43.769a43.77,43.77,0,0,1,87.094-6.233L16.832,78.269A43.7,43.7,0,0,1,0,43.769Z" transform="translate(0)" fill="#fff"/>
    </g>
    <g id="Grupo_1188408" data-name="Grupo 1188408" transform="translate(427.042 4743.563)">
      <rect id="Rectángulo_459838" data-name="Rectángulo 459838" width="54.524" height="54.524" transform="translate(0 0)" fill="none"/>
      <g id="Grupo_1188572" data-name="Grupo 1188572" transform="translate(-411.346 -8429.211)">
        <g id="Grupo_1099776" data-name="Grupo 1099776" transform="translate(412.387 8428.781)">
          <g id="Grupo_1099618" data-name="Grupo 1099618" transform="translate(0 0)">
            <rect id="Rectángulo_401104-2" data-name="Rectángulo 401104" width="54.975" height="55.638" transform="translate(0)" fill="none"/>
          </g>
          <g id="OUTLINE" transform="translate(0 1.263)">
            <path id="Trazado_1030532" data-name="Trazado 1030532" d="M60.1,41.579a3.528,3.528,0,0,0,3.528-3.528V35.4h2.646a2.649,2.649,0,0,0,2.646-2.646V19.528A3.53,3.53,0,0,0,65.4,16H35.405a3.532,3.532,0,0,0-3.528,3.528v1.764H18.646A2.649,2.649,0,0,0,16,23.938V66.277a2.649,2.649,0,0,0,2.646,2.646H50.4a2.649,2.649,0,0,0,2.646-2.646V63.631H51.282v2.646a.883.883,0,0,1-.882.882H18.646a.883.883,0,0,1-.882-.882V23.938a.883.883,0,0,1,.882-.882H51.757a3.505,3.505,0,0,0-.475,1.764V44.4a8.758,8.758,0,0,0-2.646,1.009V29.23H20.41V57.456h25a8.805,8.805,0,0,0,11.61,3.459l7.2,7.2a2.753,2.753,0,0,0,3.894-3.894l-7.2-7.2a8.814,8.814,0,0,0-7.87-12.8V41.579Zm5.213-23.815h.066a1.772,1.772,0,0,1,1.26.518,1.748,1.748,0,0,1,.517,1.246V32.759a.883.883,0,0,1-.882.882H63.631V19.449a1.687,1.687,0,0,1,1.685-1.685ZM53.047,39.815V24.82a1.764,1.764,0,1,1,3.528,0V38.051a3.505,3.505,0,0,0,.475,1.764ZM31,30.995H46.872v2.646H31ZM46.872,35.4v1.764H39.816V35.4ZM29.231,55.692H22.174V35.4h7.056Zm0-22.051H22.174V30.995h7.056Zm8.821,22.051H31V38.933h7.056Zm0-18.523H31V35.4h7.056Zm6.58,18.523H39.816V38.933h7.056v7.822A8.808,8.808,0,0,0,44.632,55.692ZM66.87,65.47a.989.989,0,1,1-1.4,1.4l-6.93-6.93a8.9,8.9,0,0,0,1.4-1.4ZM60.1,53.046a7.056,7.056,0,1,1-7.056-7.056A7.056,7.056,0,0,1,60.1,53.046ZM33.641,21.292V19.528a1.766,1.766,0,0,1,1.764-1.764h26.9a3.427,3.427,0,0,0-.441,1.685v18.6a1.764,1.764,0,0,1-3.528,0V24.82a3.528,3.528,0,0,0-3.528-3.528Z" transform="translate(-16 -16)" fill="#12263f"/>
            <path id="Trazado_1030533" data-name="Trazado 1030533" d="M128,104h12.349v1.764H128Z" transform="translate(-115.651 -94.297)" fill="#12263f"/>
            <path id="Trazado_1030534" data-name="Trazado 1030534" d="M176,336h1.764v1.764H176Z" transform="translate(-158.359 -300.718)" fill="#12263f"/>
            <path id="Trazado_1030535" data-name="Trazado 1030535" d="M256,240h1.764v1.764H256Z" transform="translate(-229.538 -215.302)" fill="#12263f"/>
            <path id="Trazado_1030536" data-name="Trazado 1030536" d="M256,272h1.764v1.764H256Z" transform="translate(-229.538 -243.774)" fill="#12263f"/>
            <path id="Trazado_1030537" data-name="Trazado 1030537" d="M176,304h1.764v1.764H176Z" transform="translate(-158.359 -272.246)" fill="#12263f"/>
            <path id="Trazado_1030538" data-name="Trazado 1030538" d="M322.646,320v2.646H320v1.764h2.646v2.646h1.764V324.41h2.646v-1.764H324.41V320Z" transform="translate(-286.482 -286.482)" fill="#12263f"/>
            <path id="Trazado_1030539" data-name="Trazado 1030539" d="M88.338,416H69.547l-3.969,2.646,3.969,2.646h18.79a2.646,2.646,0,0,0,0-5.292ZM70.7,419.528h-.615l-1.323-.882,1.323-.882H70.7Zm17.641,0H72.46v-1.764H88.338a.882.882,0,0,1,0,1.764Z" transform="translate(-60.112 -371.897)" fill="#12263f"/>
            <path id="Trazado_1030540" data-name="Trazado 1030540" d="M88,240h3.528v1.764H88Z" transform="translate(-80.061 -215.302)" fill="#12263f"/>
            <path id="Trazado_1030541" data-name="Trazado 1030541" d="M88,272h3.528v1.764H88Z" transform="translate(-80.061 -243.774)" fill="#12263f"/>
            <path id="Trazado_1030542" data-name="Trazado 1030542" d="M88,304h3.528v1.764H88Z" transform="translate(-80.061 -272.246)" fill="#12263f"/>
            <path id="Trazado_1030543" data-name="Trazado 1030543" d="M88,336h3.528v1.764H88Z" transform="translate(-80.061 -300.718)" fill="#12263f"/>
          </g>
        </g>
      </g>
    </g>
  </g>
</svg>
