<svg xmlns="http://www.w3.org/2000/svg" width="160" height="160" viewBox="0 0 160 160">
  <g id="Grupo_1188594" data-name="Grupo 1188594" transform="translate(-186 -9253.863)">
    <g id="Grupo_1188415" data-name="Grupo 1188415" transform="translate(186 9253.862)">
      <circle id="Elipse_13890" data-name="Elipse 13890" cx="80" cy="80" r="80" transform="translate(160 160.001) rotate(180)" fill="#7dbfff"/>
      <path id="Intersección_3" data-name="Intersección 3" d="M0,75.841,132.185,0a80.107,80.107,0,0,1-78.3,96.7A79.753,79.753,0,0,1,0,75.841Z" transform="translate(26.074 63.298)" fill="#19538d"/>
      <ellipse id="Elipse_13891" data-name="Elipse 13891" cx="67.127" cy="67.127" rx="67.127" ry="67.127" transform="translate(147.128 147.099) rotate(180)" fill="#dfefff"/>
      <path id="Intersección_2" data-name="Intersección 2" d="M0,67.169A67.131,67.131,0,0,1,133.583,57.6L25.818,120.113A67.077,67.077,0,0,1,0,67.169Z" transform="translate(12.874 12.842)" fill="#fff"/>
      <g id="Grupo_1188343" data-name="Grupo 1188343" transform="translate(38.161 38.133)">
        <rect id="Rectángulo_459838" data-name="Rectángulo 459838" width="83.674" height="83.674" transform="translate(0 0)" fill="none"/>
        <g id="User_Interface" data-name="User Interface" transform="translate(1.087 1.817)">
          <path id="Trazado_1030739" data-name="Trazado 1030739" d="M77.684,68.77H76.411V22.923a5.094,5.094,0,0,0-5.094-5.094H64.949V1.274A1.274,1.274,0,0,0,63.676,0H17.829a1.274,1.274,0,0,0-1.274,1.274V17.829H10.188a5.094,5.094,0,0,0-5.094,5.094V68.77H3.821A3.821,3.821,0,0,0,0,72.59v2.547A6.368,6.368,0,0,0,6.368,81.5h68.77A6.368,6.368,0,0,0,81.5,75.137V72.59A3.821,3.821,0,0,0,77.684,68.77ZM12.735,63.676V25.47h3.821V63.676ZM19.1,10.188H62.4V63.676H19.1ZM64.949,25.47H68.77V63.676H64.949ZM19.1,2.547H62.4V7.641H19.1ZM7.641,22.923a2.547,2.547,0,0,1,2.547-2.547h6.368v2.547H11.462A1.274,1.274,0,0,0,10.188,24.2V64.949a1.274,1.274,0,0,0,1.274,1.274H70.043a1.274,1.274,0,0,0,1.274-1.274V24.2a1.274,1.274,0,0,0-1.274-1.274H64.949V20.376h6.368a2.547,2.547,0,0,1,2.547,2.547V68.77H7.641ZM51.106,71.317l-.853,1.274h-19L30.4,71.317Zm27.852,3.821a3.821,3.821,0,0,1-3.821,3.821H6.368a3.821,3.821,0,0,1-3.821-3.821V72.59a1.274,1.274,0,0,1,1.274-1.274H27.33l2.178,3.247c.535.815-.522.573,21.433.573.879,0,.942-.382,3.235-3.821H77.684a1.274,1.274,0,0,1,1.274,1.274Z" transform="translate(0)" fill="#12263f"/>
          <path id="Trazado_1030740" data-name="Trazado 1030740" d="M18.274,3a1.274,1.274,0,1,0,1.274,1.274A1.274,1.274,0,0,0,18.274,3Z" transform="translate(4.65 0.821)" fill="#12263f"/>
          <path id="Trazado_1030741" data-name="Trazado 1030741" d="M22.274,3a1.274,1.274,0,1,0,1.274,1.274A1.274,1.274,0,0,0,22.274,3Z" transform="translate(5.744 0.821)" fill="#12263f"/>
          <path id="Trazado_1030742" data-name="Trazado 1030742" d="M26.274,3a1.274,1.274,0,1,0,1.274,1.274A1.274,1.274,0,0,0,26.274,3Z" transform="translate(6.838 0.821)" fill="#12263f"/>
          <path id="Trazado_1030743" data-name="Trazado 1030743" d="M52.385,10H19.274A1.274,1.274,0,0,0,18,11.274V24.009a1.274,1.274,0,0,0,1.274,1.274H52.385a1.274,1.274,0,0,0,1.274-1.274V11.274A1.274,1.274,0,0,0,52.385,10ZM51.111,22.735H20.547V12.547H51.111Z" transform="translate(4.923 2.735)" fill="#12263f"/>
          <path id="Trazado_1030744" data-name="Trazado 1030744" d="M33.094,34.188A5.094,5.094,0,1,0,28,29.094,5.094,5.094,0,0,0,33.094,34.188Zm0-7.641a2.547,2.547,0,1,1-2.547,2.547A2.547,2.547,0,0,1,33.094,26.547Z" transform="translate(7.658 6.564)" fill="#12263f"/>
          <path id="Trazado_1030745" data-name="Trazado 1030745" d="M43.094,24a5.094,5.094,0,1,0,5.094,5.094A5.094,5.094,0,0,0,43.094,24Zm0,7.641a2.547,2.547,0,1,1,2.547-2.547A2.547,2.547,0,0,1,43.094,31.641Z" transform="translate(10.393 6.564)" fill="#12263f"/>
          <path id="Trazado_1030746" data-name="Trazado 1030746" d="M23.094,34.188A5.094,5.094,0,1,0,18,29.094,5.094,5.094,0,0,0,23.094,34.188Zm0-7.641a2.547,2.547,0,1,1-2.547,2.547A2.547,2.547,0,0,1,23.094,26.547Z" transform="translate(4.923 6.564)" fill="#12263f"/>
          <path id="Trazado_1030747" data-name="Trazado 1030747" d="M19.274,36.547h7.641a1.274,1.274,0,1,0,0-2.547H19.274a1.274,1.274,0,0,0,0,2.547Z" transform="translate(4.923 9.299)" fill="#12263f"/>
          <path id="Trazado_1030748" data-name="Trazado 1030748" d="M19.274,40.547h7.641a1.274,1.274,0,1,0,0-2.547H19.274a1.274,1.274,0,0,0,0,2.547Z" transform="translate(4.923 10.393)" fill="#12263f"/>
          <path id="Trazado_1030749" data-name="Trazado 1030749" d="M29.274,36.547h7.641a1.274,1.274,0,0,0,0-2.547H29.274a1.274,1.274,0,1,0,0,2.547Z" transform="translate(7.658 9.299)" fill="#12263f"/>
          <path id="Trazado_1030750" data-name="Trazado 1030750" d="M29.274,40.547h7.641a1.274,1.274,0,0,0,0-2.547H29.274a1.274,1.274,0,1,0,0,2.547Z" transform="translate(7.658 10.393)" fill="#12263f"/>
          <path id="Trazado_1030751" data-name="Trazado 1030751" d="M46.915,34H39.274a1.274,1.274,0,0,0,0,2.547h7.641a1.274,1.274,0,0,0,0-2.547Z" transform="translate(10.393 9.299)" fill="#12263f"/>
          <path id="Trazado_1030752" data-name="Trazado 1030752" d="M46.915,38H39.274a1.274,1.274,0,1,0,0,2.547h7.641a1.274,1.274,0,0,0,0-2.547Z" transform="translate(10.393 10.393)" fill="#12263f"/>
          <path id="Trazado_1030753" data-name="Trazado 1030753" d="M52.385,42H19.274A1.274,1.274,0,0,0,18,43.274v5.094a1.274,1.274,0,0,0,1.274,1.274H52.385a1.273,1.273,0,0,0,1.274-1.274V43.274A1.274,1.274,0,0,0,52.385,42Zm-1.274,5.094H20.547V44.547H51.111Z" transform="translate(4.923 11.487)" fill="#12263f"/>
        </g>
      </g>
    </g>
  </g>
</svg>
