<svg xmlns="http://www.w3.org/2000/svg" xmlns:xlink="http://www.w3.org/1999/xlink" width="150" height="150" viewBox="0 0 150 150">
  <defs>
    <clipPath id="clip-path">
      <path id="path2013" d="M0-682.665H79.3v79.3H0Z" transform="translate(0 682.665)" fill="#1e535a"/>
    </clipPath>
  </defs>
  <g id="Grupo_1188510" data-name="Grupo 1188510" transform="translate(-185.738 -9253.601)">
    <g id="Grupo_1188415" data-name="Grupo 1188415" transform="translate(185.738 9253.602)">
      <circle id="Elipse_13890" data-name="Elipse 13890" cx="75" cy="75" r="75" transform="translate(150 150) rotate(180)" fill="#fbb03f"/>
      <path id="Intersección_3" data-name="Intersección 3" d="M0,70.769,123.344,0a74.749,74.749,0,0,1-73.06,90.233A74.419,74.419,0,0,1,0,70.769Z" transform="translate(24.681 59.414)" fill="#7a4f1e"/>
      <circle id="Elipse_13891" data-name="Elipse 13891" cx="62.637" cy="62.637" r="62.637" transform="translate(137.638 137.608) rotate(180)" fill="#ffebbe"/>
      <path id="Intersección_2" data-name="Intersección 2" d="M0,62.677a62.641,62.641,0,0,1,124.648-8.925L24.091,112.08A62.59,62.59,0,0,1,0,62.677Z" transform="translate(12.364 12.333)" fill="#fff"/>
      <g id="Grupo_1188343" data-name="Grupo 1188343" transform="translate(35.959 35.932)">
        <rect id="Rectángulo_459838" data-name="Rectángulo 459838" width="78.078" height="78.078" transform="translate(0 0)" fill="none"/>
        <g id="Grupo_1188512" data-name="Grupo 1188512" transform="translate(-2.99 -2.932)">
          <g id="g1983" transform="translate(3.548 4.435)">
            <g id="g1985" transform="translate(11.67 31.039)">
              <path id="path1987" d="M-113.212,4.762a1.873,1.873,0,0,1-1.328-.55,1.879,1.879,0,0,1,0-2.657L-100.2-12.783a1.879,1.879,0,0,1,2.657,0,1.879,1.879,0,0,1,0,2.657L-111.883,4.211A1.873,1.873,0,0,1-113.212,4.762Z" transform="translate(115.09 13.333)" fill="#1e535a"/>
            </g>
            <g id="g1989" transform="translate(11.67 39.434)">
              <path id="path1991" d="M-5.126-3.633h-6.331a1.879,1.879,0,0,1-1.878-1.879v-5.942a1.879,1.879,0,0,1,1.879-1.879,1.879,1.879,0,0,1,1.879,1.879v4.064h4.453A1.879,1.879,0,0,1-3.247-5.511,1.879,1.879,0,0,1-5.126-3.633Z" transform="translate(13.336 13.333)" fill="#1e535a"/>
            </g>
            <g id="g1993" transform="translate(33.564 61.664)">
              <path id="path1995" d="M-2.691-10.236h-9.094a1.549,1.549,0,0,1-1.549-1.549,1.549,1.549,0,0,1,1.549-1.549h9.094a1.549,1.549,0,0,1,1.549,1.549A1.549,1.549,0,0,1-2.691-10.236Z" transform="translate(13.333 13.333)" fill="#1e535a"/>
            </g>
            <g id="g1997" transform="translate(38.967 57.972)">
              <path id="path1999" d="M-13.5-64.678a1.544,1.544,0,0,1-1.1-.454,1.549,1.549,0,0,1,0-2.19l2.369-2.369-2.6-2.6a1.549,1.549,0,0,1,0-2.19,1.549,1.549,0,0,1,2.19,0l3.69,3.691a1.549,1.549,0,0,1,0,2.19l-3.464,3.464A1.544,1.544,0,0,1-13.5-64.678Z" transform="translate(15.279 74.93)" fill="#1e535a"/>
            </g>
            <g id="g2001" transform="translate(62.231 32.186)">
              <path id="path2003" d="M-11.531-101.2a1.8,1.8,0,0,1-1.8-1.8v-14.3a1.8,1.8,0,0,1,1.8-1.8,1.8,1.8,0,0,1,1.8,1.8V-103A1.8,1.8,0,0,1-11.531-101.2Z" transform="translate(13.333 119.105)" fill="#1e535a"/>
            </g>
            <g id="g2005" transform="translate(57.935 32.186)">
              <path id="path2007" d="M-73.126-35.257a1.8,1.8,0,0,1-1.275-.528,1.8,1.8,0,0,1,0-2.55l4.3-4.3a1.8,1.8,0,0,1,2.549,0l4.032,4.033a1.8,1.8,0,0,1,0,2.55,1.8,1.8,0,0,1-2.549,0l-2.757-2.758-3.021,3.021A1.8,1.8,0,0,1-73.126-35.257Z" transform="translate(74.929 43.159)" fill="#1e535a"/>
            </g>
            <g id="g2009" transform="translate(0 0)">
              <g id="g2011" clip-path="url(#clip-path)">
                <g id="g2017" transform="translate(58.928 13.398)">
                  <path id="path2019" d="M-9.315-26.68a1.838,1.838,0,0,1-1.309-.542l-2.256-2.256a1.549,1.549,0,0,1,0-2.19,1.549,1.549,0,0,1,2.19,0l1.374,1.374,3.844-3.844a1.549,1.549,0,0,1,2.19,0,1.549,1.549,0,0,1,0,2.19l-4.726,4.725a1.836,1.836,0,0,1-1.307.542Z" transform="translate(13.333 34.592)" fill="#1e535a"/>
                </g>
                <g id="g2021" transform="translate(0 52.368)">
                  <path id="path2023" d="M-188.03-148.789h-19.68a5.039,5.039,0,0,1-5.033-5.033v-11.242a5.039,5.039,0,0,1,5.033-5.033h19.68A5.039,5.039,0,0,1-183-165.064v11.242A5.039,5.039,0,0,1-188.03-148.789ZM-207.709-167a1.937,1.937,0,0,0-1.935,1.935v11.242a1.938,1.938,0,0,0,1.935,1.935h19.68a1.938,1.938,0,0,0,1.935-1.935v-11.242A1.937,1.937,0,0,0-188.03-167Z" transform="translate(212.742 170.097)" fill="#1e535a"/>
                </g>
                <g id="g2025" transform="translate(49.554 52.213)">
                  <path id="path2027" d="M-188.03-152.325h-19.68a5.039,5.039,0,0,1-5.033-5.033v-11.706a5.039,5.039,0,0,1,5.033-5.033h19.68A5.039,5.039,0,0,1-183-169.064v11.706A5.039,5.039,0,0,1-188.03-152.325ZM-207.709-171a1.937,1.937,0,0,0-1.935,1.935v11.706a1.938,1.938,0,0,0,1.935,1.935h19.68a1.938,1.938,0,0,0,1.935-1.935v-11.706A1.937,1.937,0,0,0-188.03-171Z" transform="translate(212.742 174.097)" fill="#1e535a"/>
                </g>
                <g id="g2029" transform="translate(52.447 5.315)">
                  <path id="path2031" d="M-88.721-164.109a11.674,11.674,0,0,1-11.66-11.661,11.674,11.674,0,0,1,11.66-11.66A11.674,11.674,0,0,1-77.06-175.77,11.674,11.674,0,0,1-88.721-164.109Zm0-20.223a8.572,8.572,0,0,0-8.563,8.563,8.573,8.573,0,0,0,8.563,8.563,8.573,8.573,0,0,0,8.563-8.563A8.573,8.573,0,0,0-88.721-184.333Z" transform="translate(100.381 187.43)" fill="#1e535a"/>
                </g>
                <g id="g2033" transform="translate(0 6.354)">
                  <path id="path2035" d="M-100.064,8.439h-35.441a5.039,5.039,0,0,1-5.033-5.033V-8.3a5.039,5.039,0,0,1,5.033-5.033h11.292a1.549,1.549,0,0,1,1.549,1.549,1.549,1.549,0,0,1-1.549,1.549h-11.292A1.937,1.937,0,0,0-137.441-8.3V3.406a1.937,1.937,0,0,0,1.935,1.935h35.441a1.937,1.937,0,0,0,1.935-1.935V-8.3a1.937,1.937,0,0,0-1.935-1.935h-10.524a1.549,1.549,0,0,1-1.549-1.549,1.549,1.549,0,0,1,1.549-1.549h10.524A5.039,5.039,0,0,1-95.032-8.3V3.406A5.039,5.039,0,0,1-100.064,8.439Z" transform="translate(140.538 13.333)" fill="#1e535a"/>
                </g>
                <g id="g2037" transform="translate(23.217 7.903)">
                  <path id="path2039" fill="#1e535a"/>
                </g>
                <g id="g2041" transform="translate(8.457 15.691)">
                  <path id="path2043" d="M12.928-10.236H-11.784a1.549,1.549,0,0,1-1.549-1.549,1.549,1.549,0,0,1,1.549-1.549H12.928a1.549,1.549,0,0,1,1.549,1.549A1.549,1.549,0,0,1,12.928-10.236Z" transform="translate(13.333 13.333)" fill="#1e535a"/>
                </g>
                <g id="g2045" transform="translate(7.831 61.55)">
                  <path id="path2047" d="M-1.1-10.236H-11.784a1.549,1.549,0,0,1-1.549-1.549,1.549,1.549,0,0,1,1.549-1.549H-1.1A1.549,1.549,0,0,1,.45-11.784,1.549,1.549,0,0,1-1.1-10.236Z" transform="translate(13.333 13.333)" fill="#1e535a"/>
                </g>
                <g id="g2049" transform="translate(57.535 61.55)">
                  <path id="path2051" d="M-1.1-10.236H-11.784a1.549,1.549,0,0,1-1.549-1.549,1.549,1.549,0,0,1,1.549-1.549H-1.1A1.549,1.549,0,0,1,.45-11.784,1.549,1.549,0,0,1-1.1-10.236Z" transform="translate(13.333 13.333)" fill="#1e535a"/>
                </g>
              </g>
            </g>
          </g>
        </g>
      </g>
    </g>
  </g>
</svg>
