<svg xmlns="http://www.w3.org/2000/svg" xmlns:xlink="http://www.w3.org/1999/xlink" width="96" height="96" viewBox="0 0 96 96">
  <defs>
    <clipPath id="clip-path">
      <rect id="Rectángulo_459964" data-name="Rectángulo 459964" width="47.15" height="47.092" fill="#19538d"/>
    </clipPath>
  </defs>
  <g id="Grupo_1188552" data-name="Grupo 1188552" transform="translate(-383.67 -8399.924)">
    <circle id="Elipse_13890" data-name="Elipse 13890" cx="48" cy="48" r="48" transform="translate(383.67 8399.924)" fill="#5a9ad7"/>
    <path id="Intersección_1" data-name="Intersección 1" d="M0,47.89A47.893,47.893,0,0,1,79.511,11.92L1.1,58.131A48,48,0,0,1,0,47.89Z" transform="translate(383.779 8400.031)" fill="#19538d"/>
    <path id="Trazado_1032916" data-name="Trazado 1032916" d="M40,0A40,40,0,1,1,0,40,40,40,0,0,1,40,0Z" transform="translate(391.67 8407.924)" fill="#e6f3ff"/>
    <g id="Grupo_1188343" data-name="Grupo 1188343" transform="translate(406.126 8422.38)">
      <rect id="Rectángulo_459838" data-name="Rectángulo 459838" width="52" height="52" transform="translate(-0.202 -0.456)" fill="none"/>
      <g id="Grupo_1188555" data-name="Grupo 1188555" transform="translate(1.485 1.997)" clip-path="url(#clip-path)">
        <path id="Trazado_1033039" data-name="Trazado 1033039" d="M37.9,28.755l-28.56.008c-4.879,0-8.71-4.094-9.247-8.6A9.8,9.8,0,0,1,7.208,9.516a9.929,9.929,0,0,1,5.657-8.6C16.623-.9,20.556.171,23.679,2.408c3.189-1.369,6.9-1.948,10.512-.27,2.855,1.325,4.945,4.319,6.1,7.283C44.6,11.326,47.736,15.2,47.082,20.2c-.572,4.372-4.261,8.555-9.182,8.556" transform="translate(-0.018 0.001)" fill="#19538d"/>
        <path id="Trazado_1033040" data-name="Trazado 1033040" d="M132.107,219.807a5.049,5.049,0,1,1-2.729,0l.032-5.535a21.971,21.971,0,0,1,2.679-.024Z" transform="translate(-107.182 -182.657)" fill="#19538d"/>
        <path id="Trazado_1033041" data-name="Trazado 1033041" d="M17.524,208.279c.035,1.4.044,2.764.005,4.214a1.3,1.3,0,0,1-1.324,1.174l-6.278.013a5.056,5.056,0,1,1,0-2.785l4.913,0,.022-2.573c.831-.1,1.6-.024,2.665-.045" transform="translate(0 -176.707)" fill="#19538d"/>
        <path id="Trazado_1033042" data-name="Trazado 1033042" d="M200.811,208.306l2.666-.021.046,2.608,4.891.032a5.082,5.082,0,1,1,.018,2.758l-6.283-.018a1.283,1.283,0,0,1-1.319-1.171Z" transform="translate(-171.225 -176.708)" fill="#19538d"/>
      </g>
    </g>
  </g>
</svg>
