<svg xmlns="http://www.w3.org/2000/svg" width="98" height="98" viewBox="0 0 98 98">
  <g id="Grupo_1188600" data-name="Grupo 1188600" transform="translate(-185.739 -9253.217)">
    <g id="Grupo_1188415" data-name="Grupo 1188415" transform="translate(185.738 9253.217)">
      <circle id="Elipse_13890" data-name="Elipse 13890" cx="49" cy="49" r="49" transform="translate(98 98) rotate(180)" fill="#727997"/>
      <circle id="Elipse_13891" data-name="Elipse 13891" cx="40.698" cy="40.698" r="40.698" transform="translate(89.429 89.95) rotate(180)" fill="#fff"/>
      <g id="Grupo_1188601" data-name="Grupo 1188601" transform="translate(24.021 24.021)">
        <g id="Grupo_1185247" data-name="Grupo 1185247" transform="translate(0)">
          <rect id="Rectángulo_458976" data-name="Rectángulo 458976" width="26.861" height="3.663" rx="1.831" transform="translate(16.211 18.314)" fill="#12263f"/>
          <g id="Grupo_1185493" data-name="Grupo 1185493">
            <g id="Icons">
              <path id="Trazado_1031386" data-name="Trazado 1031386" d="M47.71,0H2.511A2.511,2.511,0,0,0,0,2.511V34.318a2.511,2.511,0,0,0,2.511,2.511h15.9v2.109l-3.8,3.042a.837.837,0,0,0-.389.708v1.674a2.511,2.511,0,0,0,2.511,2.511h5.943a4.193,4.193,0,0,0,4.1,3.348H46.036a4.19,4.19,0,0,0,4.185-4.185V2.511A2.511,2.511,0,0,0,47.71,0ZM1.674,34.318V2.511a.837.837,0,0,1,.837-.837h45.2a.837.837,0,0,1,.837.837V25.969a4.147,4.147,0,0,0-1.674-.774V5.022A1.674,1.674,0,0,0,45.2,3.348H5.022A1.674,1.674,0,0,0,3.348,5.022V28.459a1.674,1.674,0,0,0,1.674,1.674H22.6v5.022H2.511A.837.837,0,0,1,1.674,34.318ZM22.6,36.829V38.5H20.088V36.829Zm-3.054,3.348H22.6v1.674H17.457ZM15.9,44.362v-.837h6.7V45.2H16.74A.837.837,0,0,1,15.9,44.362Zm6.78-15.9H5.022V5.022H45.2V25.111H26.785a4.193,4.193,0,0,0-4.1,3.348ZM48.547,46.036a2.511,2.511,0,0,1-2.511,2.511H26.785a2.511,2.511,0,0,1-2.511-2.511V29.3a2.511,2.511,0,0,1,2.511-2.511H46.036A2.511,2.511,0,0,1,48.547,29.3Z" transform="translate(0)" fill="#12263f"/>
              <path id="Trazado_1031387" data-name="Trazado 1031387" d="M8.837,11.348a.837.837,0,0,0,.592-.245L11.1,9.429A.837.837,0,1,0,9.919,8.245L8.245,9.919a.837.837,0,0,0,.592,1.429Z" transform="translate(-1.304 -1.304)" fill="#12263f"/>
              <path id="Trazado_1031388" data-name="Trazado 1031388" d="M14.1,8.245,8.245,14.1a.837.837,0,1,0,1.184,1.184l5.859-5.859A.837.837,0,1,0,14.1,8.245Z" transform="translate(-1.304 -1.304)" fill="#12263f"/>
              <path id="Trazado_1031389" data-name="Trazado 1031389" d="M35.185,34H32.674A1.674,1.674,0,0,0,31,35.674V50.74a1.674,1.674,0,0,0,1.674,1.674h2.511a1.674,1.674,0,0,0,1.674-1.674V35.674A1.674,1.674,0,0,0,35.185,34Zm0,1.674v8.37H32.674v-8.37Zm0,10.044v1.674H32.674V45.718ZM32.674,50.74V49.066h2.511V50.74Z" transform="translate(-5.052 -5.541)" fill="#12263f"/>
              <path id="Trazado_1031390" data-name="Trazado 1031390" d="M44.185,34H41.674A1.674,1.674,0,0,0,40,35.674V50.74a1.674,1.674,0,0,0,1.674,1.674h2.511a1.674,1.674,0,0,0,1.674-1.674V35.674A1.674,1.674,0,0,0,44.185,34Zm0,1.674v2.511H41.674V35.674Zm0,4.185v1.674H41.674V39.859ZM41.674,50.74V43.207h2.511V50.74Z" transform="translate(-6.519 -5.541)" fill="#12263f"/>
              <path id="Trazado_1031391" data-name="Trazado 1031391" d="M53.185,34H50.674A1.674,1.674,0,0,0,49,35.674V50.74a1.674,1.674,0,0,0,1.674,1.674h2.511a1.674,1.674,0,0,0,1.674-1.674V35.674A1.674,1.674,0,0,0,53.185,34Zm0,1.674v8.37H50.674v-8.37Zm0,10.044v1.674H50.674V45.718ZM50.674,50.74V49.066h2.511V50.74Z" transform="translate(-7.986 -5.541)" fill="#12263f"/>
            </g>
            <rect id="Rectángulo_458977" data-name="Rectángulo 458977" width="26.861" height="3.663" rx="1.831" transform="translate(16.211 18.314)" fill="#12263f"/>
            <rect id="Rectángulo_458978" data-name="Rectángulo 458978" width="26.861" height="3.663" rx="1.831" transform="translate(16.211 9.768)" fill="#12263f"/>
          </g>
        </g>
      </g>
    </g>
  </g>
</svg>
