<svg xmlns="http://www.w3.org/2000/svg" xmlns:xlink="http://www.w3.org/1999/xlink" width="1328" height="556.928" viewBox="0 0 1328 556.928">
  <defs>
    <clipPath id="clip-path">
      <rect id="Rectángulo_377901" data-name="Rectángulo 377901" width="1328" height="556.928" fill="#7dbfff"/>
    </clipPath>
    <clipPath id="clip-path-2">
      <rect id="Rectángulo_459821" data-name="Rectángulo 459821" width="1400.548" height="614.239" fill="#9ecfff"/>
    </clipPath>
    <clipPath id="clip-path-3">
      <rect id="Rectángulo_459822" data-name="Rectángulo 459822" width="419.755" height="230.667" fill="#5a9ad7"/>
    </clipPath>
    <radialGradient id="radial-gradient" cx="0.5" cy="0.5" r="0.5" gradientUnits="objectBoundingBox">
      <stop offset="0" stop-color="#fff"/>
      <stop offset="0.803" stop-color="#fff" stop-opacity="0.129"/>
      <stop offset="1" stop-color="#fff" stop-opacity="0"/>
    </radialGradient>
  </defs>
  <g id="Grupo_1188578" data-name="Grupo 1188578" transform="translate(1328 586) rotate(180)">
    <g id="Grupo_154360" data-name="Grupo 154360" transform="translate(0 29.072)" clip-path="url(#clip-path)">
      <rect id="Rectángulo_378306" data-name="Rectángulo 378306" width="1398.301" height="619.457" transform="translate(1360.14 590.384) rotate(180)" fill="none"/>
      <g id="Grupo_1188294" data-name="Grupo 1188294" transform="translate(1357.25 596.854) rotate(180)">
        <g id="Grupo_1188293" data-name="Grupo 1188293" transform="translate(0 0)">
          <g id="Grupo_1188292" data-name="Grupo 1188292" clip-path="url(#clip-path-2)">
            <path id="Trazado_1032918" data-name="Trazado 1032918" d="M0,0H1400.548V614.239H0Z" transform="translate(0 0)" fill="#9ecfff"/>
          </g>
        </g>
      </g>
      <path id="Trazado_1032878" data-name="Trazado 1032878" d="M1437.378,513.776l100.95-58.29L1639.252,513.8,1538.3,572.088Zm-211.239,0,100.969-58.3,100.906,58.306-100.967,58.3Zm-211.28-.058,100.943-58.3,100.972,58.344-100.958,58.286ZM592.44,513.7,693.4,455.41l100.854,58.274L693.325,572ZM381.2,513.679l100.96-58.289L583.068,513.7,482.1,571.989Zm422.423.01,100.909-58.306,100.977,58.351L904.582,572.027Zm-633.683-.025,100.978-58.3,100.907,58.305-100.975,58.3ZM1543,452.788l100.978-58.3,100.933,58.323-100.984,58.3Zm-211.2-.019,100.955-58.288,100.9,58.306-100.952,58.288ZM698.088,452.7,799.036,394.42l100.813,58.257-100.912,58.3Zm422.39.017,100.956-58.3,100.989,58.355-100.973,58.294Zm-633.632-.037L587.807,394.4,688.716,452.7,587.751,510.993Zm-211.238-.024,100.957-58.285,100.908,58.306L376.511,510.97Zm633.608.016,100.918-58.314,101,58.363-100.938,58.3Zm-844.852-.013,100.976-58.3,100.907,58.305-100.974,58.3Zm1373.06-60.878,100.981-58.3,100.9,58.306-100.979,58.3Zm-633.707-.068,100.959-58.29,100.778,58.233L904.533,449.97Zm422.4-.008,100.945-58.3,101.006,58.364-100.958,58.287Zm-633.628-.02L693.447,333.4l100.9,58.308L693.4,450Zm-211.239-.022,100.958-58.286,100.909,58.306L482.16,449.976Zm-211.221-.016,100.948-58.284,100.908,58.306L270.937,449.961Zm844.776.01,100.929-58.319,101.024,58.375-100.951,58.306Zm528.263-60.876,100.969-58.3,100.906,58.3-100.972,58.3Zm-633.718-.06,100.969-58.3,100.74,58.212-100.933,58.317ZM698.125,330.7l100.963-58.29L899.994,330.72,799.033,389.01Zm633.609.013L1432.7,272.405l101.025,58.373-100.985,58.3ZM486.9,330.673,587.86,272.39l100.9,58.308L587.809,388.982Zm-211.226-.015L376.63,272.373,477.538,330.68,376.583,388.966Zm-211.244-.03,100.948-58.277,100.934,58.322L165.37,388.957Zm1055.992.008,100.92-58.314,101.047,58.388-100.94,58.3ZM1015.01,269.724l100.961-58.291,100.7,58.19L1115.75,327.934Zm-211.243-.011,100.971-58.295,100.906,58.306L904.672,328.019Zm633.607-.005,100.952-58.3,101.043,58.383L1538.4,328.083Zm-844.839-.015L693.5,211.4l100.906,58.307L693.442,328Zm-211.212-.028,100.953-58.287,100.9,58.308L482.228,327.971Zm-211.241-.026,100.951-58.281,100.929,58.319-100.95,58.286Zm1055.93-.01L1326.956,211.3l101.069,58.4L1327.06,328.016ZM1120.634,208.74l100.986-58.306L1322.286,208.6l-100.948,58.325Zm-211.213-.027,100.964-58.292,100.906,58.307L1010.329,267.02ZM698.18,208.7l100.972-58.294,100.906,58.307L799.085,267.007Zm844.813.01L1643.962,150.4l101.056,58.4-100.984,58.3Zm-1056.047-.03L587.91,150.387,688.818,208.7,587.854,266.987Zm-211.218-.034,100.96-58.285,100.919,58.318L376.654,266.966ZM64.5,208.628l100.942-58.28,100.91,58.306L165.406,266.937Zm1267.123-.025,100.921-58.315L1533.641,208.7,1432.694,267Zm-105.333-60.866,100.956-58.29,100.634,58.146-100.925,58.311Zm-211.246-.007,100.989-58.305,100.906,58.306-100.988,58.305ZM803.833,147.7,904.8,89.412l100.906,58.307-100.966,58.29Zm-211.244-.018L693.559,89.39,794.466,147.7,693.5,205.994Zm-211.236-.019L482.324,89.376l100.917,58.313L482.276,205.982Zm-211.21-.031L271.1,89.346,372,147.655,271.049,205.943Zm1267.072-.045,100.948-58.328,101.112,58.428L1538.31,206.005ZM1331.922,86.75,1432.91,28.442,1533.5,86.57,1432.552,144.9Zm-211.212-.025L1221.665,28.44l100.909,58.305-100.959,58.289Zm-211.247,0,100.991-58.3L1111.36,86.722l-100.99,58.3Zm-211.225-.033L799.205,28.393,900.114,86.7,799.146,145ZM487,86.675,587.976,28.381l100.911,58.31-100.968,58.3Zm-211.242-.021,100.967-58.3L477.638,86.667,376.671,144.962ZM64.54,86.613,165.5,28.324l100.93,58.323-100.955,58.29Zm1478.279-.041,100.933-58.321,101.139,58.437L1643.934,145ZM1683.334,0l-39.565,22.86L1604.209,0h-9.351L1639.1,25.56,1538.159,83.878,1437.568,25.753,1482.171,0h-9.35l-39.926,23.052L1393,0h-9.309l44.545,25.742-100.99,58.306L1226.339,25.742,1270.924,0h-9.349l-39.91,23.042L1181.789,0h-9.345l44.546,25.74L1116.035,84.024,1015.129,25.717,1059.673,0h-9.389l-39.847,23.006L970.624,0h-9.35l44.486,25.706L904.773,84.012,803.863,25.7,848.384,0h-9.35L799.191,23,759.377,0h-9.309l44.465,25.694L693.566,83.989,592.653,25.681,637.137,0h-9.392L587.963,22.969,548.21,0h-9.35l44.423,25.67-100.967,58.3L381.408,25.657,425.846,0H416.5l-39.76,22.957L337.007,0h-9.356l44.4,25.659-100.965,58.3L170.158,25.633,214.555,0h-9.35L165.487,22.934,125.794,0h-9.309l44.343,25.624L59.874,83.917,0,49.32v5.432L55.173,86.63,0,118.487v5.387L59.839,89.327l100.935,58.322L59.835,205.931,0,171.354v5.434l55.133,31.857L0,240.478v5.392l59.8-34.527,100.907,58.305L59.765,327.93,0,293.393v5.432l55.066,31.819L0,362.435v5.392l59.735-34.486,100.941,58.326L59.7,449.968,0,415.474v5.389l55.033,31.8L0,484.436v5.388l59.7-34.466,100.9,58.307L59.653,571.947,0,537.471V542.9L54.955,574.66,0,606.39v5.387l59.621-34.421,60.7,35.082h9.389L64.318,574.643,165.27,516.362l100.906,58.307-65.419,37.768h9.389l60.722-35.057,60.663,35.054h9.351L275.542,574.68l100.973-58.3,100.908,58.306-65.378,37.746h9.389l60.68-35.036,60.627,35.032h9.351l-65.3-37.734,100.964-58.293,100.889,58.3-65.311,37.735h9.389l60.613-35.023,60.606,35.02h9.351L698.017,574.71l100.927-58.317L899.9,574.729l-65.278,37.7h9.305l60.627-35.013,60.6,35.013H974.5l-65.268-37.714,100.933-58.291,100.952,58.336-65.248,37.671h9.394l60.546-34.959,60.5,34.962h9.388l-65.2-37.673,100.954-58.287,100.908,58.306-65.206,37.65h9.351l60.528-34.949,60.487,34.952h9.35l-65.162-37.653,100.966-58.3L1533.6,574.8l-65.19,37.636h9.347L1538.27,577.5l60.468,34.941h9.389l-65.161-37.652L1643.921,516.5l100.921,58.317L1679.7,612.432h9.347l60.463-34.917,60.437,34.922h9.351l-65.112-37.622,83.12-48v-5.388l-87.788,50.692L1648.594,513.8l100.982-58.3,87.725,50.689V500.8l-83.057-47.994,83.057-47.952V399.47l-87.724,50.643L1648.644,391.79l100.969-58.3,87.689,50.666v-5.388L1754.28,330.8l83.018-47.934v-5.389L1749.614,328.1l-100.9-58.3,100.98-58.3,87.612,50.626v-5.387L1754.351,208.8l82.951-47.893v-5.392L1749.681,206.1l-101.058-58.4L1749.584,89.4l87.719,50.683v-5.388L1754.252,86.7l83.05-47.963V33.315L1749.56,83.992,1648.425,25.551,1692.645,0Z" transform="translate(1667.316 599.05) rotate(180)" fill="#7dbfff"/>
      <g id="Grupo_1188296" data-name="Grupo 1188296" transform="translate(1418.896 125.104) rotate(180)">
        <g id="Grupo_1188295" data-name="Grupo 1188295" clip-path="url(#clip-path-3)">
          <path id="Trazado_1032879" data-name="Trazado 1032879" d="M236.949,129.039,20.092,2.332c-4.768-2.786-12-3.123-16.153-.753l-1.123.64C-1.337,4.591-.839,8.766,3.928,11.552L220.791,138.259c4.768,2.786,12,3.123,16.153.754l1.122-.64c4.153-2.373,3.655-6.547-1.112-9.334" transform="translate(0 88.796)" fill="#5a9ad7"/>
          <path id="Trazado_1032880" data-name="Trazado 1032880" d="M108.673,72.755c4.768,2.786,12,3.123,16.153.753l1.123-.64c4.153-2.373,3.655-6.548-1.112-9.334L20.091,2.331c-4.768-2.786-12-3.122-16.153-.753l-1.121.641C-1.337,4.592-.839,8.766,3.929,11.553Z" transform="translate(86.364 104.258)" fill="#5a9ad7"/>
          <path id="Trazado_1032881" data-name="Trazado 1032881" d="M217.374,117.484,20.091,2.332c-4.768-2.786-12-3.123-16.153-.754l-1.122.64C-1.337,4.59-.839,8.766,3.929,11.551L201.211,126.705c4.768,2.786,12,3.123,16.153.754l1.123-.641c4.153-2.373,3.655-6.547-1.112-9.334" transform="translate(141.753 101.63)" fill="#5a9ad7"/>
          <path id="Trazado_1032882" data-name="Trazado 1032882" d="M388.118,217.836,20.092,2.331c-4.768-2.786-12-3.122-16.153-.753l-1.123.64C-1.337,4.591-.839,8.765,3.928,11.552l368.026,215.5c4.768,2.786,12,3.123,16.153.754l1.122-.64c4.153-2.373,3.655-6.547-1.112-9.334" transform="translate(89.613 38.174)" fill="#5a9ad7"/>
        </g>
      </g>
      <g id="Grupo_1188298" data-name="Grupo 1188298" transform="translate(498.768 723.533) rotate(180)">
        <g id="Grupo_1188297" data-name="Grupo 1188297" transform="translate(0 0)" clip-path="url(#clip-path-3)">
          <path id="Trazado_1032883" data-name="Trazado 1032883" d="M236.949,129.039,20.092,2.332c-4.768-2.786-12-3.123-16.153-.753l-1.123.64C-1.337,4.591-.839,8.766,3.928,11.552L220.791,138.259c4.768,2.786,12,3.123,16.153.754l1.122-.64c4.153-2.373,3.655-6.547-1.112-9.334" transform="translate(0 88.796)" fill="#5a9ad7"/>
          <path id="Trazado_1032884" data-name="Trazado 1032884" d="M108.673,72.755c4.768,2.786,12,3.123,16.153.753l1.123-.64c4.153-2.373,3.655-6.548-1.112-9.334L20.091,2.331c-4.768-2.786-12-3.122-16.153-.753l-1.121.641C-1.337,4.592-.839,8.766,3.929,11.553Z" transform="translate(86.364 104.258)" fill="#5a9ad7"/>
          <path id="Trazado_1032885" data-name="Trazado 1032885" d="M217.374,117.484,20.091,2.332c-4.768-2.786-12-3.123-16.153-.754l-1.122.64C-1.337,4.59-.839,8.766,3.929,11.551L201.211,126.705c4.768,2.786,12,3.123,16.153.754l1.123-.641c4.153-2.373,3.655-6.547-1.112-9.334" transform="translate(141.753 101.63)" fill="#5a9ad7"/>
          <path id="Trazado_1032886" data-name="Trazado 1032886" d="M388.118,217.836,20.092,2.331c-4.768-2.786-12-3.122-16.153-.753l-1.123.64C-1.337,4.591-.839,8.765,3.928,11.552l368.026,215.5c4.768,2.786,12,3.123,16.153.754l1.122-.64c4.153-2.373,3.655-6.547-1.112-9.334" transform="translate(27.709 0)" fill="#5a9ad7"/>
        </g>
      </g>
      <g id="Grupo_1188300" data-name="Grupo 1188300" transform="translate(216.229 155.023) rotate(180)">
        <g id="Grupo_1188299" data-name="Grupo 1188299" transform="translate(0 0)" clip-path="url(#clip-path-3)">
          <path id="Trazado_1032887" data-name="Trazado 1032887" d="M108.673,72.755c4.768,2.786,12,3.123,16.153.753l1.123-.64c4.153-2.373,3.655-6.548-1.112-9.334L20.091,2.331c-4.768-2.786-12-3.122-16.153-.753l-1.121.641C-1.337,4.592-.839,8.766,3.929,11.553Z" transform="translate(86.364 104.258)" fill="#5a9ad7"/>
          <path id="Trazado_1032888" data-name="Trazado 1032888" d="M217.374,117.484,20.091,2.332c-4.768-2.786-12-3.123-16.153-.754l-1.122.64C-1.337,4.59-.839,8.766,3.929,11.551L201.211,126.705c4.768,2.786,12,3.123,16.153.754l1.123-.641c4.153-2.373,3.655-6.547-1.112-9.334" transform="translate(141.753 101.63)" fill="#5a9ad7"/>
          <path id="Trazado_1032889" data-name="Trazado 1032889" d="M217.374,117.484,20.091,2.332c-4.768-2.786-12-3.123-16.153-.754l-1.122.64C-1.337,4.59-.839,8.766,3.929,11.551L201.211,126.705c4.768,2.786,12,3.123,16.153.754l1.123-.641c4.153-2.373,3.655-6.547-1.112-9.334" transform="translate(76.753 141.802)" fill="#5a9ad7"/>
        </g>
      </g>
      <g id="Grupo_1188301" data-name="Grupo 1188301" transform="translate(1062.529 521.956) rotate(60)" opacity="0.49">
        <circle id="Elipse_13845" data-name="Elipse 13845" cx="11.865" cy="11.865" r="11.865" transform="translate(37.142 0)" fill="url(#radial-gradient)"/>
        <circle id="Elipse_13846" data-name="Elipse 13846" cx="8.254" cy="8.254" r="8.254" transform="translate(17.539 17.539)" fill="url(#radial-gradient)"/>
        <circle id="Elipse_13847" data-name="Elipse 13847" cx="6.19" cy="6.19" r="6.19" transform="translate(0 31.984)" fill="url(#radial-gradient)"/>
      </g>
      <g id="Grupo_1188302" data-name="Grupo 1188302" transform="translate(1341.254 340.464) rotate(180)" opacity="0.61">
        <circle id="Elipse_13848" data-name="Elipse 13848" cx="12" cy="12" r="12" transform="translate(37 0)" fill="url(#radial-gradient)"/>
        <circle id="Elipse_13849" data-name="Elipse 13849" cx="8" cy="8" r="8" transform="translate(18 18)" fill="url(#radial-gradient)"/>
        <ellipse id="Elipse_13850" data-name="Elipse 13850" cx="6" cy="6.5" rx="6" ry="6.5" transform="translate(0 32)" fill="url(#radial-gradient)"/>
      </g>
      <g id="Grupo_1188303" data-name="Grupo 1188303" transform="translate(602.254 524.464) rotate(180)">
        <ellipse id="Elipse_13851" data-name="Elipse 13851" cx="11" cy="11.5" rx="11" ry="11.5" transform="translate(38)" fill="url(#radial-gradient)"/>
        <circle id="Elipse_13852" data-name="Elipse 13852" cx="8" cy="8" r="8" transform="translate(18 17)" fill="url(#radial-gradient)"/>
        <circle id="Elipse_13853" data-name="Elipse 13853" cx="6.5" cy="6.5" r="6.5" transform="translate(0 31)" fill="url(#radial-gradient)"/>
      </g>
      <g id="Grupo_1188304" data-name="Grupo 1188304" transform="translate(709.254 99.464) rotate(180)">
        <circle id="Elipse_13854" data-name="Elipse 13854" cx="12" cy="12" r="12" transform="translate(37 0)" fill="url(#radial-gradient)"/>
        <ellipse id="Elipse_13855" data-name="Elipse 13855" cx="8" cy="8.5" rx="8" ry="8.5" transform="translate(18 18)" fill="url(#radial-gradient)"/>
        <circle id="Elipse_13856" data-name="Elipse 13856" cx="6.5" cy="6.5" r="6.5" transform="translate(0 32)" fill="url(#radial-gradient)"/>
      </g>
      <g id="Grupo_1188305" data-name="Grupo 1188305" transform="translate(11.988 280.296) rotate(60)">
        <circle id="Elipse_13857" data-name="Elipse 13857" cx="11.865" cy="11.865" r="11.865" transform="translate(37.142 0)" fill="url(#radial-gradient)"/>
        <circle id="Elipse_13858" data-name="Elipse 13858" cx="8.254" cy="8.254" r="8.254" transform="translate(17.539 17.539)" fill="url(#radial-gradient)"/>
        <circle id="Elipse_13859" data-name="Elipse 13859" cx="6.19" cy="6.19" r="6.19" transform="translate(0 31.984)" fill="url(#radial-gradient)"/>
      </g>
    </g>
  </g>
</svg>
