<svg xmlns="http://www.w3.org/2000/svg" xmlns:xlink="http://www.w3.org/1999/xlink" width="1328" height="419.726" viewBox="0 0 1328 419.726">
  <defs>
    <clipPath id="clip-path">
      <rect id="Rectángulo_377901" data-name="Rectángulo 377901" width="1328" height="419.726" transform="translate(0 111)" fill="#7dbfff"/>
    </clipPath>
    <clipPath id="clip-path-2">
      <rect id="Rectángulo_377901-2" data-name="Rectángulo 377901" width="1361" height="454" rx="20" transform="translate(0.271 0.489)" fill="#7dbfff"/>
    </clipPath>
    <clipPath id="clip-path-3">
      <rect id="Rectángulo_459836" data-name="Rectángulo 459836" width="1478" height="624" rx="20" transform="translate(-0.009 -0.04)" fill="#a4e7f0"/>
    </clipPath>
    <clipPath id="clip-path-4">
      <rect id="Rectángulo_459832" data-name="Rectángulo 459832" width="1549.718" height="662.519" fill="#7dbfff"/>
    </clipPath>
    <linearGradient id="linear-gradient" x1="0.43" y1="0.864" x2="0.863" y2="0.028" gradientUnits="objectBoundingBox">
      <stop offset="0" stop-color="#8cc6fe"/>
      <stop offset="1" stop-color="#7dbfff"/>
    </linearGradient>
    <radialGradient id="radial-gradient" cx="0.5" cy="0.5" r="0.5" gradientTransform="matrix(1, 0, 0, -1, 0, 1)" gradientUnits="objectBoundingBox">
      <stop offset="0" stop-color="#fff"/>
      <stop offset="0.803" stop-color="#fff" stop-opacity="0.129"/>
      <stop offset="1" stop-color="#fff" stop-opacity="0"/>
    </radialGradient>
    <radialGradient id="radial-gradient-4" gradientTransform="matrix(-1, 0, 0, 1, 1, 0)" xlink:href="#radial-gradient"/>
    <clipPath id="clip-path-5">
      <rect id="Rectángulo_459823" data-name="Rectángulo 459823" width="419.755" height="230.667" fill="#5a9ad7"/>
    </clipPath>
  </defs>
  <g id="Grupo_1188517" data-name="Grupo 1188517" transform="translate(0 -111)">
    <g id="Enmascarar_grupo_154360" data-name="Enmascarar grupo 154360" clip-path="url(#clip-path)">
      <rect id="Rectángulo_378306" data-name="Rectángulo 378306" width="1398.301" height="619.457" transform="translate(1360.14 586) rotate(180)" fill="none"/>
      <g id="Grupo_1188349" data-name="Grupo 1188349" transform="translate(1344.769 539.352) rotate(180)">
        <g id="Enmascarar_grupo_154360-2" data-name="Enmascarar grupo 154360" transform="translate(0)" clip-path="url(#clip-path-2)">
          <rect id="Rectángulo_378306-2" data-name="Rectángulo 378306" width="1433.331" height="566.334" transform="translate(-32.945 0)" fill="none"/>
          <g id="Enmascarar_grupo_1178547" data-name="Enmascarar grupo 1178547" transform="translate(1412.263 566.45) rotate(180)" clip-path="url(#clip-path-3)">
            <g id="Grupo_1188329" data-name="Grupo 1188329" transform="translate(-15.761 -20.373)">
              <g id="Grupo_1188328" data-name="Grupo 1188328" transform="translate(0 0)">
                <g id="Grupo_1188327" data-name="Grupo 1188327" clip-path="url(#clip-path-4)">
                  <rect id="Rectángulo_459831" data-name="Rectángulo 459831" width="1549.718" height="662.519" transform="translate(0 0)" fill="#7dbfff"/>
                </g>
              </g>
            </g>
            <path id="Trazado_1032902" data-name="Trazado 1032902" d="M431.363,554.16,322.478,491.288l-108.857,62.9,108.891,62.865Zm227.843,0L550.3,491.281,441.463,554.17l108.9,62.88Zm227.887-.062L778.216,491.219,669.308,554.15,778.2,617.017Zm455.622-.018-108.9-62.874-108.781,62.855,108.866,62.9Zm227.843-.024-108.9-62.87-108.839,62.889,108.9,62.874Zm-455.627.011-108.84-62.889L897.177,554.114l108.86,62.875Zm683.492-.027-108.915-62.878L1580.67,554.05l108.911,62.878ZM317.439,488.378,208.524,425.491,99.657,488.4,208.579,551.28Zm227.8-.02-108.89-62.869L327.513,488.378,436.4,551.248Zm683.523-.07L1119.88,425.422l-108.737,62.836,108.844,62.886Zm-455.591.018L664.28,425.419,555.353,488.361l108.909,62.876Zm683.436-.04-108.9-62.87-108.84,62.889,108.9,62.873Zm227.842-.026-108.893-62.866-108.839,62.889,108.9,62.869Zm-683.411.018-108.85-62.9L783.247,488.312l108.873,62.882Zm911.259-.014-108.913-62.883-108.838,62.888,108.91,62.882ZM431.313,422.58,322.394,359.694,213.559,422.583l108.916,62.886Zm683.517-.073-108.895-62.872-108.7,62.81,108.855,62.893ZM659.223,422.5,550.344,359.62,441.4,422.571l108.894,62.868Zm683.432-.021-108.887-62.866L1124.933,422.5l108.885,62.865Zm227.843-.023L1461.6,359.586l-108.84,62.889,108.9,62.869Zm227.823-.017-108.883-62.865L1580.6,422.461l108.889,62.868Zm-911.177.011-108.863-62.9L669.317,422.509,778.2,485.4ZM317.359,356.786l-108.9-62.878L99.616,356.8l108.908,62.882Zm683.53-.065-108.9-62.879L783.325,356.631l108.867,62.9Zm227.834-.025-108.9-62.871-108.837,62.889,108.9,62.871Zm-683.412.014-108.9-62.895L327.44,356.779l108.923,62.884Zm911.235-.047L1347.655,293.8,1238.82,356.692l108.889,62.865Zm227.828-.017-108.886-62.866-108.839,62.889,108.89,62.868Zm227.849-.032-108.883-62.858-108.868,62.906,108.881,62.866Zm-1139,.009-108.852-62.9L555.385,356.705l108.874,62.883Zm113.7-65.7-108.9-62.873L669.414,290.816,778.271,353.71Zm227.847-.012-108.907-62.877L897.034,290.925,1005.941,353.8Zm-683.409-.006L322.481,228.023,213.5,290.995,322.4,353.871Zm911.245-.017-108.9-62.873-108.837,62.89,108.9,62.872Zm227.814-.03-108.888-62.868L1352.7,290.884l108.887,62.867Zm227.845-.028-108.886-62.862-108.863,62.9,108.885,62.867Zm-1138.928-.011L550.464,227.909,441.451,290.9l108.9,62.9ZM773,225.148,664.08,162.258,555.5,225l108.882,62.909Zm227.815-.029-108.9-62.874-108.837,62.89,108.9,62.873Zm227.845-.014-108.908-62.876-108.837,62.89,108.908,62.876Zm-911.217.011L208.541,162.22l-109,62.985,108.922,62.884Zm1139.054-.032-108.9-62.875L1238.761,225.1l108.9,62.873Zm227.821-.037-108.9-62.866-108.851,62.9,108.888,62.868Zm227.827-.02-108.876-62.861-108.841,62.889,108.882,62.865ZM545.428,225,436.574,162.1l-109.041,63,108.881,62.887Zm113.612-65.65L550.148,96.478,441.6,159.195,550.462,222.09Zm227.851-.008L777.963,96.453,669.125,159.343l108.926,62.888Zm227.815-.029L1005.8,96.44,896.964,159.33l108.9,62.872Zm227.849-.019L1233.648,96.417l-108.839,62.892,108.907,62.877Zm227.839-.02L1461.486,96.4l-108.849,62.9,108.9,62.876Zm227.812-.033L1689.313,96.369l-108.837,62.893,108.891,62.869Zm-1366.666-.049L322.656,96.279,213.6,159.3l108.9,62.9Zm113.57-65.622L436.182,30.677l-108.5,62.7,108.885,62.91Zm227.814-.027L664.032,30.675,555.192,93.563l108.895,62.87Zm227.852,0L891.845,30.651,783.007,93.539l108.928,62.887ZM1228.6,93.5,1119.7,30.625l-108.84,62.893,108.9,62.875Zm227.837-.014L1347.529,30.612,1238.687,93.505l108.9,62.878Zm227.846-.022-108.9-62.878-108.84,62.892,108.9,62.877Zm227.824-.045L1803.215,30.55,1694.351,93.458l108.89,62.872ZM317.634,93.376l-108.867-62.9L99.678,93.5,208.571,156.4ZM166.074,0l42.675,24.657L251.419,0H261.5L213.79,27.569l108.87,62.9,108.5-62.693L383.049,0h10.086L436.2,24.864,479.229,0H489.27L441.223,27.765,550.152,90.654,658.99,27.765,610.9,0h10.083l43.046,24.853L707.042,0h10.08L669.074,27.763l108.89,62.866L886.8,27.738,838.756,0h10.127l42.979,24.814L934.8,0h10.085L896.906,27.726l108.926,62.889,108.841-62.89L1066.653,0h10.084l42.975,24.813L1162.656,0H1172.7l-47.96,27.714,108.9,62.877L1342.485,27.7,1294.5,0h10.13l42.91,24.775L1390.421,0h10.085L1352.59,27.687l108.9,62.878,108.84-62.892L1522.4,0h10.084l42.885,24.762L1618.225,0h10.091l-47.895,27.676,108.9,62.878,108.867-62.906L1750.3,0h10.084l42.841,24.737L1846.04,0h10.041l-47.828,27.638,108.889,62.875,64.58-37.317v5.859l-59.51,34.384,59.508,34.361v5.81l-64.541-37.262-108.869,62.906,108.874,62.863,64.539-37.294v5.861l-59.466,34.361,59.466,34.335V265.2l-64.5-37.241-108.838,62.888,108.877,62.863,64.463-37.252v5.859l-59.394,34.32,59.394,34.291v5.816l-64.431-37.2-108.875,62.91,108.914,62.883,64.392-37.205v5.812l-59.358,34.3,59.357,34.271v5.811l-64.389-37.175L1808.5,554.04,1917.38,616.9l64.342-37.186v5.855l-59.275,34.257,59.275,34.224v5.81l-64.307-37.126-65.474,37.839h-10.127l70.533-40.765-108.887-62.863-108.837,62.89,70.561,40.736h-10.127l-65.494-37.813-65.431,37.81h-10.086l70.474-40.721-108.909-62.878-108.839,62.889,70.517,40.713h-10.127l-65.45-37.789-65.392,37.785h-10.085l70.43-40.7L1347.765,557l-108.819,62.878,70.444,40.7h-10.127L1233.886,622.8l-65.37,37.773h-10.086l70.409-40.688-108.86-62.9-108.9,62.92,70.409,40.666h-10.036L1006.063,622.8,940.7,660.57H930.619l70.4-40.678L892.151,557.019,783.264,619.94l70.376,40.632H843.508L778.2,622.865l-65.26,37.71H702.817l70.322-40.634L664.25,557.073,555.411,619.963l70.331,40.609H615.656l-65.285-37.7-65.242,37.7H475.043l70.284-40.613-108.9-62.88-108.847,62.9,70.314,40.594H387.811L322.54,622.888l-65.221,37.687H247.193l70.283-40.612L208.585,557.1,99.732,620l70.262,40.57H159.912L94.7,622.908,29.51,660.575H19.425L89.654,620,0,568.222V562.41l94.688,54.677,108.857-62.9L94.626,491.306.006,545.98v-5.812L89.592,488.4.006,436.68v-5.81l94.619,54.623,108.866-62.907L94.585,359.7,0,414.351V408.54L89.552,356.8.008,305.094v-5.812L94.585,353.89,203.421,291,94.5,228.117.006,282.722v-5.81l89.469-51.7L0,173.555v-5.816L94.513,222.3l109-62.985-108.9-62.89L0,151.093v-5.811L89.582,93.519,0,41.786V35.933L94.643,90.594,203.727,27.559,156.032,0Z" transform="translate(-107.413 -18.328)" fill="url(#linear-gradient)"/>
            <g id="Grupo_1188336" data-name="Grupo 1188336" transform="translate(1135.543 36.486) rotate(-60)" opacity="0.49">
              <circle id="Elipse_13875" data-name="Elipse 13875" cx="12.798" cy="12.798" r="12.798" transform="translate(40.062 22.257)" fill="url(#radial-gradient)"/>
              <circle id="Elipse_13876" data-name="Elipse 13876" cx="8.903" cy="8.903" r="8.903" transform="translate(18.918 11.128)" fill="url(#radial-gradient)"/>
              <circle id="Elipse_13877" data-name="Elipse 13877" cx="6.677" cy="6.677" r="6.677" transform="translate(0 0)" fill="url(#radial-gradient)"/>
            </g>
            <g id="Grupo_1188338" data-name="Grupo 1188338" transform="translate(435.493 460.752)" opacity="0.87">
              <circle id="Elipse_13881" data-name="Elipse 13881" cx="12.511" cy="12.511" r="12.511" transform="translate(0 0)" fill="url(#radial-gradient-4)"/>
              <ellipse id="Elipse_13882" data-name="Elipse 13882" cx="8.936" cy="8.34" rx="8.936" ry="8.34" transform="translate(28.596 19.064)" fill="url(#radial-gradient-4)"/>
              <ellipse id="Elipse_13883" data-name="Elipse 13883" cx="5.957" cy="6.553" rx="5.957" ry="6.553" transform="translate(52.425 34.553)" fill="url(#radial-gradient-4)"/>
            </g>
            <g id="Grupo_1188339" data-name="Grupo 1188339" transform="translate(1345.493 458.977)" opacity="0.98">
              <circle id="Elipse_13884" data-name="Elipse 13884" cx="12.511" cy="12.511" r="12.511" transform="translate(0 0)" fill="url(#radial-gradient-4)"/>
              <ellipse id="Elipse_13885" data-name="Elipse 13885" cx="8.34" cy="9.532" rx="8.34" ry="9.532" transform="translate(29.787 17.872)" fill="url(#radial-gradient-4)"/>
              <ellipse id="Elipse_13886" data-name="Elipse 13886" cx="6.553" cy="7.149" rx="6.553" ry="7.149" transform="translate(52.425 33.362)" fill="url(#radial-gradient-4)"/>
            </g>
            <g id="Grupo_1188340" data-name="Grupo 1188340" transform="translate(157.225 236.412) rotate(-60)">
              <circle id="Elipse_13887" data-name="Elipse 13887" cx="12.798" cy="12.798" r="12.798" transform="translate(40.062 22.257)" fill="url(#radial-gradient)"/>
              <circle id="Elipse_13888" data-name="Elipse 13888" cx="8.903" cy="8.903" r="8.903" transform="translate(18.918 11.128)" fill="url(#radial-gradient)"/>
              <circle id="Elipse_13889" data-name="Elipse 13889" cx="6.677" cy="6.677" r="6.677" transform="translate(0 0)" fill="url(#radial-gradient)"/>
            </g>
            <g id="Grupo_1188351" data-name="Grupo 1188351" transform="translate(1123.727 -0.04)">
              <g id="Grupo_1188297" data-name="Grupo 1188297" transform="translate(0 0)" clip-path="url(#clip-path-5)">
                <path id="Trazado_1032883" data-name="Trazado 1032883" d="M236.95,215.1,20.092,88.4c-4.768-2.786-12-3.123-16.153-.753l-1.123.64c-4.153,2.373-3.655,6.548,1.112,9.334L220.792,224.324c4.768,2.786,12,3.123,16.153.754l1.122-.64c4.153-2.373,3.655-6.547-1.112-9.334" transform="translate(0 2.731)" fill="#5a9ad7"/>
                <path id="Trazado_1032884" data-name="Trazado 1032884" d="M192.38,173.807c4.768,2.786,12,3.123,16.153.753l1.123-.64c4.153-2.373,3.655-6.548-1.112-9.334L103.8,103.383c-4.768-2.786-12-3.122-16.153-.753l-1.121.641c-4.154,2.373-3.656,6.547,1.112,9.334Z" transform="translate(2.656 3.207)" fill="#5a9ad7"/>
                <path id="Trazado_1032885" data-name="Trazado 1032885" d="M354.767,215.988,157.484,100.836c-4.768-2.786-12-3.123-16.153-.754l-1.122.64c-4.154,2.373-3.656,6.548,1.112,9.334L338.6,225.209c4.768,2.786,12,3.123,16.153.754l1.123-.641c4.153-2.373,3.655-6.547-1.112-9.334" transform="translate(4.36 3.126)" fill="#5a9ad7"/>
                <path id="Trazado_1032886" data-name="Trazado 1032886" d="M414.974,217.836,46.948,2.331C42.18-.455,34.949-.791,30.8,1.578l-1.123.64c-4.153,2.373-3.655,6.547,1.112,9.334l368.026,215.5c4.768,2.786,12,3.123,16.153.754l1.122-.64c4.153-2.373,3.655-6.547-1.112-9.334" transform="translate(0.852 0)" fill="#5a9ad7"/>
              </g>
            </g>
            <g id="Grupo_1188352" data-name="Grupo 1188352" transform="translate(-114.263 310.886)">
              <g id="Grupo_1188297-2" data-name="Grupo 1188297" transform="translate(0 0)" clip-path="url(#clip-path-5)">
                <path id="Trazado_1032883-2" data-name="Trazado 1032883" d="M236.95,215.1,20.092,88.4c-4.768-2.786-12-3.123-16.153-.753l-1.123.64c-4.153,2.373-3.655,6.548,1.112,9.334L220.792,224.324c4.768,2.786,12,3.123,16.153.754l1.122-.64c4.153-2.373,3.655-6.547-1.112-9.334" transform="translate(0 2.731)" fill="#5a9ad7"/>
                <path id="Trazado_1032884-2" data-name="Trazado 1032884" d="M192.38,173.807c4.768,2.786,12,3.123,16.153.753l1.123-.64c4.153-2.373,3.655-6.548-1.112-9.334L103.8,103.383c-4.768-2.786-12-3.122-16.153-.753l-1.121.641c-4.154,2.373-3.656,6.547,1.112,9.334Z" transform="translate(2.656 3.207)" fill="#5a9ad7"/>
                <path id="Trazado_1032885-2" data-name="Trazado 1032885" d="M354.767,215.988,157.484,100.836c-4.768-2.786-12-3.123-16.153-.754l-1.122.64c-4.154,2.373-3.656,6.548,1.112,9.334L338.6,225.209c4.768,2.786,12,3.123,16.153.754l1.123-.641c4.153-2.373,3.655-6.547-1.112-9.334" transform="translate(4.36 3.126)" fill="#5a9ad7"/>
                <path id="Trazado_1032886-2" data-name="Trazado 1032886" d="M414.974,217.836,46.948,2.331C42.18-.455,34.949-.791,30.8,1.578l-1.123.64c-4.153,2.373-3.655,6.547,1.112,9.334l368.026,215.5c4.768,2.786,12,3.123,16.153.754l1.122-.64c4.153-2.373,3.655-6.547-1.112-9.334" transform="translate(0.852 0)" fill="#5a9ad7"/>
              </g>
            </g>
          </g>
        </g>
      </g>
    </g>
  </g>
</svg>
